<svg width="29" height="29" viewBox="0 0 29 29" fill="none" xmlns="http://www.w3.org/2000/svg">
<g clip-path="url(#clip0_623_3470)">
<path d="M14.7359 17.0213C16.1175 17.0213 17.2485 15.8959 17.2485 14.5087C17.2485 13.9627 17.0702 13.4558 16.7749 13.0435C16.3181 12.4139 15.5771 11.9961 14.7414 11.9961C13.9058 11.9961 13.1648 12.4084 12.7079 13.0435C12.4127 13.4558 12.2344 13.9627 12.2344 14.5087C12.2288 15.8959 13.3542 17.0213 14.7359 17.0213Z" fill="white"/>
<path d="M20.2187 11.4452V9.33933V9.02734H19.9067L17.8008 9.03292L17.8119 11.4508L20.2187 11.4452Z" fill="white"/>
<path d="M18.6343 14.5141C18.6343 16.6645 16.8849 18.4139 14.7344 18.4139C12.584 18.4139 10.8346 16.6645 10.8346 14.5141C10.8346 13.9959 10.9404 13.5001 11.1243 13.0488H8.99609V18.8875C8.99609 19.6396 9.60893 20.2524 10.361 20.2524H19.1078C19.8599 20.2524 20.4728 19.6396 20.4728 18.8875V13.0488H18.3446C18.534 13.5001 18.6343 13.9959 18.6343 14.5141Z" fill="white"/>
<path d="M14.735 0.251953C6.85726 0.251953 0.472656 6.63656 0.472656 14.5142C0.472656 22.3919 6.85726 28.7765 14.735 28.7765C22.6126 28.7765 28.9972 22.3919 28.9972 14.5142C28.9972 6.63656 22.6126 0.251953 14.735 0.251953ZM21.8661 13.049V18.8876C21.8661 20.4086 20.6293 21.6454 19.1083 21.6454H10.3616C8.84061 21.6454 7.6038 20.4086 7.6038 18.8876V13.049V10.1353C7.6038 8.61434 8.84061 7.37753 10.3616 7.37753H19.1083C20.6293 7.37753 21.8661 8.61434 21.8661 10.1353V13.049Z" fill="white"/>
</g>
<defs>
<clipPath id="clip0_623_3470">
<rect width="28.5246" height="28.5246" fill="white" transform="translate(0.476562 0.251953)"/>
</clipPath>
</defs>
</svg>
