<svg width="30" height="29" viewBox="0 0 30 29" fill="none" xmlns="http://www.w3.org/2000/svg">
<g clip-path="url(#clip0_623_3462)">
<path d="M14.7584 0.251953C6.8807 0.251953 0.496094 6.63656 0.496094 14.5142C0.496094 22.3919 6.8807 28.7765 14.7584 28.7765C22.6361 28.7765 29.0207 22.3919 29.0207 14.5142C29.0207 6.63656 22.6361 0.251953 14.7584 0.251953ZM10.7694 20.481H7.98937V11.5838H10.7694V20.481ZM9.30417 10.4695H9.28189C8.2735 10.4695 7.62167 9.78986 7.62167 8.92633C7.62167 8.04607 8.29579 7.3831 9.32089 7.3831C10.346 7.3831 10.9755 8.04607 10.9978 8.92633C11.0034 9.78429 10.3516 10.4695 9.30417 10.4695ZM21.8895 20.481H18.7362V15.8792C18.7362 14.6758 18.246 13.8513 17.1596 13.8513C16.3295 13.8513 15.8671 14.4084 15.6554 14.9432C15.5774 15.1327 15.5885 15.4001 15.5885 15.6731V20.481H12.463C12.463 20.481 12.502 12.3248 12.463 11.5838H15.5885V12.9822C15.7723 12.3693 16.7696 11.5002 18.363 11.5002C20.3407 11.5002 21.8895 12.7816 21.8895 15.5338V20.481Z" fill="white"/>
</g>
<defs>
<clipPath id="clip0_623_3462">
<rect width="28.5246" height="28.5246" fill="white" transform="translate(0.492188 0.251953)"/>
</clipPath>
</defs>
</svg>
