<svg width="18" height="19" viewBox="0 0 18 19" fill="none" xmlns="http://www.w3.org/2000/svg">
<path d="M16.2081 13.1229V15.3327C16.209 15.5378 16.1669 15.7409 16.0848 15.9289C16.0026 16.1168 15.882 16.2856 15.7309 16.4242C15.5797 16.5629 15.4012 16.6685 15.2069 16.7342C15.0126 16.8 14.8067 16.8244 14.6023 16.8059C12.3357 16.5596 10.1585 15.7851 8.24551 14.5445C6.46576 13.4136 4.95685 11.9047 3.82593 10.125C2.58106 8.20333 1.80636 6.01548 1.56457 3.73867C1.54617 3.53497 1.57037 3.32968 1.63565 3.13585C1.70094 2.94203 1.80586 2.76392 1.94375 2.61287C2.08164 2.46181 2.24946 2.34113 2.43655 2.25849C2.62363 2.17585 2.82588 2.13308 3.0304 2.13288H5.24019C5.59767 2.12937 5.94423 2.25595 6.21527 2.48905C6.48632 2.72215 6.66335 3.04586 6.71339 3.39983C6.80666 4.10701 6.97963 4.80137 7.229 5.46967C7.32811 5.73331 7.34956 6.01984 7.29081 6.29531C7.23206 6.57077 7.09558 6.82362 6.89754 7.02389L5.96206 7.95937C7.01064 9.80347 8.53754 11.3304 10.3816 12.3789L11.3171 11.4435C11.5174 11.2454 11.7702 11.1089 12.0457 11.0502C12.3212 10.9914 12.6077 11.0129 12.8713 11.112C13.5396 11.3614 14.234 11.5344 14.9412 11.6276C15.299 11.6781 15.6258 11.8583 15.8594 12.134C16.093 12.4097 16.2171 12.7617 16.2081 13.1229Z" stroke="white" stroke-width="0.736597" stroke-linecap="round" stroke-linejoin="round"/>
</svg>
