<svg width="29" height="29" viewBox="0 0 29 29" fill="none" xmlns="http://www.w3.org/2000/svg">
<g clip-path="url(#clip0_623_3460)">
<path d="M14.2623 0.251953C6.38461 0.251953 0 6.63656 0 14.5142C0 22.3919 6.38461 28.7765 14.2623 28.7765C22.14 28.7765 28.5246 22.3919 28.5246 14.5142C28.5246 6.63656 22.14 0.251953 14.2623 0.251953ZM19.9561 12.2969C19.9616 12.4195 19.9616 12.5476 19.9616 12.6757C19.9616 16.5477 17.0145 21.0158 11.6215 21.0158C9.96689 21.0158 8.42367 20.5312 7.13115 19.701C7.35957 19.7289 7.59356 19.74 7.83312 19.74C9.20364 19.74 10.4683 19.2721 11.4711 18.4865C10.1897 18.4642 9.10335 17.6174 8.73565 16.453C8.91393 16.4865 9.09778 16.5032 9.2872 16.5032C9.55462 16.5032 9.81647 16.4697 10.0616 16.3973C8.71894 16.1299 7.71055 14.9432 7.71055 13.5226V13.4891C8.10611 13.7064 8.55738 13.8401 9.0365 13.8568C8.25096 13.3332 7.73284 12.4306 7.73284 11.4167C7.73284 10.8818 7.87769 10.3748 8.12839 9.94028C9.57691 11.7175 11.733 12.8819 14.1676 13.0044C14.1174 12.7927 14.0896 12.5699 14.0896 12.3359C14.0896 10.7203 15.4044 9.40545 17.02 9.40545C17.8613 9.40545 18.6245 9.76201 19.1594 10.3303C19.8279 10.1966 20.4519 9.957 21.0202 9.61716C20.8029 10.3024 20.3349 10.8762 19.7332 11.2384C20.3238 11.166 20.892 11.01 21.4157 10.776C21.0257 11.3665 20.5299 11.8791 19.9561 12.2969Z" fill="white"/>
</g>
<defs>
<clipPath id="clip0_623_3460">
<rect width="28.5246" height="28.5246" fill="white" transform="translate(0 0.251953)"/>
</clipPath>
</defs>
</svg>
