<svg width="30" height="29" viewBox="0 0 30 29" fill="none" xmlns="http://www.w3.org/2000/svg">
<g clip-path="url(#clip0_623_3464)">
<path d="M13.3398 17.2614L18.0085 14.5203L13.3398 11.7793V17.2614Z" fill="white"/>
<path d="M15.2428 0.251953C7.36507 0.251953 0.980469 6.63656 0.980469 14.5142C0.980469 22.3919 7.36507 28.7765 15.2428 28.7765C23.1205 28.7765 29.5051 22.3919 29.5051 14.5142C29.5051 6.63656 23.1205 0.251953 15.2428 0.251953ZM22.3739 17.0659C22.3739 19.5228 19.917 19.5228 19.917 19.5228H10.5685C8.11162 19.5228 8.11162 17.0659 8.11162 17.0659V11.9682C8.11162 9.5113 10.5685 9.5113 10.5685 9.5113H19.917C22.3739 9.5113 22.3739 11.9682 22.3739 11.9682V17.0659Z" fill="white"/>
</g>
<defs>
<clipPath id="clip0_623_3464">
<rect width="28.5246" height="28.5246" fill="white" transform="translate(0.984375 0.251953)"/>
</clipPath>
</defs>
</svg>
