<svg width="176" height="57" viewBox="0 0 176 57" fill="none" xmlns="http://www.w3.org/2000/svg">
<path d="M134.706 37.138L134.616 37.6792C134.442 38.7014 133.988 39.5199 133.253 40.1346C132.518 40.7426 131.633 41.0466 130.597 41.0466C129.515 41.0466 128.676 40.6824 128.081 39.9542C127.487 39.2192 127.28 38.3306 127.46 37.2883C127.634 36.2661 128.112 35.4209 128.893 34.7528C129.675 34.0846 130.584 33.7506 131.619 33.7506C132.314 33.7506 132.909 33.9009 133.403 34.2015C133.904 34.4955 134.285 34.9131 134.546 35.4543L133.283 36.1157C132.929 35.4342 132.331 35.0935 131.489 35.0935C130.814 35.0935 130.23 35.3073 129.735 35.7349C129.247 36.1558 128.947 36.707 128.833 37.3885C128.713 38.07 128.823 38.6246 129.164 39.0522C129.511 39.4798 130.032 39.6936 130.727 39.6936C131.876 39.6936 132.645 39.2493 133.032 38.3607H130.978L131.188 37.138H134.706ZM140.991 36.3162C140.904 36.7839 140.71 37.1914 140.41 37.5389C140.116 37.8863 139.748 38.1368 139.307 38.2905L140.37 40.9062H138.967L137.995 38.4709H136.842L136.411 40.9062H135.028L136.261 33.8909H138.997C139.631 33.8909 140.149 34.1347 140.55 34.6225C140.958 35.1102 141.105 35.6748 140.991 36.3162ZM139.217 36.9576C139.431 36.7571 139.565 36.5099 139.618 36.216C139.672 35.922 139.618 35.6781 139.458 35.4844C139.297 35.2839 139.067 35.1837 138.766 35.1837H137.413L137.052 37.2582H138.476C138.756 37.2582 139.003 37.158 139.217 36.9576ZM144.443 41.0466C143.428 41.0466 142.622 40.6791 142.028 39.9441C141.433 39.2025 141.229 38.3206 141.417 37.2983C141.59 36.2627 142.068 35.4142 142.85 34.7528C143.638 34.0846 144.57 33.7506 145.646 33.7506C146.648 33.7506 147.446 34.1214 148.041 34.863C148.642 35.6046 148.853 36.4866 148.672 37.5088C148.492 38.5444 148.011 39.3929 147.229 40.0544C146.448 40.7158 145.519 41.0466 144.443 41.0466ZM144.603 39.6936C145.258 39.6936 145.84 39.4798 146.347 39.0522C146.862 38.6246 147.179 38.0767 147.299 37.4086C147.413 36.7404 147.293 36.1892 146.939 35.755C146.585 35.314 146.083 35.0935 145.435 35.0935C144.787 35.0935 144.213 35.3106 143.712 35.7449C143.217 36.1725 142.91 36.7237 142.79 37.3986C142.669 38.0667 142.779 38.6179 143.12 39.0522C143.468 39.4798 143.962 39.6936 144.603 39.6936ZM150.115 40.9062L149.383 33.8909H150.756L151.207 39.0923L153.593 33.8909H154.775L155.336 39.0923L157.601 33.8909H159.095L155.898 40.9062H154.324L153.813 36.2761L151.688 40.9062H150.115ZM164.537 33.8909L164.306 35.2138H162.412L161.41 40.9062H160.027L161.029 35.2138H159.145L159.375 33.8909H164.537ZM169.298 33.8909H170.671L169.438 40.9062H168.065L168.576 37.9999H165.97L165.459 40.9062H164.076L165.309 33.8909H166.692L166.201 36.677H168.806L169.298 33.8909Z" fill="#000E56"/>
<path d="M120.75 51.74C119.622 51.74 118.752 51.3496 118.142 50.5687C117.538 49.7878 117.332 48.8543 117.524 47.7682C117.709 46.6891 118.22 45.7947 119.057 45.0848C119.895 44.3678 120.846 44.0093 121.911 44.0093C122.635 44.0093 123.256 44.1726 123.775 44.4991C124.3 44.8257 124.69 45.2729 124.946 45.8408L124.062 46.3093C123.643 45.4149 122.908 44.9676 121.858 44.9676C121.013 44.9676 120.275 45.2445 119.643 45.7982C119.018 46.3519 118.635 47.0441 118.493 47.8746C118.351 48.7123 118.496 49.4045 118.93 49.9511C119.37 50.4977 120.005 50.771 120.836 50.771C121.375 50.771 121.872 50.6503 122.326 50.4089C122.781 50.1676 123.157 49.8304 123.455 49.3974L124.275 49.9191C123.87 50.4799 123.356 50.9236 122.731 51.2502C122.113 51.5767 121.453 51.74 120.75 51.74ZM127.496 51.74C126.708 51.74 126.076 51.4667 125.6 50.9201C125.125 50.3735 124.961 49.6813 125.111 48.8436C125.26 48.0202 125.65 47.3635 126.282 46.8737C126.914 46.3839 127.616 46.139 128.39 46.139C129.15 46.139 129.76 46.4123 130.222 46.9589C130.683 47.5055 130.843 48.1905 130.701 49.014C130.559 49.8517 130.179 50.5154 129.562 51.0053C128.944 51.4951 128.255 51.74 127.496 51.74ZM127.57 50.8349C128.089 50.8349 128.561 50.6645 128.987 50.3238C129.42 49.983 129.686 49.5145 129.785 48.9182C129.885 48.3432 129.778 47.8888 129.466 47.5552C129.16 47.2144 128.752 47.0441 128.241 47.0441C127.737 47.0512 127.272 47.2215 126.846 47.5552C126.42 47.8888 126.151 48.3503 126.037 48.9395C125.938 49.5358 126.041 50.0043 126.346 50.3451C126.658 50.6787 127.066 50.842 127.57 50.8349ZM134.902 46.139C135.527 46.139 135.999 46.3377 136.318 46.7353C136.645 47.1328 136.751 47.6652 136.638 48.3325L136.063 51.6016H135.136L135.701 48.3858C135.779 47.9456 135.726 47.6084 135.541 47.3742C135.356 47.1399 135.051 47.0228 134.625 47.0228C134.171 47.0228 133.773 47.1683 133.433 47.4594C133.092 47.7433 132.872 48.1834 132.772 48.7797V48.7691L132.272 51.6016H131.346L132.283 46.2774H133.209L133.081 46.9802C133.543 46.4194 134.15 46.139 134.902 46.139ZM139.305 51.74C138.779 51.74 138.346 51.6264 138.006 51.3992C137.672 51.165 137.441 50.8491 137.314 50.4515L138.144 50.0256C138.201 50.2741 138.336 50.4764 138.549 50.6326C138.769 50.7887 139.046 50.8668 139.379 50.8668C139.692 50.8668 139.951 50.8065 140.157 50.6858C140.37 50.5651 140.497 50.3912 140.54 50.164C140.568 50.0079 140.536 49.8765 140.444 49.77C140.352 49.6636 140.221 49.5784 140.05 49.5145C139.887 49.4435 139.702 49.3761 139.496 49.3122C139.298 49.2483 139.099 49.1737 138.9 49.0886C138.701 49.0034 138.524 48.904 138.368 48.7904C138.212 48.6768 138.094 48.5206 138.016 48.3219C137.938 48.116 137.924 47.8782 137.974 47.6084C138.052 47.1754 138.279 46.824 138.655 46.5542C139.039 46.2774 139.486 46.139 139.997 46.139C140.906 46.139 141.523 46.5081 141.85 47.2464L141.03 47.6723C140.888 47.2251 140.529 47.0015 139.954 47.0015C139.706 47.0015 139.479 47.0618 139.273 47.1825C139.067 47.2961 138.943 47.47 138.9 47.7043C138.865 47.9172 138.936 48.0876 139.113 48.2154C139.298 48.3432 139.528 48.4496 139.805 48.5348C140.089 48.62 140.37 48.7159 140.646 48.8223C140.923 48.9288 141.143 49.1027 141.307 49.3441C141.47 49.5855 141.52 49.8943 141.456 50.2705C141.371 50.739 141.136 51.1011 140.753 51.3567C140.37 51.6122 139.887 51.74 139.305 51.74ZM146.948 46.2774H147.874L146.937 51.6016H146.011L146.139 50.8988C145.677 51.4596 145.07 51.74 144.318 51.74C143.693 51.74 143.217 51.5412 142.891 51.1437C142.571 50.7461 142.468 50.2137 142.582 49.5464L143.157 46.2774H144.083L143.519 49.4932C143.441 49.9333 143.494 50.2705 143.679 50.5048C143.863 50.739 144.169 50.8562 144.595 50.8562C145.049 50.8562 145.446 50.7142 145.787 50.4302C146.128 50.1392 146.348 49.6955 146.447 49.0992V49.1098L146.948 46.2774ZM148.358 51.6016L148.923 48.3645L149.721 43.8283H150.648L149.285 51.6016H148.358ZM152.966 47.1718L152.455 50.0576C152.405 50.3131 152.426 50.4977 152.519 50.6113C152.611 50.7248 152.76 50.7852 152.966 50.7923C153.179 50.7923 153.441 50.7852 153.754 50.771L153.605 51.6016C152.817 51.708 152.245 51.6406 151.89 51.3992C151.535 51.1508 151.415 50.7036 151.528 50.0576L152.029 47.1718H150.975L151.145 46.2774H152.189L152.401 45.0635L153.381 44.7866L153.115 46.2774H154.542L154.382 47.1718H152.966ZM156.277 45.3084C156.107 45.3084 155.972 45.248 155.873 45.1274C155.773 45.0067 155.738 44.8612 155.766 44.6908C155.794 44.5133 155.876 44.3642 156.011 44.2435C156.146 44.1229 156.306 44.0625 156.49 44.0625C156.661 44.0625 156.795 44.1264 156.895 44.2542C157.001 44.3749 157.04 44.5204 157.012 44.6908C156.976 44.8683 156.891 45.0173 156.756 45.138C156.622 45.2516 156.462 45.3084 156.277 45.3084ZM154.701 51.6016L155.638 46.2774H156.565L155.628 51.6016H154.701ZM160.598 46.139C161.222 46.139 161.694 46.3377 162.014 46.7353C162.34 47.1328 162.447 47.6652 162.333 48.3325L161.758 51.6016H160.832L161.396 48.3858C161.474 47.9456 161.421 47.6084 161.236 47.3742C161.052 47.1399 160.747 47.0228 160.321 47.0228C159.866 47.0228 159.469 47.1683 159.128 47.4594C158.787 47.7433 158.567 48.1834 158.468 48.7797V48.7691L157.967 51.6016H157.041L157.978 46.2774H158.904L158.777 46.9802C159.238 46.4194 159.845 46.139 160.598 46.139ZM168.418 46.2774H169.334L168.44 51.3779C168.298 52.1872 167.946 52.8048 167.385 53.2308C166.832 53.6567 166.164 53.8697 165.383 53.8697C164.816 53.8697 164.322 53.7561 163.903 53.5289C163.492 53.3018 163.193 52.9823 163.009 52.5706L163.829 52.1446C164.07 52.7196 164.606 53.0071 165.437 53.0071C166.019 53.0071 166.487 52.8652 166.842 52.5812C167.204 52.2973 167.432 51.8962 167.524 51.3779L167.63 50.7497C167.098 51.3744 166.406 51.6867 165.554 51.6867C164.745 51.6867 164.123 51.4063 163.69 50.8455C163.264 50.2776 163.115 49.5961 163.243 48.801C163.364 48.0202 163.715 47.3813 164.297 46.8843C164.879 46.3874 165.533 46.139 166.257 46.139C166.697 46.139 167.091 46.2383 167.439 46.4371C167.794 46.6288 168.06 46.9092 168.237 47.2783L168.418 46.2774ZM165.767 50.7923C166.278 50.7923 166.736 50.6361 167.14 50.3238C167.545 50.0043 167.808 49.5855 167.928 49.0673L167.982 48.7904C168.046 48.2509 167.911 47.8214 167.577 47.5019C167.243 47.1825 166.832 47.0228 166.342 47.0228C165.831 47.0228 165.362 47.1931 164.936 47.5339C164.51 47.8675 164.255 48.3148 164.17 48.8756C164.077 49.4222 164.18 49.8801 164.478 50.2492C164.784 50.6113 165.213 50.7923 165.767 50.7923Z" fill="#000E56"/>
<path d="M65.5345 30L68.7038 5.57587H76.758L74.2574 21.3934H74.9843L83.5037 5.57587H89.8714L88.3303 21.3934H89.0573L96.7043 5.57587H105.049L92.4301 30H81.5846L83.0966 18.2532H82.3988L76.38 30H65.5345ZM115.85 30L115.792 26.7725H105.499L103.376 30H94.7989L111.402 5.57587H122.741L123.846 30H115.85ZM109.424 20.8119H115.734L115.618 13.1357H114.455L109.424 20.8119ZM125.264 30L133.202 5.57587H141.256L135.469 23.2834H148.961L146.809 30H125.264ZM149.507 30L157.444 5.57587H165.499L159.712 23.2834H173.204L171.052 30H149.507Z" fill="#000E56"/>
<path d="M9.50028 53.1651C3.72615 53.1651 0.161061 51.4591 1.9108 46.4724H7.05065C6.74445 47.9378 8.31921 48.5283 10.3533 48.5283C12.4748 48.5283 14.3995 48.0253 14.3995 46.7567C14.3995 46.1881 14.0933 45.5975 12.278 45.3351L10.8126 45.0945C8.95349 44.832 4.31669 44.2415 4.31669 40.4139C4.31669 36.0396 8.47231 33.5681 14.3558 33.5681C19.9768 33.5681 23.52 35.9521 21.5735 40.2171H16.6086C16.7836 39.2766 16.0181 38.2049 13.5028 38.2049C11.425 38.2049 10.0908 38.9048 10.0908 39.9765C10.0908 40.5014 10.4189 41.0263 11.8406 41.2669L12.9123 41.4638C15.5806 41.9887 20.3268 42.273 20.3268 46.2099C20.3268 51.4373 15.2525 53.1651 9.50028 53.1651ZM44.6327 34.1805L42.9924 39.2329H36.5183L32.1659 52.5527H26.1074L30.4599 39.2329H23.8327L25.4513 34.1805H44.6327ZM63.3402 39.5391C63.3402 42.8417 61.3936 45.2913 58.8565 46.6474L60.2126 52.5527H54.3947L53.3667 47.8284H48.5112L47.0021 52.5527H40.9436L46.849 34.1805H56.4288C61.0874 34.1805 63.3402 35.9521 63.3402 39.5391ZM51.2889 39.211L49.9547 43.3885L54.1541 43.3666C55.4664 43.3666 57.1724 42.5136 57.1724 40.8295C57.1724 39.6047 56.4725 39.211 55.0509 39.211H51.2889ZM82.8812 39.0141H72.3172L71.5517 41.3763H82.0501L80.7816 45.2476H70.305L69.4958 47.7191H80.0379L78.4632 52.5527H61.8844L67.8116 34.1805H84.456L82.8812 39.0141ZM101.79 39.0141H91.2256L90.4601 41.3763H100.959L99.69 45.2476H89.2134L88.4042 47.7191H98.9464L97.3716 52.5527H80.7928L86.7201 34.1805H103.364L101.79 39.0141ZM124.701 34.1805L123.06 39.2329H116.586L112.234 52.5527H106.175L110.528 39.2329H103.901L105.519 34.1805H124.701Z" fill="#000E56"/>
<path d="M49.1229 5.97132L48.891 7.31369H46.487L45.2178 14.5137H43.8144L45.0836 7.31369H42.6673L42.8992 5.97132H49.1229ZM53.3091 8.25335C54.0088 8.25335 54.5417 8.48114 54.9078 8.93673C55.282 9.38419 55.404 9.99436 55.2739 10.7672L54.6149 14.5137H53.2969L53.9315 10.9015C54.0129 10.4377 53.9518 10.0879 53.7485 9.85199C53.5532 9.60792 53.24 9.48589 52.8088 9.48589C52.3613 9.48589 51.9708 9.62012 51.6373 9.8886C51.3037 10.1571 51.0841 10.5679 50.9783 11.1211L50.3803 14.5137H49.0624L50.5634 5.97132H51.8813L51.32 9.14419C51.8325 8.55029 52.4956 8.25335 53.3091 8.25335ZM60.3546 8.25335C61.2658 8.25335 61.9736 8.56657 62.478 9.19301C62.9905 9.81944 63.1614 10.5801 62.9905 11.475C62.9173 11.7679 62.8685 11.951 62.8441 12.0242H57.9871C57.9953 12.496 58.1498 12.854 58.4509 13.0981C58.7519 13.3421 59.1464 13.4642 59.6346 13.4642C60.3586 13.4642 60.9322 13.2079 61.3553 12.6954L62.3193 13.4276C61.6522 14.2574 60.7207 14.6723 59.5247 14.6723C58.5403 14.6723 57.7878 14.351 57.2671 13.7082C56.7464 13.0655 56.5634 12.2764 56.718 11.3408C56.8726 10.4459 57.2915 9.70961 57.9749 9.13199C58.6583 8.54623 59.4515 8.25335 60.3546 8.25335ZM58.1702 10.9381H61.7458C61.7539 10.4337 61.6197 10.0594 61.343 9.81538C61.0746 9.57131 60.7166 9.44928 60.2692 9.44928C59.7892 9.44928 59.362 9.58351 58.9878 9.85199C58.6217 10.1123 58.3492 10.4744 58.1702 10.9381Z" fill="#000E56"/>
<path d="M17.6034 14.3305L15.6521 25.4355H13.8277L15.2237 17.5351L10.8452 23.1035H10.6231L8.25928 17.3764L6.84735 25.4355H5.02295L6.97427 14.3305H8.89386L11.1783 19.9623L15.5252 14.3305H17.6034ZM26.084 17.5034H27.7974L26.4013 25.4355H24.688L24.8466 24.4995C24.1063 25.261 23.1385 25.6418 21.9434 25.6418C20.7906 25.6418 19.9022 25.2082 19.2782 24.3409C18.6648 23.4631 18.4638 22.4478 18.6754 21.2949C18.8869 20.1104 19.4104 19.148 20.2459 18.4076C21.092 17.6673 22.0703 17.2971 23.1808 17.2971C24.4183 17.2971 25.312 17.7942 25.8619 18.7884L26.084 17.5034ZM22.4511 24.0078C23.128 24.0078 23.7361 23.8015 24.2755 23.389C24.8149 22.966 25.1692 22.4213 25.3384 21.755L25.4177 21.2949C25.4918 20.5652 25.3225 19.9888 24.9101 19.5657C24.4976 19.1427 23.9529 18.9312 23.276 18.9312C22.5886 18.9312 21.9699 19.1533 21.4199 19.5975C20.8699 20.0417 20.5262 20.6498 20.3887 21.4219C20.2618 22.1622 20.394 22.7809 20.7853 23.278C21.1766 23.7645 21.7319 24.0078 22.4511 24.0078ZM37.2979 14.3305H39.0113L37.0599 25.4355H35.3466L35.5211 24.4837C34.7702 25.2558 33.7919 25.6418 32.5862 25.6418C31.4334 25.6418 30.545 25.2082 29.921 24.3409C29.3075 23.4631 29.1066 22.4478 29.3181 21.2949C29.5296 20.1104 30.0532 19.148 30.8887 18.4076C31.7348 17.6673 32.7131 17.2971 33.8236 17.2971C35.0716 17.2971 35.9653 17.7995 36.5047 18.8042L37.2979 14.3305ZM33.1097 24.0078C33.7866 24.0078 34.3947 23.8015 34.9341 23.389C35.4735 22.966 35.8278 22.416 35.997 21.7391L36.0763 21.2791C36.1504 20.5493 35.9812 19.9782 35.5687 19.5657C35.1562 19.1427 34.6115 18.9312 33.9347 18.9312C33.2472 18.9312 32.6232 19.1533 32.0627 19.5975C31.5127 20.0417 31.169 20.6498 31.0315 21.4219C30.9046 22.1622 31.0368 22.7809 31.4281 23.278C31.83 23.7645 32.3905 24.0078 33.1097 24.0078ZM42.594 18.6932C43.2286 17.7731 44.1223 17.3289 45.2751 17.3606L44.9419 19.2167C44.5612 19.185 44.191 19.222 43.8314 19.3278C43.4718 19.4335 43.1281 19.6503 42.8002 19.9782C42.4829 20.3061 42.2661 20.7238 42.1498 21.2315L41.4042 25.4355H39.6908L41.0869 17.5034H42.8002L42.594 18.6932ZM53.1786 17.5034H54.892L53.4959 25.4355H51.7826L51.9412 24.4995C51.2009 25.261 50.2332 25.6418 49.038 25.6418C47.8852 25.6418 46.9968 25.2082 46.3728 24.3409C45.7594 23.4631 45.5585 22.4478 45.77 21.2949C45.9815 20.1104 46.505 19.148 47.3405 18.4076C48.1866 17.6673 49.165 17.2971 50.2755 17.2971C51.5129 17.2971 52.4066 17.7942 52.9565 18.7884L53.1786 17.5034ZM49.5457 24.0078C50.2226 24.0078 50.8307 23.8015 51.3701 23.389C51.9095 22.966 52.2638 22.4213 52.433 21.755L52.5123 21.2949C52.5864 20.5652 52.4172 19.9888 52.0047 19.5657C51.5922 19.1427 51.0475 18.9312 50.3706 18.9312C49.6832 18.9312 49.0645 19.1533 48.5145 19.5975C47.9645 20.0417 47.6208 20.6498 47.4833 21.4219C47.3564 22.1622 47.4886 22.7809 47.8799 23.278C48.2713 23.7645 48.8265 24.0078 49.5457 24.0078ZM59.0473 25.6418C57.4609 25.6418 56.4244 25.0019 55.9379 23.7222L57.4768 22.929C57.572 23.278 57.7676 23.5583 58.0638 23.7698C58.3599 23.9707 58.7353 24.0712 59.1901 24.0712C60.0468 24.0712 60.5227 23.7909 60.6179 23.2304C60.6602 22.966 60.5439 22.7545 60.2689 22.5958C60.0045 22.4266 59.6713 22.2838 59.2694 22.1675C58.8675 22.0406 58.4656 21.8978 58.0638 21.7391C57.6724 21.5699 57.3604 21.3055 57.1278 20.9459C56.8951 20.5758 56.8263 20.1104 56.9215 19.5499C57.0484 18.8624 57.408 18.3177 58.0003 17.9158C58.5926 17.5034 59.2747 17.2971 60.0468 17.2971C60.7237 17.2971 61.3054 17.4452 61.7919 17.7413C62.289 18.0269 62.6591 18.4288 62.9024 18.947L61.3635 19.7244C61.1732 19.1321 60.7025 18.836 59.9516 18.836C59.6343 18.836 59.3488 18.91 59.0949 19.0581C58.8411 19.1956 58.6878 19.4071 58.6349 19.6926C58.582 19.9676 58.6878 20.1897 58.9522 20.3589C59.2271 20.5282 59.5656 20.6709 59.9675 20.7873C60.38 20.893 60.7818 21.0253 61.1732 21.1839C61.5751 21.3425 61.8924 21.6069 62.125 21.9771C62.3577 22.3473 62.4265 22.8179 62.3313 23.389C62.2044 24.1188 61.8395 24.6793 61.2366 25.0707C60.6444 25.4514 59.9146 25.6418 59.0473 25.6418Z" fill="#000E56"/>
<path d="M7.23608 9.12695H39.8075" stroke="#000E56" stroke-width="0.626374"/>
<path d="M3.58154 29.5938H62.4607" stroke="#000E56" stroke-width="0.626374"/>
</svg>
