<svg width="296" height="53" viewBox="0 0 296 53" fill="none" xmlns="http://www.w3.org/2000/svg">
<rect x="162.476" y="8.09277" width="0.5" height="43.9868" fill="#ABB8FF"/>
<path d="M186.059 28.5859L186.969 22.0359H184.959L185.079 21.1359H190.079L189.959 22.0359H187.959L187.039 28.5859H186.059ZM189.873 28.5859L190.933 21.0159H191.873L191.423 24.2459L191.263 24.1359C191.436 23.7959 191.683 23.5359 192.003 23.3559C192.323 23.1693 192.673 23.0759 193.053 23.0759C193.446 23.0759 193.786 23.1693 194.073 23.3559C194.36 23.5426 194.57 23.7993 194.703 24.1259C194.843 24.4459 194.883 24.8126 194.823 25.2259L194.353 28.5859H193.403L193.863 25.3059C193.916 24.8993 193.843 24.5759 193.643 24.3359C193.443 24.0959 193.16 23.9759 192.793 23.9759C192.54 23.9759 192.303 24.0359 192.083 24.1559C191.87 24.2693 191.69 24.4326 191.543 24.6459C191.396 24.8593 191.303 25.1126 191.263 25.4059L190.823 28.5859H189.873ZM198.384 28.7059C197.884 28.7059 197.444 28.5926 197.064 28.3659C196.684 28.1393 196.384 27.8293 196.164 27.4359C195.95 27.0359 195.844 26.5826 195.844 26.0759C195.844 25.6693 195.91 25.2859 196.044 24.9259C196.184 24.5659 196.38 24.2459 196.634 23.9659C196.894 23.6859 197.19 23.4693 197.524 23.3159C197.864 23.1559 198.237 23.0759 198.644 23.0759C199.15 23.0759 199.58 23.1893 199.934 23.4159C200.287 23.6426 200.557 23.9393 200.744 24.3059C200.93 24.6659 201.024 25.0593 201.024 25.4859C201.024 25.5993 201.014 25.7193 200.994 25.8459C200.974 25.9726 200.954 26.0793 200.934 26.1659H196.514L196.564 25.3659H200.454L199.984 25.7159C200.07 25.3759 200.064 25.0726 199.964 24.8059C199.864 24.5326 199.697 24.3159 199.464 24.1559C199.23 23.9893 198.954 23.9059 198.634 23.9059C198.227 23.9059 197.887 24.0059 197.614 24.2059C197.347 24.3993 197.144 24.6726 197.004 25.0259C196.87 25.3726 196.804 25.7726 196.804 26.2259C196.804 26.5593 196.874 26.8493 197.014 27.0959C197.16 27.3426 197.354 27.5326 197.594 27.6659C197.834 27.7926 198.1 27.8559 198.394 27.8559C198.76 27.8559 199.074 27.7726 199.334 27.6059C199.6 27.4326 199.817 27.2159 199.984 26.9559L200.754 27.3759C200.627 27.6226 200.447 27.8493 200.214 28.0559C199.98 28.2559 199.707 28.4159 199.394 28.5359C199.08 28.6493 198.744 28.7059 198.384 28.7059ZM203.674 28.5859L204.714 21.1359H205.704L204.784 27.6859H208.054L207.924 28.5859H203.674ZM211.636 28.7059C211.136 28.7059 210.696 28.5926 210.316 28.3659C209.936 28.1393 209.636 27.8293 209.416 27.4359C209.202 27.0359 209.096 26.5826 209.096 26.0759C209.096 25.6693 209.162 25.2859 209.296 24.9259C209.436 24.5659 209.632 24.2459 209.886 23.9659C210.146 23.6859 210.442 23.4693 210.776 23.3159C211.116 23.1559 211.489 23.0759 211.896 23.0759C212.402 23.0759 212.832 23.1893 213.186 23.4159C213.539 23.6426 213.809 23.9393 213.996 24.3059C214.182 24.6659 214.276 25.0593 214.276 25.4859C214.276 25.5993 214.266 25.7193 214.246 25.8459C214.226 25.9726 214.206 26.0793 214.186 26.1659H209.766L209.816 25.3659H213.706L213.236 25.7159C213.322 25.3759 213.316 25.0726 213.216 24.8059C213.116 24.5326 212.949 24.3159 212.716 24.1559C212.482 23.9893 212.206 23.9059 211.886 23.9059C211.479 23.9059 211.139 24.0059 210.866 24.2059C210.599 24.3993 210.396 24.6726 210.256 25.0259C210.122 25.3726 210.056 25.7726 210.056 26.2259C210.056 26.5593 210.126 26.8493 210.266 27.0959C210.412 27.3426 210.606 27.5326 210.846 27.6659C211.086 27.7926 211.352 27.8559 211.646 27.8559C212.012 27.8559 212.326 27.7726 212.586 27.6059C212.852 27.4326 213.069 27.2159 213.236 26.9559L214.006 27.3759C213.879 27.6226 213.699 27.8493 213.466 28.0559C213.232 28.2559 212.959 28.4159 212.646 28.5359C212.332 28.6493 211.996 28.7059 211.636 28.7059ZM216.739 28.7059C216.433 28.7059 216.146 28.6526 215.879 28.5459C215.619 28.4326 215.409 28.2693 215.249 28.0559C215.089 27.8359 215.009 27.5626 215.009 27.2359C215.009 26.9226 215.086 26.6459 215.239 26.4059C215.399 26.1593 215.623 25.9593 215.909 25.8059C216.203 25.6459 216.546 25.5359 216.939 25.4759L218.979 25.1459L218.899 25.9259L217.099 26.2359C216.759 26.2959 216.489 26.4093 216.289 26.5759C216.089 26.7359 215.989 26.9393 215.989 27.1859C215.989 27.4126 216.073 27.5926 216.239 27.7259C216.413 27.8526 216.636 27.9159 216.909 27.9159C217.223 27.9159 217.506 27.8426 217.759 27.6959C218.019 27.5493 218.233 27.3526 218.399 27.1059C218.573 26.8526 218.679 26.5759 218.719 26.2759L218.889 24.9959C218.929 24.7559 218.899 24.5593 218.799 24.4059C218.699 24.2459 218.559 24.1293 218.379 24.0559C218.206 23.9759 218.019 23.9359 217.819 23.9359C217.493 23.9359 217.199 24.0193 216.939 24.1859C216.686 24.3526 216.489 24.5626 216.349 24.8159L215.569 24.3459C215.703 24.0993 215.883 23.8826 216.109 23.6959C216.343 23.5026 216.609 23.3526 216.909 23.2459C217.216 23.1326 217.539 23.0759 217.879 23.0759C218.279 23.0759 218.636 23.1593 218.949 23.3259C219.269 23.4926 219.509 23.7226 219.669 24.0159C219.836 24.3093 219.893 24.6493 219.839 25.0359L219.339 28.5859H218.419L218.559 27.5659L218.759 27.6559C218.619 27.8693 218.446 28.0559 218.239 28.2159C218.033 28.3693 217.803 28.4893 217.549 28.5759C217.296 28.6626 217.026 28.7059 216.739 28.7059ZM223.441 28.7059C222.954 28.7059 222.521 28.5959 222.141 28.3759C221.761 28.1493 221.464 27.8426 221.251 27.4559C221.044 27.0626 220.941 26.6159 220.941 26.1159C220.941 25.6893 221.011 25.2926 221.151 24.9259C221.298 24.5526 221.501 24.2293 221.761 23.9559C222.028 23.6826 222.334 23.4693 222.681 23.3159C223.034 23.1559 223.414 23.0759 223.821 23.0759C224.294 23.0759 224.701 23.1759 225.041 23.3759C225.388 23.5693 225.654 23.8326 225.841 24.1659L225.681 24.3559L226.141 21.0159H227.091L226.041 28.5859H225.121L225.271 27.4359L225.521 27.5859C225.314 27.9459 225.024 28.2226 224.651 28.4159C224.278 28.6093 223.874 28.7059 223.441 28.7059ZM223.541 27.8059C223.908 27.8059 224.238 27.7093 224.531 27.5159C224.831 27.3226 225.064 27.0693 225.231 26.7559C225.404 26.4359 225.491 26.0893 225.491 25.7159C225.491 25.3826 225.421 25.0859 225.281 24.8259C225.141 24.5659 224.948 24.3593 224.701 24.2059C224.454 24.0526 224.171 23.9759 223.851 23.9759C223.484 23.9759 223.154 24.0726 222.861 24.2659C222.568 24.4593 222.338 24.7159 222.171 25.0359C222.011 25.3559 221.931 25.7093 221.931 26.0959C221.931 26.4226 221.998 26.7159 222.131 26.9759C222.271 27.2293 222.461 27.4326 222.701 27.5859C222.948 27.7326 223.228 27.8059 223.541 27.8059ZM227.471 28.5859L228.231 23.1959H229.171L228.421 28.5859H227.471ZM228.351 22.3359L228.511 21.1359H229.461L229.301 22.3359H228.351ZM229.863 28.5859L230.623 23.1959H231.533L231.393 24.2459L231.253 24.1359C231.427 23.7959 231.673 23.5359 231.993 23.3559C232.313 23.1693 232.663 23.0759 233.043 23.0759C233.437 23.0759 233.777 23.1693 234.063 23.3559C234.35 23.5426 234.56 23.7993 234.693 24.1259C234.833 24.4459 234.873 24.8126 234.813 25.2259L234.343 28.5859H233.403L233.863 25.3059C233.917 24.8993 233.843 24.5759 233.643 24.3359C233.443 24.0959 233.157 23.9759 232.783 23.9759C232.523 23.9759 232.283 24.0359 232.063 24.1559C231.85 24.2693 231.67 24.4326 231.523 24.6459C231.383 24.8593 231.29 25.1126 231.243 25.4059L230.803 28.5859H229.863ZM238.014 30.7859C237.614 30.7859 237.257 30.7226 236.944 30.5959C236.631 30.4759 236.371 30.3059 236.164 30.0859C235.964 29.8726 235.824 29.6259 235.744 29.3459L236.624 29.0259C236.691 29.2659 236.844 29.4693 237.084 29.6359C237.331 29.8026 237.667 29.8859 238.094 29.8859C238.381 29.8859 238.654 29.8293 238.914 29.7159C239.174 29.6093 239.394 29.4493 239.574 29.2359C239.754 29.0226 239.864 28.7559 239.904 28.4359L240.084 27.1459L240.344 27.3359C240.137 27.7026 239.851 27.9826 239.484 28.1759C239.124 28.3626 238.731 28.4559 238.304 28.4559C237.851 28.4559 237.434 28.3526 237.054 28.1459C236.681 27.9326 236.384 27.6393 236.164 27.2659C235.951 26.8859 235.844 26.4493 235.844 25.9559C235.844 25.5559 235.914 25.1826 236.054 24.8359C236.194 24.4826 236.391 24.1759 236.644 23.9159C236.904 23.6559 237.204 23.4526 237.544 23.3059C237.884 23.1526 238.254 23.0759 238.654 23.0759C239.101 23.0759 239.497 23.1726 239.844 23.3659C240.191 23.5593 240.461 23.8259 240.654 24.1659L240.494 24.3959L240.654 23.1959H241.584L240.854 28.4659C240.794 28.9259 240.627 29.3293 240.354 29.6759C240.087 30.0293 239.751 30.3026 239.344 30.4959C238.944 30.6893 238.501 30.7859 238.014 30.7859ZM238.404 27.5559C238.757 27.5559 239.074 27.4659 239.354 27.2859C239.641 27.1059 239.867 26.8693 240.034 26.5759C240.207 26.2826 240.294 25.9659 240.294 25.6259C240.294 25.3126 240.227 25.0326 240.094 24.7859C239.961 24.5326 239.774 24.3359 239.534 24.1959C239.301 24.0493 239.024 23.9759 238.704 23.9759C238.371 23.9759 238.061 24.0626 237.774 24.2359C237.487 24.4093 237.257 24.6426 237.084 24.9359C236.917 25.2226 236.834 25.5526 236.834 25.9259C236.834 26.2326 236.901 26.5093 237.034 26.7559C237.174 27.0026 237.361 27.1993 237.594 27.3459C237.834 27.4859 238.104 27.5559 238.404 27.5559ZM244.104 28.5859L245.144 21.1359H250.004L249.874 22.0359H246.014L245.674 24.3959H249.344L249.224 25.2959H245.554L245.214 27.6859H249.084L248.964 28.5859H244.104ZM250.068 28.5859L250.828 23.1959H251.738L251.598 24.2459L251.458 24.1359C251.632 23.7959 251.878 23.5359 252.198 23.3559C252.518 23.1693 252.868 23.0759 253.248 23.0759C253.642 23.0759 253.982 23.1693 254.268 23.3559C254.555 23.5426 254.765 23.7993 254.898 24.1259C255.038 24.4459 255.078 24.8126 255.018 25.2259L254.548 28.5859H253.608L254.068 25.3059C254.122 24.8993 254.048 24.5759 253.848 24.3359C253.648 24.0959 253.362 23.9759 252.988 23.9759C252.728 23.9759 252.488 24.0359 252.268 24.1559C252.055 24.2693 251.875 24.4326 251.728 24.6459C251.588 24.8593 251.495 25.1126 251.448 25.4059L251.008 28.5859H250.068ZM258.109 28.6459C257.576 28.6459 257.182 28.4926 256.929 28.1859C256.676 27.8793 256.586 27.4493 256.659 26.8959L257.049 24.0859H256.079L256.199 23.1959H256.379C256.619 23.1959 256.822 23.1193 256.989 22.9659C257.162 22.8126 257.262 22.6159 257.289 22.3759L257.349 21.9559H258.299L258.129 23.1959H259.319L259.189 24.0859H257.999L257.599 26.9259C257.572 27.1059 257.576 27.2626 257.609 27.3959C257.642 27.5226 257.716 27.6226 257.829 27.6959C257.942 27.7626 258.106 27.7959 258.319 27.7959C258.379 27.7959 258.442 27.7926 258.509 27.7859C258.582 27.7793 258.649 27.7726 258.709 27.7659L258.639 28.5959C258.552 28.6226 258.456 28.6359 258.349 28.6359C258.249 28.6426 258.169 28.6459 258.109 28.6459ZM262.407 28.7059C261.907 28.7059 261.467 28.5926 261.087 28.3659C260.707 28.1393 260.407 27.8293 260.187 27.4359C259.974 27.0359 259.867 26.5826 259.867 26.0759C259.867 25.6693 259.934 25.2859 260.067 24.9259C260.207 24.5659 260.404 24.2459 260.657 23.9659C260.917 23.6859 261.214 23.4693 261.547 23.3159C261.887 23.1559 262.261 23.0759 262.667 23.0759C263.174 23.0759 263.604 23.1893 263.957 23.4159C264.311 23.6426 264.581 23.9393 264.767 24.3059C264.954 24.6659 265.047 25.0593 265.047 25.4859C265.047 25.5993 265.037 25.7193 265.017 25.8459C264.997 25.9726 264.977 26.0793 264.957 26.1659H260.537L260.587 25.3659H264.477L264.007 25.7159C264.094 25.3759 264.087 25.0726 263.987 24.8059C263.887 24.5326 263.721 24.3159 263.487 24.1559C263.254 23.9893 262.977 23.9059 262.657 23.9059C262.251 23.9059 261.911 24.0059 261.637 24.2059C261.371 24.3993 261.167 24.6726 261.027 25.0259C260.894 25.3726 260.827 25.7726 260.827 26.2259C260.827 26.5593 260.897 26.8493 261.037 27.0959C261.184 27.3426 261.377 27.5326 261.617 27.6659C261.857 27.7926 262.124 27.8559 262.417 27.8559C262.784 27.8559 263.097 27.7726 263.357 27.6059C263.624 27.4326 263.841 27.2159 264.007 26.9559L264.777 27.3759C264.651 27.6226 264.471 27.8493 264.237 28.0559C264.004 28.2559 263.731 28.4159 263.417 28.5359C263.104 28.6493 262.767 28.7059 262.407 28.7059ZM265.859 28.5859L266.619 23.1959H267.539L267.399 24.1859L267.309 24.0459C267.483 23.7393 267.709 23.5126 267.989 23.3659C268.269 23.2126 268.596 23.1359 268.969 23.1359H269.299L269.169 24.0159H268.699C268.319 24.0159 267.999 24.1393 267.739 24.3859C267.479 24.6259 267.313 24.9893 267.239 25.4759L266.809 28.5859H265.859ZM269.075 30.5859L270.115 23.1959H271.035L270.875 24.3559L270.615 24.1159C270.842 23.7893 271.132 23.5359 271.485 23.3559C271.845 23.1693 272.242 23.0759 272.675 23.0759C273.175 23.0759 273.615 23.1926 273.995 23.4259C274.375 23.6593 274.669 23.9726 274.875 24.3659C275.089 24.7593 275.195 25.2026 275.195 25.6959C275.195 26.1026 275.122 26.4893 274.975 26.8559C274.835 27.2159 274.635 27.5359 274.375 27.8159C274.115 28.0959 273.812 28.3159 273.465 28.4759C273.119 28.6293 272.742 28.7059 272.335 28.7059C271.882 28.7059 271.469 28.6059 271.095 28.4059C270.729 28.2059 270.455 27.9326 270.275 27.5859L270.475 27.4359L270.045 30.5859H269.075ZM272.275 27.8059C272.649 27.8059 272.979 27.7093 273.265 27.5159C273.552 27.3226 273.779 27.0693 273.945 26.7559C274.119 26.4359 274.205 26.0859 274.205 25.7059C274.205 25.3726 274.135 25.0759 273.995 24.8159C273.855 24.5559 273.662 24.3526 273.415 24.2059C273.175 24.0526 272.889 23.9759 272.555 23.9759C272.189 23.9759 271.859 24.0726 271.565 24.2659C271.279 24.4526 271.052 24.7026 270.885 25.0159C270.725 25.3293 270.645 25.6726 270.645 26.0459C270.645 26.3859 270.715 26.6893 270.855 26.9559C270.995 27.2226 271.189 27.4326 271.435 27.5859C271.682 27.7326 271.962 27.8059 272.275 27.8059ZM276.035 28.5859L276.795 23.1959H277.715L277.575 24.1859L277.485 24.0459C277.658 23.7393 277.885 23.5126 278.165 23.3659C278.445 23.2126 278.772 23.1359 279.145 23.1359H279.475L279.345 24.0159H278.875C278.495 24.0159 278.175 24.1393 277.915 24.3859C277.655 24.6259 277.488 24.9893 277.415 25.4759L276.985 28.5859H276.035ZM279.531 28.5859L280.291 23.1959H281.231L280.481 28.5859H279.531ZM280.411 22.3359L280.571 21.1359H281.521L281.361 22.3359H280.411ZM283.944 28.7059C283.59 28.7059 283.264 28.6459 282.964 28.5259C282.67 28.3993 282.42 28.2226 282.214 27.9959C282.007 27.7693 281.864 27.5059 281.784 27.2059L282.554 26.8959C282.674 27.2093 282.86 27.4559 283.114 27.6359C283.374 27.8159 283.67 27.9059 284.004 27.9059C284.324 27.9059 284.58 27.8293 284.774 27.6759C284.974 27.5159 285.074 27.3193 285.074 27.0859C285.074 26.9126 285.01 26.7726 284.884 26.6659C284.757 26.5526 284.58 26.4659 284.354 26.4059L283.564 26.1859C283.157 26.0726 282.844 25.8959 282.624 25.6559C282.41 25.4093 282.304 25.1159 282.304 24.7759C282.304 24.4626 282.394 24.1793 282.574 23.9259C282.754 23.6659 282.994 23.4593 283.294 23.3059C283.6 23.1526 283.937 23.0759 284.304 23.0759C284.797 23.0759 285.22 23.2026 285.574 23.4559C285.934 23.7026 286.167 24.0393 286.274 24.4659L285.494 24.7759C285.4 24.4893 285.244 24.2693 285.024 24.1159C284.81 23.9626 284.557 23.8859 284.264 23.8859C283.964 23.8859 283.72 23.9593 283.534 24.1059C283.347 24.2526 283.254 24.4393 283.254 24.6659C283.254 24.8393 283.307 24.9793 283.414 25.0859C283.527 25.1926 283.694 25.2793 283.914 25.3459L284.764 25.6059C285.17 25.7259 285.48 25.9093 285.694 26.1559C285.914 26.3959 286.024 26.6859 286.024 27.0259C286.024 27.3393 285.934 27.6226 285.754 27.8759C285.574 28.1293 285.324 28.3326 285.004 28.4859C284.69 28.6326 284.337 28.7059 283.944 28.7059ZM289.741 28.7059C289.241 28.7059 288.801 28.5926 288.421 28.3659C288.041 28.1393 287.741 27.8293 287.521 27.4359C287.308 27.0359 287.201 26.5826 287.201 26.0759C287.201 25.6693 287.268 25.2859 287.401 24.9259C287.541 24.5659 287.738 24.2459 287.991 23.9659C288.251 23.6859 288.548 23.4693 288.881 23.3159C289.221 23.1559 289.594 23.0759 290.001 23.0759C290.508 23.0759 290.938 23.1893 291.291 23.4159C291.644 23.6426 291.914 23.9393 292.101 24.3059C292.288 24.6659 292.381 25.0593 292.381 25.4859C292.381 25.5993 292.371 25.7193 292.351 25.8459C292.331 25.9726 292.311 26.0793 292.291 26.1659H287.871L287.921 25.3659H291.811L291.341 25.7159C291.428 25.3759 291.421 25.0726 291.321 24.8059C291.221 24.5326 291.054 24.3159 290.821 24.1559C290.588 23.9893 290.311 23.9059 289.991 23.9059C289.584 23.9059 289.244 24.0059 288.971 24.2059C288.704 24.3993 288.501 24.6726 288.361 25.0259C288.228 25.3726 288.161 25.7726 288.161 26.2259C288.161 26.5593 288.231 26.8493 288.371 27.0959C288.518 27.3426 288.711 27.5326 288.951 27.6659C289.191 27.7926 289.458 27.8559 289.751 27.8559C290.118 27.8559 290.431 27.7726 290.691 27.6059C290.958 27.4326 291.174 27.2159 291.341 26.9559L292.111 27.3759C291.984 27.6226 291.804 27.8493 291.571 28.0559C291.338 28.2559 291.064 28.4159 290.751 28.5359C290.438 28.6493 290.101 28.7059 289.741 28.7059ZM188.439 40.7059C187.959 40.7059 187.512 40.6226 187.099 40.4559C186.692 40.2893 186.335 40.0493 186.029 39.7359C185.722 39.4226 185.482 39.0493 185.309 38.6159C185.142 38.1759 185.059 37.6859 185.059 37.1459C185.059 36.5593 185.159 36.0159 185.359 35.5159C185.565 35.0159 185.845 34.5793 186.199 34.2059C186.552 33.8259 186.965 33.5326 187.439 33.3259C187.919 33.1193 188.429 33.0159 188.969 33.0159C189.489 33.0159 189.949 33.1059 190.349 33.2859C190.749 33.4659 191.079 33.6993 191.339 33.9859C191.605 34.2726 191.789 34.5793 191.889 34.9059L190.979 35.3359C190.839 34.9026 190.592 34.5593 190.239 34.3059C189.885 34.0526 189.445 33.9259 188.919 33.9259C188.492 33.9259 188.102 34.0093 187.749 34.1759C187.402 34.3359 187.099 34.5626 186.839 34.8559C186.585 35.1426 186.389 35.4793 186.249 35.8659C186.109 36.2526 186.039 36.6659 186.039 37.1059C186.039 37.6526 186.142 38.1259 186.349 38.5259C186.562 38.9259 186.855 39.2393 187.229 39.4659C187.602 39.6859 188.035 39.7959 188.529 39.7959C188.982 39.7959 189.392 39.6993 189.759 39.5059C190.132 39.3126 190.435 39.0459 190.669 38.7059C190.909 38.3593 191.052 37.9659 191.099 37.5259L191.159 37.0659L191.559 37.4859H188.659L188.749 36.6359H192.179L192.109 37.3459C192.062 37.8526 191.932 38.3126 191.719 38.7259C191.512 39.1393 191.242 39.4959 190.909 39.7959C190.575 40.0893 190.199 40.3159 189.779 40.4759C189.359 40.6293 188.912 40.7059 188.439 40.7059ZM192.871 40.5859L193.631 35.1959H194.551L194.411 36.1859L194.321 36.0459C194.494 35.7393 194.721 35.5126 195.001 35.3659C195.281 35.2126 195.608 35.1359 195.981 35.1359H196.311L196.181 36.0159H195.711C195.331 36.0159 195.011 36.1393 194.751 36.3859C194.491 36.6259 194.324 36.9893 194.251 37.4759L193.821 40.5859H192.871ZM199.167 40.7059C198.674 40.7059 198.227 40.5926 197.827 40.3659C197.434 40.1393 197.12 39.8259 196.887 39.4259C196.654 39.0259 196.537 38.5659 196.537 38.0459C196.537 37.6326 196.61 37.2493 196.757 36.8959C196.91 36.5359 197.12 36.2193 197.387 35.9459C197.654 35.6726 197.964 35.4593 198.317 35.3059C198.677 35.1526 199.06 35.0759 199.467 35.0759C199.967 35.0759 200.414 35.1893 200.807 35.4159C201.207 35.6426 201.524 35.9559 201.757 36.3559C201.99 36.7493 202.107 37.2026 202.107 37.7159C202.107 38.1293 202.03 38.5159 201.877 38.8759C201.724 39.2359 201.51 39.5559 201.237 39.8359C200.964 40.1093 200.65 40.3226 200.297 40.4759C199.944 40.6293 199.567 40.7059 199.167 40.7059ZM199.157 39.8059C199.53 39.8059 199.864 39.7093 200.157 39.5159C200.45 39.3226 200.684 39.0693 200.857 38.7559C201.03 38.4359 201.117 38.0859 201.117 37.7059C201.117 37.3726 201.047 37.0759 200.907 36.8159C200.767 36.5559 200.57 36.3526 200.317 36.2059C200.07 36.0526 199.787 35.9759 199.467 35.9759C199.107 35.9759 198.777 36.0726 198.477 36.2659C198.184 36.4526 197.95 36.7026 197.777 37.0159C197.61 37.3293 197.527 37.6793 197.527 38.0659C197.527 38.3993 197.597 38.6993 197.737 38.9659C197.877 39.2259 198.07 39.4326 198.317 39.5859C198.564 39.7326 198.844 39.8059 199.157 39.8059ZM203.955 40.5859L202.865 35.1959H203.845L204.685 39.7059L204.325 39.6959L206.425 35.1959H207.305L208.115 39.6959L207.755 39.7059L209.855 35.1959H210.905L208.295 40.5859H207.405L206.625 36.0859H206.935L204.845 40.5859H203.955ZM213.216 40.6459C212.683 40.6459 212.29 40.4926 212.036 40.1859C211.783 39.8793 211.693 39.4493 211.766 38.8959L212.156 36.0859H211.186L211.306 35.1959H211.486C211.726 35.1959 211.93 35.1193 212.096 34.9659C212.27 34.8126 212.37 34.6159 212.396 34.3759L212.456 33.9559H213.406L213.236 35.1959H214.426L214.296 36.0859H213.106L212.706 38.9259C212.68 39.1059 212.683 39.2626 212.716 39.3959C212.75 39.5226 212.823 39.6226 212.936 39.6959C213.05 39.7626 213.213 39.7959 213.426 39.7959C213.486 39.7959 213.55 39.7926 213.616 39.7859C213.69 39.7793 213.756 39.7726 213.816 39.7659L213.746 40.5959C213.66 40.6226 213.563 40.6359 213.456 40.6359C213.356 40.6426 213.276 40.6459 213.216 40.6459ZM214.971 40.5859L216.031 33.0159H216.971L216.521 36.2459L216.361 36.1359C216.534 35.7959 216.781 35.5359 217.101 35.3559C217.421 35.1693 217.771 35.0759 218.151 35.0759C218.544 35.0759 218.884 35.1693 219.171 35.3559C219.457 35.5426 219.667 35.7993 219.801 36.1259C219.941 36.4459 219.981 36.8126 219.921 37.2259L219.451 40.5859H218.501L218.961 37.3059C219.014 36.8993 218.941 36.5759 218.741 36.3359C218.541 36.0959 218.257 35.9759 217.891 35.9759C217.637 35.9759 217.401 36.0359 217.181 36.1559C216.967 36.2693 216.787 36.4326 216.641 36.6459C216.494 36.8593 216.401 37.1126 216.361 37.4059L215.921 40.5859H214.971ZM226.32 40.7059C225.84 40.7059 225.393 40.6259 224.98 40.4659C224.567 40.2993 224.207 40.0593 223.9 39.7459C223.593 39.4326 223.353 39.0593 223.18 38.6259C223.007 38.1859 222.92 37.6926 222.92 37.1459C222.92 36.5726 223.017 36.0359 223.21 35.5359C223.403 35.0359 223.673 34.5993 224.02 34.2259C224.373 33.8459 224.787 33.5493 225.26 33.3359C225.733 33.1226 226.247 33.0159 226.8 33.0159C227.333 33.0159 227.8 33.1093 228.2 33.2959C228.607 33.4759 228.94 33.7126 229.2 34.0059C229.467 34.2926 229.65 34.5959 229.75 34.9159L228.82 35.3059C228.673 34.8926 228.427 34.5593 228.08 34.3059C227.74 34.0526 227.307 33.9259 226.78 33.9259C226.367 33.9259 225.983 34.0059 225.63 34.1659C225.283 34.3259 224.98 34.5526 224.72 34.8459C224.46 35.1393 224.257 35.4826 224.11 35.8759C223.97 36.2626 223.9 36.6859 223.9 37.1459C223.9 37.6793 224 38.1459 224.2 38.5459C224.407 38.9393 224.693 39.2459 225.06 39.4659C225.427 39.6859 225.85 39.7959 226.33 39.7959C226.863 39.7959 227.323 39.6659 227.71 39.4059C228.097 39.1459 228.393 38.8093 228.6 38.3959L229.48 38.8359C229.333 39.1559 229.11 39.4593 228.81 39.7459C228.51 40.0326 228.15 40.2659 227.73 40.4459C227.31 40.6193 226.84 40.7059 226.32 40.7059ZM233.142 40.7059C232.648 40.7059 232.202 40.5926 231.802 40.3659C231.408 40.1393 231.095 39.8259 230.862 39.4259C230.628 39.0259 230.512 38.5659 230.512 38.0459C230.512 37.6326 230.585 37.2493 230.732 36.8959C230.885 36.5359 231.095 36.2193 231.362 35.9459C231.628 35.6726 231.938 35.4593 232.292 35.3059C232.652 35.1526 233.035 35.0759 233.442 35.0759C233.942 35.0759 234.388 35.1893 234.782 35.4159C235.182 35.6426 235.498 35.9559 235.732 36.3559C235.965 36.7493 236.082 37.2026 236.082 37.7159C236.082 38.1293 236.005 38.5159 235.852 38.8759C235.698 39.2359 235.485 39.5559 235.212 39.8359C234.938 40.1093 234.625 40.3226 234.272 40.4759C233.918 40.6293 233.542 40.7059 233.142 40.7059ZM233.132 39.8059C233.505 39.8059 233.838 39.7093 234.132 39.5159C234.425 39.3226 234.658 39.0693 234.832 38.7559C235.005 38.4359 235.092 38.0859 235.092 37.7059C235.092 37.3726 235.022 37.0759 234.882 36.8159C234.742 36.5559 234.545 36.3526 234.292 36.2059C234.045 36.0526 233.762 35.9759 233.442 35.9759C233.082 35.9759 232.752 36.0726 232.452 36.2659C232.158 36.4526 231.925 36.7026 231.752 37.0159C231.585 37.3293 231.502 37.6793 231.502 38.0659C231.502 38.3993 231.572 38.6993 231.712 38.9659C231.852 39.2259 232.045 39.4326 232.292 39.5859C232.538 39.7326 232.818 39.8059 233.132 39.8059ZM236.914 40.5859L237.674 35.1959H238.584L238.444 36.2459L238.304 36.1359C238.477 35.7959 238.724 35.5359 239.044 35.3559C239.364 35.1693 239.714 35.0759 240.094 35.0759C240.487 35.0759 240.827 35.1693 241.114 35.3559C241.401 35.5426 241.611 35.7993 241.744 36.1259C241.884 36.4459 241.924 36.8126 241.864 37.2259L241.394 40.5859H240.454L240.914 37.3059C240.967 36.8993 240.894 36.5759 240.694 36.3359C240.494 36.0959 240.207 35.9759 239.834 35.9759C239.574 35.9759 239.334 36.0359 239.114 36.1559C238.901 36.2693 238.721 36.4326 238.574 36.6459C238.434 36.8593 238.341 37.1126 238.294 37.4059L237.854 40.5859H236.914ZM244.735 40.7059C244.381 40.7059 244.055 40.6459 243.755 40.5259C243.461 40.3993 243.211 40.2226 243.005 39.9959C242.798 39.7693 242.655 39.5059 242.575 39.2059L243.345 38.8959C243.465 39.2093 243.651 39.4559 243.905 39.6359C244.165 39.8159 244.461 39.9059 244.795 39.9059C245.115 39.9059 245.371 39.8293 245.565 39.6759C245.765 39.5159 245.865 39.3193 245.865 39.0859C245.865 38.9126 245.801 38.7726 245.675 38.6659C245.548 38.5526 245.371 38.4659 245.145 38.4059L244.355 38.1859C243.948 38.0726 243.635 37.8959 243.415 37.6559C243.201 37.4093 243.095 37.1159 243.095 36.7759C243.095 36.4626 243.185 36.1793 243.365 35.9259C243.545 35.6659 243.785 35.4593 244.085 35.3059C244.391 35.1526 244.728 35.0759 245.095 35.0759C245.588 35.0759 246.011 35.2026 246.365 35.4559C246.725 35.7026 246.958 36.0393 247.065 36.4659L246.285 36.7759C246.191 36.4893 246.035 36.2693 245.815 36.1159C245.601 35.9626 245.348 35.8859 245.055 35.8859C244.755 35.8859 244.511 35.9593 244.325 36.1059C244.138 36.2526 244.045 36.4393 244.045 36.6659C244.045 36.8393 244.098 36.9793 244.205 37.0859C244.318 37.1926 244.485 37.2793 244.705 37.3459L245.555 37.6059C245.961 37.7259 246.271 37.9093 246.485 38.1559C246.705 38.3959 246.815 38.6859 246.815 39.0259C246.815 39.3393 246.725 39.6226 246.545 39.8759C246.365 40.1293 246.115 40.3326 245.795 40.4859C245.481 40.6326 245.128 40.7059 244.735 40.7059ZM249.772 40.7059C249.372 40.7059 249.029 40.6126 248.742 40.4259C248.456 40.2393 248.246 39.9759 248.112 39.6359C247.986 39.2959 247.952 38.8959 248.012 38.4359L248.472 35.1959H249.412L248.942 38.4759C248.909 38.7426 248.932 38.9759 249.012 39.1759C249.092 39.3759 249.219 39.5326 249.392 39.6459C249.566 39.7526 249.779 39.8059 250.032 39.8059C250.292 39.8059 250.529 39.7493 250.742 39.6359C250.956 39.5159 251.136 39.3493 251.282 39.1359C251.429 38.9226 251.522 38.6693 251.562 38.3759L252.012 35.1959H252.942L252.192 40.5859H251.282L251.422 39.5359L251.562 39.6459C251.389 39.9926 251.142 40.2559 250.822 40.4359C250.509 40.6159 250.159 40.7059 249.772 40.7059ZM253.633 40.5859L254.693 33.0159H255.643L254.583 40.5859H253.633ZM258.265 40.6459C257.732 40.6459 257.339 40.4926 257.085 40.1859C256.832 39.8793 256.742 39.4493 256.815 38.8959L257.205 36.0859H256.235L256.355 35.1959H256.535C256.775 35.1959 256.979 35.1193 257.145 34.9659C257.319 34.8126 257.419 34.6159 257.445 34.3759L257.505 33.9559H258.455L258.285 35.1959H259.475L259.345 36.0859H258.155L257.755 38.9259C257.729 39.1059 257.732 39.2626 257.765 39.3959C257.799 39.5226 257.872 39.6226 257.985 39.6959C258.099 39.7626 258.262 39.7959 258.475 39.7959C258.535 39.7959 258.599 39.7926 258.665 39.7859C258.739 39.7793 258.805 39.7726 258.865 39.7659L258.795 40.5959C258.709 40.6226 258.612 40.6359 258.505 40.6359C258.405 40.6426 258.325 40.6459 258.265 40.6459ZM260.019 40.5859L260.779 35.1959H261.719L260.969 40.5859H260.019ZM260.899 34.3359L261.059 33.1359H262.009L261.849 34.3359H260.899ZM262.412 40.5859L263.172 35.1959H264.082L263.942 36.2459L263.802 36.1359C263.975 35.7959 264.222 35.5359 264.542 35.3559C264.862 35.1693 265.212 35.0759 265.592 35.0759C265.985 35.0759 266.325 35.1693 266.612 35.3559C266.899 35.5426 267.109 35.7993 267.242 36.1259C267.382 36.4459 267.422 36.8126 267.362 37.2259L266.892 40.5859H265.952L266.412 37.3059C266.465 36.8993 266.392 36.5759 266.192 36.3359C265.992 36.0959 265.705 35.9759 265.332 35.9759C265.072 35.9759 264.832 36.0359 264.612 36.1559C264.399 36.2693 264.219 36.4326 264.072 36.6459C263.932 36.8593 263.839 37.1126 263.792 37.4059L263.352 40.5859H262.412ZM270.563 42.7859C270.163 42.7859 269.806 42.7226 269.493 42.5959C269.179 42.4759 268.919 42.3059 268.713 42.0859C268.513 41.8726 268.373 41.6259 268.293 41.3459L269.173 41.0259C269.239 41.2659 269.393 41.4693 269.633 41.6359C269.879 41.8026 270.216 41.8859 270.643 41.8859C270.929 41.8859 271.203 41.8293 271.463 41.7159C271.723 41.6093 271.943 41.4493 272.123 41.2359C272.303 41.0226 272.413 40.7559 272.453 40.4359L272.633 39.1459L272.893 39.3359C272.686 39.7026 272.399 39.9826 272.033 40.1759C271.673 40.3626 271.279 40.4559 270.853 40.4559C270.399 40.4559 269.983 40.3526 269.603 40.1459C269.229 39.9326 268.933 39.6393 268.713 39.2659C268.499 38.8859 268.393 38.4493 268.393 37.9559C268.393 37.5559 268.463 37.1826 268.603 36.8359C268.743 36.4826 268.939 36.1759 269.193 35.9159C269.453 35.6559 269.753 35.4526 270.093 35.3059C270.433 35.1526 270.803 35.0759 271.203 35.0759C271.649 35.0759 272.046 35.1726 272.393 35.3659C272.739 35.5593 273.009 35.8259 273.203 36.1659L273.043 36.3959L273.203 35.1959H274.133L273.403 40.4659C273.343 40.9259 273.176 41.3293 272.903 41.6759C272.636 42.0293 272.299 42.3026 271.893 42.4959C271.493 42.6893 271.049 42.7859 270.563 42.7859ZM270.953 39.5559C271.306 39.5559 271.623 39.4659 271.903 39.2859C272.189 39.1059 272.416 38.8693 272.583 38.5759C272.756 38.2826 272.843 37.9659 272.843 37.6259C272.843 37.3126 272.776 37.0326 272.643 36.7859C272.509 36.5326 272.323 36.3359 272.083 36.1959C271.849 36.0493 271.573 35.9759 271.253 35.9759C270.919 35.9759 270.609 36.0626 270.323 36.2359C270.036 36.4093 269.806 36.6426 269.633 36.9359C269.466 37.2226 269.383 37.5526 269.383 37.9259C269.383 38.2326 269.449 38.5093 269.583 38.7559C269.723 39.0026 269.909 39.1993 270.143 39.3459C270.383 39.4859 270.653 39.5559 270.953 39.5559ZM275.194 40.5859L275.364 39.3859H276.344L276.164 40.5859H275.194Z" fill="white"/>
<path d="M107.932 38.034L107.86 38.466C107.721 39.282 107.359 39.9353 106.772 40.426C106.185 40.9113 105.479 41.154 104.652 41.154C103.788 41.154 103.119 40.8633 102.644 40.282C102.169 39.6953 102.004 38.986 102.148 38.154C102.287 37.338 102.668 36.6633 103.292 36.13C103.916 35.5967 104.641 35.33 105.468 35.33C106.023 35.33 106.497 35.45 106.892 35.69C107.292 35.9247 107.596 36.258 107.804 36.69L106.796 37.218C106.513 36.674 106.036 36.402 105.364 36.402C104.825 36.402 104.359 36.5727 103.964 36.914C103.575 37.25 103.335 37.69 103.244 38.234C103.148 38.778 103.236 39.2207 103.508 39.562C103.785 39.9033 104.201 40.074 104.756 40.074C105.673 40.074 106.287 39.7193 106.596 39.01H104.956L105.124 38.034H107.932ZM112.949 37.378C112.88 37.7513 112.725 38.0767 112.485 38.354C112.25 38.6313 111.957 38.8313 111.605 38.954L112.453 41.042H111.333L110.557 39.098H109.637L109.293 41.042H108.189L109.173 35.442H111.357C111.864 35.442 112.277 35.6367 112.597 36.026C112.922 36.4153 113.04 36.866 112.949 37.378ZM111.533 37.89C111.704 37.73 111.81 37.5327 111.853 37.298C111.896 37.0633 111.853 36.8687 111.725 36.714C111.597 36.554 111.413 36.474 111.173 36.474H110.093L109.805 38.13H110.941C111.165 38.13 111.362 38.05 111.533 37.89ZM115.705 41.154C114.894 41.154 114.251 40.8607 113.777 40.274C113.302 39.682 113.139 38.978 113.289 38.162C113.427 37.3353 113.809 36.658 114.433 36.13C115.062 35.5967 115.806 35.33 116.665 35.33C117.465 35.33 118.102 35.626 118.577 36.218C119.057 36.81 119.225 37.514 119.081 38.33C118.937 39.1567 118.553 39.834 117.929 40.362C117.305 40.89 116.563 41.154 115.705 41.154ZM115.833 40.074C116.355 40.074 116.819 39.9033 117.225 39.562C117.635 39.2207 117.889 38.7833 117.985 38.25C118.075 37.7167 117.979 37.2767 117.697 36.93C117.414 36.578 117.014 36.402 116.497 36.402C115.979 36.402 115.521 36.5753 115.121 36.922C114.726 37.2633 114.481 37.7033 114.385 38.242C114.289 38.7753 114.377 39.2153 114.649 39.562C114.926 39.9033 115.321 40.074 115.833 40.074ZM120.232 41.042L119.648 35.442H120.744L121.104 39.594L123.008 35.442H123.952L124.4 39.594L126.208 35.442H127.4L124.848 41.042H123.592L123.184 37.346L121.488 41.042H120.232ZM131.744 35.442L131.56 36.498H130.048L129.248 41.042H128.144L128.944 36.498H127.44L127.624 35.442H131.744ZM135.544 35.442H136.64L135.656 41.042H134.56L134.968 38.722H132.888L132.48 41.042H131.376L132.36 35.442H133.464L133.072 37.666H135.152L135.544 35.442Z" fill="white"/>
<path d="M96.7919 48.8927C95.8909 48.8927 95.1968 48.5811 94.7094 47.9577C94.2278 47.3344 94.0634 46.5892 94.2164 45.7222C94.3638 44.8609 94.7718 44.1469 95.4404 43.5802C96.1091 43.0079 96.8684 42.7217 97.7184 42.7217C98.2964 42.7217 98.7923 42.8521 99.2059 43.1127C99.6253 43.3734 99.9369 43.7304 100.141 44.1837L99.4354 44.5577C99.1011 43.8437 98.5146 43.4867 97.6759 43.4867C97.0016 43.4867 96.4123 43.7077 95.9079 44.1497C95.4093 44.5917 95.1033 45.1442 94.9899 45.8072C94.8766 46.4759 94.9928 47.0284 95.3384 47.4647C95.6898 47.9011 96.1969 48.1192 96.8599 48.1192C97.2906 48.1192 97.6873 48.0229 98.0499 47.8302C98.4126 47.6376 98.7129 47.3684 98.9509 47.0227L99.6054 47.4392C99.2824 47.8869 98.8716 48.2411 98.3729 48.5017C97.8799 48.7624 97.3529 48.8927 96.7919 48.8927ZM102.176 48.8927C101.547 48.8927 101.043 48.6746 100.663 48.2382C100.284 47.8019 100.153 47.2494 100.272 46.5807C100.391 45.9234 100.703 45.3992 101.207 45.0082C101.712 44.6172 102.273 44.4217 102.89 44.4217C103.497 44.4217 103.984 44.6399 104.352 45.0762C104.721 45.5126 104.848 46.0594 104.735 46.7167C104.622 47.3854 104.318 47.9152 103.825 48.3062C103.332 48.6972 102.783 48.8927 102.176 48.8927ZM102.236 48.1702C102.65 48.1702 103.026 48.0342 103.366 47.7622C103.712 47.4902 103.925 47.1162 104.004 46.6402C104.083 46.1812 103.998 45.8186 103.749 45.5522C103.505 45.2802 103.179 45.1442 102.771 45.1442C102.369 45.1499 101.998 45.2859 101.658 45.5522C101.318 45.8186 101.103 46.1869 101.012 46.6572C100.933 47.1332 101.015 47.5072 101.258 47.7792C101.508 48.0456 101.834 48.1759 102.236 48.1702ZM108.089 44.4217C108.587 44.4217 108.964 44.5804 109.219 44.8977C109.48 45.2151 109.565 45.6401 109.474 46.1727L109.015 48.7822H108.276L108.726 46.2152C108.788 45.8639 108.746 45.5947 108.599 45.4077C108.451 45.2207 108.208 45.1272 107.868 45.1272C107.505 45.1272 107.188 45.2434 106.916 45.4757C106.644 45.7024 106.468 46.0537 106.389 46.5297V46.5212L105.989 48.7822H105.25L105.998 44.5322H106.737L106.635 45.0932C107.003 44.6456 107.488 44.4217 108.089 44.4217ZM111.603 48.8927C111.184 48.8927 110.838 48.8021 110.566 48.6207C110.3 48.4337 110.115 48.1816 110.013 47.8642L110.676 47.5242C110.722 47.7226 110.829 47.8841 110.999 48.0087C111.175 48.1334 111.396 48.1957 111.662 48.1957C111.912 48.1957 112.119 48.1476 112.283 48.0512C112.453 47.9549 112.555 47.8161 112.589 47.6347C112.612 47.5101 112.586 47.4052 112.512 47.3202C112.439 47.2352 112.334 47.1672 112.198 47.1162C112.068 47.0596 111.92 47.0057 111.756 46.9547C111.597 46.9037 111.439 46.8442 111.28 46.7762C111.121 46.7082 110.98 46.6289 110.855 46.5382C110.73 46.4476 110.637 46.3229 110.574 46.1642C110.512 45.9999 110.501 45.8101 110.54 45.5947C110.603 45.2491 110.784 44.9686 111.084 44.7532C111.39 44.5322 111.747 44.4217 112.155 44.4217C112.881 44.4217 113.374 44.7164 113.634 45.3057L112.98 45.6457C112.867 45.2887 112.58 45.1102 112.121 45.1102C111.923 45.1102 111.742 45.1584 111.577 45.2547C111.413 45.3454 111.314 45.4842 111.28 45.6712C111.252 45.8412 111.308 45.9772 111.45 46.0792C111.597 46.1812 111.781 46.2662 112.002 46.3342C112.229 46.4022 112.453 46.4787 112.674 46.5637C112.895 46.6487 113.071 46.7876 113.201 46.9802C113.331 47.1729 113.371 47.4194 113.32 47.7197C113.252 48.0937 113.065 48.3827 112.759 48.5867C112.453 48.7907 112.068 48.8927 111.603 48.8927ZM117.704 44.5322H118.443L117.695 48.7822H116.956L117.058 48.2212C116.69 48.6689 116.205 48.8927 115.604 48.8927C115.106 48.8927 114.726 48.7341 114.465 48.4167C114.21 48.0994 114.128 47.6744 114.219 47.1417L114.678 44.5322H115.417L114.967 47.0992C114.905 47.4506 114.947 47.7197 115.094 47.9067C115.242 48.0937 115.485 48.1872 115.825 48.1872C116.188 48.1872 116.505 48.0739 116.777 47.8472C117.049 47.6149 117.225 47.2607 117.304 46.7847V46.7932L117.704 44.5322ZM118.83 48.7822L119.28 46.1982L119.918 42.5772H120.657L119.569 48.7822H118.83ZM122.508 45.2462L122.1 47.5497C122.06 47.7537 122.077 47.9011 122.151 47.9917C122.224 48.0824 122.343 48.1306 122.508 48.1362C122.678 48.1362 122.887 48.1306 123.137 48.1192L123.018 48.7822C122.389 48.8672 121.933 48.8134 121.649 48.6207C121.366 48.4224 121.27 48.0654 121.36 47.5497L121.76 45.2462H120.918L121.054 44.5322H121.887L122.057 43.5632L122.839 43.3422L122.627 44.5322H123.766L123.638 45.2462H122.508ZM125.151 43.7587C125.015 43.7587 124.907 43.7106 124.828 43.6142C124.749 43.5179 124.72 43.4017 124.743 43.2657C124.766 43.1241 124.831 43.0051 124.939 42.9087C125.046 42.8124 125.174 42.7642 125.321 42.7642C125.457 42.7642 125.565 42.8152 125.644 42.9172C125.729 43.0136 125.76 43.1297 125.738 43.2657C125.709 43.4074 125.641 43.5264 125.534 43.6227C125.426 43.7134 125.298 43.7587 125.151 43.7587ZM123.893 48.7822L124.641 44.5322H125.381L124.633 48.7822H123.893ZM128.6 44.4217C129.098 44.4217 129.475 44.5804 129.73 44.8977C129.991 45.2151 130.076 45.6401 129.985 46.1727L129.526 48.7822H128.787L129.237 46.2152C129.3 45.8639 129.257 45.5947 129.11 45.4077C128.962 45.2207 128.719 45.1272 128.379 45.1272C128.016 45.1272 127.699 45.2434 127.427 45.4757C127.155 45.7024 126.979 46.0537 126.9 46.5297V46.5212L126.5 48.7822H125.761L126.509 44.5322H127.248L127.146 45.0932C127.515 44.6456 127.999 44.4217 128.6 44.4217ZM134.843 44.5322H135.574L134.86 48.6037C134.746 49.2497 134.466 49.7427 134.018 50.0827C133.576 50.4227 133.043 50.5927 132.42 50.5927C131.967 50.5927 131.573 50.5021 131.239 50.3207C130.91 50.1394 130.672 49.8844 130.525 49.5557L131.179 49.2157C131.372 49.6747 131.8 49.9042 132.463 49.9042C132.927 49.9042 133.301 49.7909 133.585 49.5642C133.874 49.3376 134.055 49.0174 134.129 48.6037L134.214 48.1022C133.789 48.6009 133.236 48.8502 132.556 48.8502C131.91 48.8502 131.414 48.6264 131.069 48.1787C130.729 47.7254 130.61 47.1814 130.712 46.5467C130.808 45.9234 131.088 45.4134 131.553 45.0167C132.018 44.6201 132.539 44.4217 133.117 44.4217C133.468 44.4217 133.783 44.5011 134.061 44.6597C134.344 44.8127 134.556 45.0366 134.698 45.3312L134.843 44.5322ZM132.726 48.1362C133.134 48.1362 133.5 48.0116 133.823 47.7622C134.146 47.5072 134.355 47.1729 134.452 46.7592L134.494 46.5382C134.545 46.1076 134.437 45.7647 134.171 45.5097C133.905 45.2547 133.576 45.1272 133.185 45.1272C132.777 45.1272 132.403 45.2632 132.063 45.5352C131.723 45.8016 131.519 46.1586 131.451 46.6062C131.377 47.0426 131.46 47.4081 131.698 47.7027C131.941 47.9917 132.284 48.1362 132.726 48.1362Z" fill="white"/>
<path d="M53.1347 30L55.6646 10.5036H62.0938L60.0978 23.1298H60.678L67.4786 10.5036H72.5616L71.3314 23.1298H71.9117L78.0159 10.5036H84.6772L74.604 30H65.9467L67.1536 20.6231H66.5966L61.7921 30H53.1347ZM93.299 30L93.2526 27.4237H85.0362L83.3419 30H76.4949L89.7479 10.5036H98.7998L99.6818 30H93.299ZM88.1696 22.6656H93.2062L93.1133 16.5382H92.1849L88.1696 22.6656ZM100.813 30L107.15 10.5036H113.579L108.96 24.6385H119.729L118.012 30H100.813ZM120.165 30L126.501 10.5036H132.931L128.312 24.6385H139.081L137.364 30H120.165Z" fill="white"/>
<path d="M7.7892 49.661C3.18003 49.661 0.334214 48.2992 1.73093 44.3185H5.8338C5.58937 45.4883 6.84642 45.9597 8.4701 45.9597C10.1636 45.9597 11.7 45.5581 11.7 44.5455C11.7 44.0916 11.4556 43.6202 10.0065 43.4107L8.83674 43.2186C7.35273 43.0091 3.65142 42.5377 3.65142 39.4824C3.65142 35.9906 6.96863 34.0177 11.6651 34.0177C16.1521 34.0177 18.9804 35.9207 17.4266 39.3252H13.4634C13.603 38.5745 12.992 37.719 10.9842 37.719C9.32559 37.719 8.2606 38.2777 8.2606 39.1332C8.2606 39.5522 8.52248 39.9712 9.65732 40.1633L10.5128 40.3204C12.6428 40.7394 16.4314 40.9664 16.4314 44.109C16.4314 48.2817 12.3809 49.661 7.7892 49.661ZM35.8335 34.5066L34.5241 38.5396H29.3562L25.8819 49.1721H21.0458L24.5201 38.5396H19.23L20.522 34.5066H35.8335ZM50.7667 38.784C50.7667 41.4203 49.2128 43.3757 47.1876 44.4582L48.2701 49.1721H43.626L42.8054 45.401H38.9295L37.7248 49.1721H32.8887L37.6026 34.5066H45.2497C48.9684 34.5066 50.7667 35.9207 50.7667 38.784ZM41.1468 38.5221L40.0818 41.8568L43.4339 41.8393C44.4815 41.8393 45.8433 41.1584 45.8433 39.8141C45.8433 38.8364 45.2846 38.5221 44.1497 38.5221H41.1468ZM66.3652 38.365H57.9325L57.3215 40.2506H65.7018L64.6891 43.3408H56.3263L55.6803 45.3137H64.0955L62.8385 49.1721H49.6046L54.336 34.5066H67.6223L66.3652 38.365ZM81.4588 38.365H73.0261L72.415 40.2506H80.7953L79.7827 43.3408H71.4199L70.7739 45.3137H79.1891L77.9321 49.1721H64.6982L69.4295 34.5066H82.7158L81.4588 38.365ZM99.7474 34.5066L98.4379 38.5396H93.2701L89.7957 49.1721H84.9596L88.4339 38.5396H83.1439L84.4358 34.5066H99.7474Z" fill="white"/>
<path d="M39.6157 12.3571L39.4306 13.4287H37.5115L36.4985 19.176H35.3782L36.3913 13.4287H34.4625L34.6476 12.3571H39.6157ZM42.9573 14.1787C43.5158 14.1787 43.9412 14.3606 44.2334 14.7243C44.5321 15.0814 44.6296 15.5685 44.5257 16.1855L43.9996 19.176H42.9476L43.4541 16.2926C43.5191 15.9224 43.4703 15.6432 43.308 15.4549C43.1521 15.26 42.9021 15.1626 42.5579 15.1626C42.2007 15.1626 41.889 15.2698 41.6228 15.4841C41.3565 15.6984 41.1811 16.0263 41.0967 16.4679L40.6194 19.176H39.5673L40.7655 12.3571H41.8176L41.3695 14.8899C41.7786 14.4158 42.3079 14.1787 42.9573 14.1787ZM48.5813 14.1787C49.3086 14.1787 49.8736 14.4288 50.2763 14.9288C50.6854 15.4289 50.8218 16.0361 50.6854 16.7504C50.627 16.9842 50.588 17.1304 50.5685 17.1888H46.6915C46.698 17.5655 46.8214 17.8512 47.0617 18.046C47.3019 18.2409 47.6169 18.3383 48.0066 18.3383C48.5845 18.3383 49.0424 18.1337 49.3801 17.7246L50.1496 18.3091C49.6171 18.9715 48.8735 19.3027 47.9189 19.3027C47.1331 19.3027 46.5324 19.0461 46.1168 18.5331C45.7011 18.0201 45.555 17.3901 45.6784 16.6433C45.8018 15.9289 46.1362 15.3412 46.6817 14.8801C47.2273 14.4125 47.8604 14.1787 48.5813 14.1787ZM46.8376 16.3218H49.6918C49.6983 15.9192 49.5911 15.6205 49.3703 15.4256C49.156 15.2308 48.8703 15.1334 48.5131 15.1334C48.13 15.1334 47.789 15.2405 47.4903 15.4549C47.198 15.6627 46.9805 15.9517 46.8376 16.3218Z" fill="white"/>
<path d="M14.4553 18.6354L12.8977 27.5H11.4413L12.5557 21.1935L9.06056 25.6384H8.88327L6.99638 21.0669L5.86932 27.5H4.413L5.97063 18.6354H7.50293L9.3265 23.131L12.7963 18.6354H14.4553ZM21.2249 21.1682H22.5926L21.4782 27.5H20.1105L20.2371 26.7528C19.6462 27.3607 18.8737 27.6646 17.9197 27.6646C16.9995 27.6646 16.2903 27.3185 15.7922 26.6262C15.3025 25.9255 15.1421 25.115 15.311 24.1948C15.4798 23.2492 15.8977 22.481 16.5647 21.89C17.2401 21.299 18.021 21.0035 18.9074 21.0035C19.8952 21.0035 20.6086 21.4003 21.0476 22.1939L21.2249 21.1682ZM18.3249 26.3603C18.8652 26.3603 19.3507 26.1956 19.7812 25.8664C20.2118 25.5287 20.4946 25.0939 20.6297 24.562L20.693 24.1948C20.7521 23.6123 20.617 23.1521 20.2878 22.8144C19.9585 22.4767 19.5237 22.3079 18.9834 22.3079C18.4347 22.3079 17.9408 22.4852 17.5018 22.8398C17.0628 23.1944 16.7884 23.6798 16.6786 24.2961C16.5773 24.8871 16.6829 25.3809 16.9952 25.7777C17.3076 26.1661 17.7508 26.3603 18.3249 26.3603ZM30.1763 18.6354H31.544L29.9864 27.5H28.6187L28.758 26.7402C28.1586 27.3565 27.3777 27.6646 26.4152 27.6646C25.495 27.6646 24.7858 27.3185 24.2877 26.6262C23.7981 25.9255 23.6377 25.115 23.8065 24.1948C23.9754 23.2492 24.3933 22.481 25.0602 21.89C25.7356 21.299 26.5165 21.0035 27.403 21.0035C28.3992 21.0035 29.1126 21.4046 29.5431 22.2066L30.1763 18.6354ZM26.8331 26.3603C27.3734 26.3603 27.8589 26.1956 28.2894 25.8664C28.72 25.5287 29.0028 25.0897 29.1379 24.5494L29.2012 24.1821C29.2603 23.5996 29.1252 23.1437 28.796 22.8144C28.4667 22.4767 28.0319 22.3079 27.4916 22.3079C26.9429 22.3079 26.4448 22.4852 25.9973 22.8398C25.5583 23.1944 25.2839 23.6798 25.1742 24.2961C25.0729 24.8871 25.1784 25.3809 25.4908 25.7777C25.8116 26.1661 26.259 26.3603 26.8331 26.3603ZM34.4039 22.1179C34.9105 21.3835 35.6238 21.0289 36.5441 21.0542L36.2781 22.5358C35.9742 22.5105 35.6787 22.5401 35.3917 22.6245C35.1046 22.7089 34.8303 22.882 34.5685 23.1437C34.3153 23.4054 34.1422 23.7389 34.0493 24.1441L33.4541 27.5H32.0865L33.2009 21.1682H34.5685L34.4039 22.1179ZM42.853 21.1682H44.2207L43.1063 27.5H41.7386L41.8653 26.7528C41.2743 27.3607 40.5018 27.6646 39.5478 27.6646C38.6276 27.6646 37.9184 27.3185 37.4203 26.6262C36.9307 25.9255 36.7703 25.115 36.9391 24.1948C37.108 23.2492 37.5259 22.481 38.1928 21.89C38.8682 21.299 39.6491 21.0035 40.5356 21.0035C41.5234 21.0035 42.2368 21.4003 42.6758 22.1939L42.853 21.1682ZM39.9531 26.3603C40.4934 26.3603 40.9788 26.1956 41.4094 25.8664C41.84 25.5287 42.1228 25.0939 42.2579 24.562L42.3212 24.1948C42.3803 23.6123 42.2452 23.1521 41.9159 22.8144C41.5867 22.4767 41.1519 22.3079 40.6116 22.3079C40.0628 22.3079 39.5689 22.4852 39.1299 22.8398C38.6909 23.1944 38.4165 23.6798 38.3068 24.2961C38.2055 24.8871 38.311 25.3809 38.6234 25.7777C38.9358 26.1661 39.379 26.3603 39.9531 26.3603ZM47.5377 27.6646C46.2713 27.6646 45.444 27.1539 45.0556 26.1323L46.284 25.4991C46.36 25.7777 46.5162 26.0015 46.7526 26.1703C46.989 26.3307 47.2887 26.4109 47.6517 26.4109C48.3355 26.4109 48.7154 26.1872 48.7914 25.7398C48.8252 25.5287 48.7323 25.3598 48.5128 25.2332C48.3018 25.0981 48.0358 24.9842 47.715 24.8913C47.3942 24.79 47.0734 24.676 46.7526 24.5494C46.4402 24.4143 46.1911 24.2032 46.0054 23.9162C45.8197 23.6207 45.7648 23.2492 45.8408 22.8018C45.9421 22.253 46.2291 21.8182 46.7019 21.4974C47.1747 21.1682 47.7192 21.0035 48.3355 21.0035C48.8758 21.0035 49.3402 21.1217 49.7285 21.3581C50.1253 21.5861 50.4208 21.9069 50.615 22.3206L49.3866 22.9411C49.2346 22.4683 48.859 22.2319 48.2595 22.2319C48.0063 22.2319 47.7783 22.291 47.5757 22.4092C47.3731 22.519 47.2507 22.6878 47.2085 22.9158C47.1662 23.1353 47.2507 23.3125 47.4617 23.4476C47.6812 23.5827 47.9514 23.6967 48.2722 23.7895C48.6015 23.874 48.9223 23.9795 49.2346 24.1061C49.5555 24.2328 49.8087 24.4438 49.9945 24.7393C50.1802 25.0348 50.2351 25.4105 50.1591 25.8664C50.0578 26.4489 49.7665 26.8964 49.2853 27.2087C48.8125 27.5127 48.23 27.6646 47.5377 27.6646Z" fill="white"/>
<path d="M6.17969 14.8599H32.1797" stroke="white" stroke-width="0.5"/>
<path d="M3.26245 31.1973H50.2625" stroke="white" stroke-width="0.5"/>
</svg>
