<svg width="212" height="79" viewBox="0 0 212 79" fill="none" xmlns="http://www.w3.org/2000/svg">
<path d="M161.44 56.9209L161.333 57.5671C161.125 58.7875 160.583 59.7647 159.705 60.4986C158.828 61.2245 157.771 61.5874 156.534 61.5874C155.242 61.5874 154.241 61.1527 153.531 60.2832C152.821 59.4057 152.574 58.3448 152.789 57.1004C152.997 55.8799 153.567 54.8708 154.5 54.0731C155.434 53.2754 156.519 52.8766 157.755 52.8766C158.585 52.8766 159.295 53.0561 159.885 53.415C160.483 53.766 160.938 54.2646 161.249 54.9107L159.741 55.7004C159.318 54.8868 158.605 54.48 157.599 54.48C156.794 54.48 156.096 54.7352 155.505 55.2458C154.923 55.7483 154.564 56.4064 154.429 57.2201C154.285 58.0337 154.417 58.6958 154.823 59.2063C155.238 59.7168 155.86 59.9721 156.69 59.9721C158.062 59.9721 158.979 59.4416 159.442 58.3807H156.989L157.24 56.9209H161.44ZM168.944 55.9398C168.841 56.4981 168.609 56.9847 168.25 57.3995C167.899 57.8143 167.461 58.1135 166.934 58.2969L168.202 61.4199H166.527L165.367 58.5123H163.991L163.476 61.4199H161.825L163.297 53.0441H166.563C167.321 53.0441 167.939 53.3353 168.418 53.9176C168.904 54.4999 169.08 55.174 168.944 55.9398ZM166.826 56.7055C167.082 56.4662 167.241 56.1711 167.305 55.8201C167.369 55.4691 167.305 55.178 167.114 54.9466C166.922 54.7073 166.647 54.5877 166.288 54.5877H164.673L164.242 57.0645H165.941C166.276 57.0645 166.571 56.9448 166.826 56.7055ZM173.066 61.5874C171.853 61.5874 170.892 61.1487 170.182 60.2712C169.472 59.3858 169.229 58.3328 169.452 57.1124C169.66 55.8759 170.23 54.8629 171.163 54.0731C172.104 53.2754 173.217 52.8766 174.502 52.8766C175.698 52.8766 176.651 53.3193 177.361 54.2048C178.079 55.0902 178.33 56.1432 178.115 57.3636C177.9 58.6001 177.325 59.6131 176.392 60.4029C175.459 61.1926 174.35 61.5874 173.066 61.5874ZM173.257 59.9721C174.039 59.9721 174.733 59.7168 175.339 59.2063C175.953 58.6958 176.332 58.0417 176.476 57.244C176.611 56.4463 176.468 55.7882 176.045 55.2697C175.622 54.7432 175.024 54.48 174.25 54.48C173.476 54.48 172.79 54.7392 172.192 55.2577C171.602 55.7682 171.235 56.4263 171.091 57.232C170.948 58.0297 171.079 58.6878 171.486 59.2063C171.901 59.7168 172.491 59.9721 173.257 59.9721ZM179.837 61.4199L178.964 53.0441H180.603L181.141 59.2542L183.989 53.0441H185.401L186.071 59.2542L188.775 53.0441H190.558L186.741 61.4199H184.863L184.253 55.8919L181.716 61.4199H179.837ZM197.056 53.0441L196.781 54.6236H194.519L193.323 61.4199H191.671L192.868 54.6236H190.618L190.894 53.0441H197.056ZM202.74 53.0441H204.379L202.907 61.4199H201.268L201.878 57.9499H198.767L198.157 61.4199H196.506L197.978 53.0441H199.629L199.043 56.3705H202.154L202.74 53.0441Z" fill="white"/>
<path d="M144.779 73.1623C143.431 73.1623 142.393 72.6962 141.664 71.7639C140.944 70.8316 140.698 69.717 140.927 68.4203C141.147 67.132 141.757 66.0641 142.757 65.2165C143.757 64.3605 144.893 63.9325 146.164 63.9325C147.029 63.9325 147.771 64.1274 148.389 64.5173C149.016 64.9072 149.483 65.4411 149.788 66.1192L148.733 66.6786C148.232 65.6107 147.355 65.0767 146.101 65.0767C145.092 65.0767 144.211 65.4072 143.457 66.0683C142.711 66.7294 142.253 67.5558 142.083 68.5474C141.914 69.5475 142.088 70.3739 142.605 71.0265C143.13 71.6791 143.889 72.0054 144.88 72.0054C145.525 72.0054 146.118 71.8614 146.66 71.5732C147.203 71.285 147.652 70.8824 148.008 70.3654L148.987 70.9884C148.504 71.6579 147.889 72.1877 147.143 72.5775C146.406 72.9674 145.618 73.1623 144.779 73.1623ZM152.832 73.1623C151.891 73.1623 151.137 72.836 150.569 72.1834C150.001 71.5308 149.806 70.7044 149.984 69.7043C150.162 68.7212 150.629 67.9372 151.383 67.3524C152.137 66.7676 152.976 66.4752 153.9 66.4752C154.807 66.4752 155.536 66.8015 156.087 67.4541C156.638 68.1067 156.828 68.9246 156.659 69.9077C156.489 70.9079 156.036 71.7003 155.299 72.2851C154.561 72.8699 153.739 73.1623 152.832 73.1623ZM152.921 72.0817C153.54 72.0817 154.104 71.8783 154.612 71.4715C155.129 71.0647 155.447 70.5053 155.566 69.7933C155.684 69.1068 155.557 68.5644 155.184 68.166C154.82 67.7592 154.332 67.5558 153.722 67.5558C153.12 67.5643 152.565 67.7677 152.057 68.166C151.548 68.5644 151.226 69.1153 151.09 69.8188C150.972 70.5307 151.095 71.0901 151.459 71.4969C151.832 71.8953 152.319 72.0902 152.921 72.0817ZM161.675 66.4752C162.421 66.4752 162.984 66.7125 163.366 67.1871C163.755 67.6617 163.883 68.2974 163.747 69.0941L163.061 72.9971H161.954L162.628 69.1577C162.721 68.6322 162.658 68.2296 162.438 67.9499C162.217 67.6702 161.853 67.5304 161.344 67.5304C160.802 67.5304 160.327 67.7041 159.92 68.0516C159.514 68.3906 159.251 68.9161 159.132 69.6281V69.6153L158.535 72.9971H157.429L158.547 66.6404H159.653L159.501 67.4795C160.052 66.8099 160.776 66.4752 161.675 66.4752ZM166.931 73.1623C166.304 73.1623 165.787 73.0267 165.38 72.7555C164.982 72.4758 164.706 72.0987 164.554 71.624L165.545 71.1155C165.613 71.4121 165.774 71.6537 166.028 71.8402C166.291 72.0266 166.622 72.1199 167.02 72.1199C167.393 72.1199 167.702 72.0478 167.948 71.9037C168.202 71.7596 168.355 71.552 168.406 71.2808C168.44 71.0943 168.402 70.9375 168.291 70.8104C168.181 70.6833 168.024 70.5815 167.821 70.5053C167.626 70.4205 167.406 70.34 167.16 70.2637C166.923 70.1874 166.685 70.0984 166.448 69.9967C166.211 69.895 165.999 69.7764 165.812 69.6408C165.626 69.5052 165.486 69.3187 165.393 69.0814C165.3 68.8356 165.283 68.5517 165.342 68.2296C165.435 67.7126 165.706 67.293 166.156 66.971C166.613 66.6404 167.147 66.4752 167.757 66.4752C168.842 66.4752 169.58 66.9159 169.97 67.7973L168.991 68.3059C168.821 67.7719 168.393 67.5049 167.707 67.5049C167.41 67.5049 167.139 67.577 166.893 67.7211C166.647 67.8567 166.499 68.0643 166.448 68.344C166.406 68.5983 166.49 68.8017 166.702 68.9542C166.923 69.1068 167.198 69.2339 167.529 69.3356C167.868 69.4374 168.202 69.5518 168.533 69.6789C168.864 69.806 169.126 70.0137 169.321 70.3019C169.516 70.59 169.575 70.9587 169.499 71.4079C169.397 71.9673 169.118 72.3995 168.66 72.7047C168.202 73.0098 167.626 73.1623 166.931 73.1623ZM176.056 66.6404H177.162L176.044 72.9971H174.938L175.09 72.158C174.539 72.8276 173.815 73.1623 172.916 73.1623C172.17 73.1623 171.602 72.925 171.213 72.4504C170.831 71.9758 170.708 71.3401 170.844 70.5434L171.53 66.6404H172.636L171.963 70.4798C171.869 71.0053 171.933 71.4079 172.153 71.6876C172.374 71.9673 172.738 72.1071 173.247 72.1071C173.789 72.1071 174.264 71.9376 174.671 71.5986C175.077 71.2511 175.34 70.7214 175.459 70.0095V70.0222L176.056 66.6404ZM177.74 72.9971L178.414 69.1322L179.368 63.7164H180.474L178.846 72.9971H177.74ZM183.241 67.7083L182.631 71.1536C182.572 71.4588 182.597 71.6791 182.707 71.8147C182.818 71.9503 182.996 72.0224 183.241 72.0309C183.496 72.0309 183.809 72.0224 184.182 72.0054L184.004 72.9971C183.063 73.1242 182.381 73.0437 181.957 72.7555C181.534 72.4589 181.389 71.9249 181.525 71.1536L182.123 67.7083H180.864L181.067 66.6404H182.313L182.568 65.1911L183.737 64.8606L183.419 66.6404H185.123L184.932 67.7083H183.241ZM187.195 65.4835C186.991 65.4835 186.83 65.4115 186.712 65.2674C186.593 65.1233 186.551 64.9496 186.585 64.7462C186.619 64.5343 186.716 64.3563 186.877 64.2122C187.038 64.0681 187.229 63.9961 187.449 63.9961C187.653 63.9961 187.814 64.0723 187.932 64.2249C188.059 64.369 188.106 64.5427 188.072 64.7462C188.03 64.958 187.928 65.136 187.767 65.2801C187.606 65.4157 187.415 65.4835 187.195 65.4835ZM185.313 72.9971L186.432 66.6404H187.538L186.419 72.9971H185.313ZM192.353 66.4752C193.099 66.4752 193.662 66.7125 194.044 67.1871C194.434 67.6617 194.561 68.2974 194.425 69.0941L193.739 72.9971H192.633L193.306 69.1577C193.4 68.6322 193.336 68.2296 193.116 67.9499C192.895 67.6702 192.531 67.5304 192.022 67.5304C191.48 67.5304 191.005 67.7041 190.599 68.0516C190.192 68.3906 189.929 68.9161 189.81 69.6281V69.6153L189.213 72.9971H188.107L189.226 66.6404H190.332L190.179 67.4795C190.73 66.8099 191.455 66.4752 192.353 66.4752ZM201.69 66.6404H202.784L201.716 72.7301C201.546 73.6963 201.127 74.4337 200.457 74.9422C199.796 75.4507 198.999 75.705 198.067 75.705C197.389 75.705 196.8 75.5694 196.3 75.2982C195.808 75.027 195.452 74.6456 195.232 74.154L196.211 73.6454C196.499 74.332 197.139 74.6752 198.131 74.6752C198.826 74.6752 199.385 74.5057 199.809 74.1667C200.241 73.8277 200.512 73.3488 200.622 72.7301L200.75 71.98C200.114 72.7259 199.287 73.0988 198.27 73.0988C197.304 73.0988 196.563 72.764 196.046 72.0944C195.537 71.4164 195.359 70.6027 195.512 69.6535C195.656 68.7212 196.075 67.9584 196.77 67.3651C197.465 66.7718 198.245 66.4752 199.109 66.4752C199.635 66.4752 200.105 66.5938 200.521 66.8311C200.944 67.06 201.262 67.3948 201.474 67.8355L201.69 66.6404ZM198.525 72.0309C199.135 72.0309 199.682 71.8444 200.165 71.4715C200.648 71.0901 200.961 70.59 201.105 69.9713L201.169 69.6408C201.245 68.9966 201.084 68.4839 200.686 68.1025C200.288 67.7211 199.796 67.5304 199.211 67.5304C198.601 67.5304 198.042 67.7338 197.533 68.1406C197.025 68.5389 196.719 69.0729 196.618 69.7425C196.508 70.3951 196.63 70.9418 196.986 71.3825C197.351 71.8147 197.864 72.0309 198.525 72.0309Z" fill="white"/>
<path d="M79.4842 45L83.2681 15.8396H92.8841L89.8986 34.7244H90.7665L100.938 15.8396H108.54L106.701 34.7244H107.568L116.698 15.8396H126.662L111.595 45H98.6468L100.452 30.9752H99.6188L92.4328 45H79.4842ZM139.557 45L139.488 41.1467H127.199L124.664 45H114.424L134.246 15.8396H147.784L149.104 45H139.557ZM131.885 34.0301H139.418L139.279 24.8654H137.891L131.885 34.0301ZM150.796 45L160.273 15.8396H169.889L162.981 36.9809H179.089L176.52 45H150.796ZM179.74 45L189.217 15.8396H198.833L191.925 36.9809H208.033L205.464 45H179.74Z" fill="white"/>
<path d="M11.7639 75.3718C4.87004 75.3718 0.613613 73.335 2.70266 67.3812H8.83922C8.47364 69.1308 10.3538 69.8358 12.7823 69.8358C15.3153 69.8358 17.6132 69.2352 17.6132 67.7207C17.6132 67.0417 17.2476 66.3367 15.0802 66.0233L13.3307 65.7361C11.1111 65.4227 5.57509 64.7177 5.57509 60.1479C5.57509 54.9253 10.5366 51.9745 17.561 51.9745C24.272 51.9745 28.5024 54.8208 26.1783 59.9129H20.2506C20.4595 58.79 19.5456 57.5105 16.5426 57.5105C14.0618 57.5105 12.4689 58.3461 12.4689 59.6256C12.4689 60.2523 12.8606 60.879 14.558 61.1663L15.8375 61.4013C19.0233 62.028 24.6898 62.3675 24.6898 67.0678C24.6898 73.3089 18.6316 75.3718 11.7639 75.3718ZM53.7092 52.7057L51.7507 58.7378H44.0213L38.8248 74.6406H31.5914L36.7879 58.7378H28.8757L30.8081 52.7057H53.7092ZM76.0444 59.1034C76.0444 63.0464 73.7204 65.9711 70.6913 67.5901L72.3103 74.6406H65.3642L64.1369 69.0002H58.3398L56.538 74.6406H49.3047L56.3552 52.7057H67.7927C73.3548 52.7057 76.0444 54.8208 76.0444 59.1034ZM61.6561 58.7117L60.0632 63.6993L65.077 63.6731C66.6437 63.6731 68.6806 62.6547 68.6806 60.644C68.6806 59.1817 67.8449 58.7117 66.1476 58.7117H61.6561ZM99.3748 58.4766H86.7622L85.8483 61.2969H98.3825L96.868 65.9189H84.3598L83.3936 68.8696H95.9801L94.1 74.6406H74.3063L81.3829 52.7057H101.255L99.3748 58.4766ZM121.95 58.4766H109.337L108.423 61.2969H120.958L119.443 65.9189H106.935L105.969 68.8696H118.555L116.675 74.6406H96.8814L103.958 52.7057H123.83L121.95 58.4766ZM149.304 52.7057L147.345 58.7378H139.616L134.419 74.6406H127.186L132.383 58.7378H124.47L126.403 52.7057H149.304Z" fill="white"/>
<path d="M59.2609 18.5169L58.984 20.1196H56.1138L54.5985 28.7158H52.923L54.4383 20.1196H51.5534L51.8303 18.5169H59.2609ZM64.2589 21.2415C65.0942 21.2415 65.7304 21.5135 66.1675 22.0574C66.6143 22.5916 66.76 23.3201 66.6046 24.2429L65.8179 28.7158H64.2443L65.002 24.4032C65.0991 23.8495 65.0262 23.4318 64.7834 23.1501C64.5503 22.8587 64.1763 22.7131 63.6615 22.7131C63.1273 22.7131 62.6611 22.8733 62.2628 23.1939C61.8646 23.5144 61.6023 24.0049 61.4761 24.6654L60.7621 28.7158H59.1886L60.9807 18.5169H62.5542L61.884 22.3051C62.4959 21.596 63.2876 21.2415 64.2589 21.2415ZM72.6706 21.2415C73.7585 21.2415 74.6035 21.6155 75.2057 22.3634C75.8177 23.1113 76.0216 24.0195 75.8177 25.0879C75.7302 25.4376 75.672 25.6562 75.6428 25.7436H69.844C69.8537 26.3069 70.0383 26.7343 70.3977 27.0257C70.7571 27.3171 71.2282 27.4628 71.811 27.4628C72.6754 27.4628 73.3602 27.1568 73.8653 26.5449L75.0163 27.4191C74.2198 28.4099 73.1077 28.9052 71.6798 28.9052C70.5045 28.9052 69.6061 28.5216 68.9844 27.7542C68.3628 26.9869 68.1442 26.0447 68.3288 24.9277C68.5133 23.8592 69.0136 22.9802 69.8295 22.2905C70.6454 21.5912 71.5924 21.2415 72.6706 21.2415ZM70.0626 24.4469H74.3315C74.3413 23.8446 74.181 23.3978 73.8507 23.1064C73.5302 22.815 73.1028 22.6693 72.5686 22.6693C71.9955 22.6693 71.4856 22.8296 71.0388 23.1501C70.6017 23.461 70.2763 23.8932 70.0626 24.4469Z" fill="white"/>
<path d="M21.6292 27.9153L19.2995 41.1738H17.1213L18.7881 31.7413L13.5604 38.3895H13.2952L10.473 31.5519L8.78732 41.1738H6.60913L8.93885 27.9153H11.2307L13.9582 34.6393L19.1479 27.9153H21.6292ZM31.7543 31.7034H33.8L32.1332 41.1738H30.0876L30.277 40.0563C29.3931 40.9655 28.2377 41.4201 26.8108 41.4201C25.4344 41.4201 24.3738 40.9023 23.6288 39.8669C22.8964 38.8189 22.6565 37.6066 22.909 36.2303C23.1615 34.816 23.7866 33.667 24.7841 32.7831C25.7943 31.8992 26.9623 31.4572 28.2882 31.4572C29.7656 31.4572 30.8326 32.0507 31.4892 33.2376L31.7543 31.7034ZM27.4169 39.4692C28.225 39.4692 28.9511 39.2229 29.5951 38.7305C30.2391 38.2254 30.6621 37.5751 30.8641 36.7796L30.9588 36.2303C31.0472 35.359 30.8452 34.6708 30.3527 34.1657C29.8603 33.6607 29.21 33.4081 28.4018 33.4081C27.5811 33.4081 26.8424 33.6733 26.1858 34.2036C25.5291 34.734 25.1188 35.46 24.9546 36.3818C24.8031 37.2657 24.9609 38.0044 25.4281 38.5979C25.8953 39.1787 26.5583 39.4692 27.4169 39.4692ZM45.1428 27.9153H47.1884L44.8587 41.1738H42.8131L43.0214 40.0374C42.1249 40.9592 40.9569 41.4201 39.5174 41.4201C38.141 41.4201 37.0804 40.9023 36.3354 39.8669C35.603 38.8189 35.3631 37.6066 35.6156 36.2303C35.8681 34.816 36.4932 33.667 37.4907 32.7831C38.5009 31.8992 39.6689 31.4572 40.9948 31.4572C42.4848 31.4572 43.5518 32.057 44.1958 33.2566L45.1428 27.9153ZM40.1424 39.4692C40.9506 39.4692 41.6767 39.2229 42.3206 38.7305C42.9646 38.2254 43.3876 37.5688 43.5897 36.7606L43.6844 36.2113C43.7728 35.3401 43.5707 34.6582 43.0783 34.1657C42.5858 33.6607 41.9355 33.4081 41.1274 33.4081C40.3066 33.4081 39.5616 33.6733 38.8924 34.2036C38.2357 34.734 37.8254 35.46 37.6612 36.3818C37.5097 37.2657 37.6675 38.0044 38.1347 38.5979C38.6146 39.1787 39.2838 39.4692 40.1424 39.4692ZM51.4659 33.124C52.2236 32.0254 53.2906 31.4951 54.6669 31.533L54.2692 33.749C53.8146 33.7112 53.3726 33.7554 52.9433 33.8816C52.514 34.0079 52.1036 34.2668 51.7122 34.6582C51.3333 35.0496 51.0745 35.5484 50.9356 36.1545L50.0454 41.1738H47.9998L49.6666 31.7034H51.7122L51.4659 33.124ZM64.1031 31.7034H66.1487L64.482 41.1738H62.4363L62.6258 40.0563C61.7418 40.9655 60.5865 41.4201 59.1596 41.4201C57.7832 41.4201 56.7225 40.9023 55.9775 39.8669C55.2452 38.8189 55.0052 37.6066 55.2578 36.2303C55.5103 34.816 56.1354 33.667 57.1329 32.7831C58.1431 31.8992 59.3111 31.4572 60.637 31.4572C62.1144 31.4572 63.1813 32.0507 63.838 33.2376L64.1031 31.7034ZM59.7657 39.4692C60.5738 39.4692 61.2999 39.2229 61.9439 38.7305C62.5879 38.2254 63.0109 37.5751 63.2129 36.7796L63.3076 36.2303C63.396 35.359 63.194 34.6708 62.7015 34.1657C62.2091 33.6607 61.5588 33.4081 60.7506 33.4081C59.9298 33.4081 59.1912 33.6733 58.5345 34.2036C57.8779 34.734 57.4675 35.46 57.3034 36.3818C57.1519 37.2657 57.3097 38.0044 57.7769 38.5979C58.2441 39.1787 58.907 39.4692 59.7657 39.4692ZM71.1099 41.4201C69.2158 41.4201 67.9783 40.6561 67.3975 39.1282L69.2348 38.1812C69.3484 38.5979 69.582 38.9325 69.9356 39.185C70.2891 39.425 70.7374 39.5449 71.2804 39.5449C72.3032 39.5449 72.8714 39.2103 72.985 38.5411C73.0355 38.2254 72.8966 37.9728 72.5683 37.7834C72.2526 37.5814 71.8549 37.4109 71.3751 37.272C70.8952 37.1205 70.4154 36.95 69.9356 36.7606C69.4684 36.5586 69.0959 36.2429 68.8181 35.8136C68.5403 35.3716 68.4582 34.816 68.5718 34.1468C68.7234 33.326 69.1527 32.6757 69.8598 32.1959C70.5669 31.7034 71.3814 31.4572 72.3032 31.4572C73.1113 31.4572 73.8058 31.634 74.3866 31.9875C74.9801 32.3285 75.4221 32.8083 75.7125 33.427L73.8752 34.3551C73.648 33.648 73.086 33.2945 72.1895 33.2945C71.8107 33.2945 71.4698 33.3829 71.1667 33.5596C70.8637 33.7238 70.6806 33.9763 70.6174 34.3173C70.5543 34.6456 70.6806 34.9107 70.9962 35.1128C71.3246 35.3148 71.7286 35.4853 72.2085 35.6242C72.7009 35.7505 73.1807 35.9083 73.648 36.0977C74.1278 36.2871 74.5066 36.6028 74.7844 37.0447C75.0622 37.4867 75.1443 38.0486 75.0306 38.7305C74.8791 39.6017 74.4435 40.271 73.7237 40.7382C73.0166 41.1928 72.1453 41.4201 71.1099 41.4201Z" fill="white"/>
<path d="M9.25143 22.2256H48.1391" stroke="white" stroke-width="0.74784"/>
<path d="M4.88815 46.6611H75.1851" stroke="white" stroke-width="0.74784"/>
</svg>
