<svg width="143" height="46" viewBox="0 0 143 46" fill="none" xmlns="http://www.w3.org/2000/svg">
<path d="M109.496 30.8345L109.422 31.2737C109.281 32.1033 108.913 32.7675 108.316 33.2663C107.72 33.7597 107.001 34.0064 106.161 34.0064C105.283 34.0064 104.602 33.7109 104.119 33.1199C103.637 32.5235 103.469 31.8023 103.615 30.9565C103.756 30.1269 104.144 29.441 104.778 28.8988C105.413 28.3566 106.15 28.0855 106.99 28.0855C107.554 28.0855 108.037 28.2075 108.438 28.4515C108.845 28.69 109.154 29.0289 109.365 29.4681L108.341 30.0049C108.053 29.4519 107.568 29.1753 106.885 29.1753C106.337 29.1753 105.863 29.3488 105.461 29.6958C105.066 30.0374 104.822 30.4848 104.729 31.0378C104.632 31.5909 104.721 32.0409 104.998 32.3879C105.28 32.7349 105.703 32.9084 106.267 32.9084C107.199 32.9084 107.823 32.5479 108.137 31.8267H106.47L106.641 30.8345H109.496ZM114.596 30.1676C114.526 30.5471 114.368 30.8779 114.124 31.1598C113.886 31.4418 113.588 31.6451 113.23 31.7698L114.092 33.8925H112.953L112.164 31.9162H111.229L110.879 33.8925H109.757L110.757 28.1993H112.978C113.493 28.1993 113.913 28.3973 114.238 28.7931C114.569 29.1889 114.688 29.647 114.596 30.1676ZM113.157 30.6881C113.33 30.5254 113.438 30.3248 113.482 30.0862C113.525 29.8477 113.482 29.6498 113.352 29.4925C113.222 29.3299 113.035 29.2485 112.791 29.2485H111.693L111.4 30.9321H112.555C112.782 30.9321 112.983 30.8508 113.157 30.6881ZM117.397 34.0064C116.573 34.0064 115.92 33.7082 115.437 33.1118C114.955 32.5099 114.789 31.7942 114.941 30.9646C115.082 30.1242 115.47 29.4356 116.104 28.8988C116.744 28.3566 117.501 28.0855 118.373 28.0855C119.187 28.0855 119.835 28.3864 120.317 28.9883C120.805 29.5901 120.976 30.3058 120.83 31.1354C120.683 31.9758 120.293 32.6644 119.659 33.2012C119.024 33.738 118.27 34.0064 117.397 34.0064ZM117.528 32.9084C118.059 32.9084 118.531 32.7349 118.943 32.3879C119.36 32.0409 119.618 31.5963 119.715 31.0541C119.808 30.5119 119.71 30.0645 119.423 29.7121C119.135 29.3543 118.729 29.1753 118.203 29.1753C117.677 29.1753 117.21 29.3515 116.804 29.704C116.403 30.051 116.153 30.4983 116.056 31.0459C115.958 31.5882 116.047 32.0355 116.324 32.3879C116.606 32.7349 117.007 32.9084 117.528 32.9084ZM122 33.8925L121.407 28.1993H122.521L122.887 32.4204L124.822 28.1993H125.782L126.238 32.4204L128.076 28.1993H129.288L126.693 33.8925H125.416L125.001 30.135L123.277 33.8925H122ZM133.704 28.1993L133.517 29.2729H131.98L131.167 33.8925H130.044L130.857 29.2729H129.328L129.515 28.1993H133.704ZM137.568 28.1993H138.682L137.681 33.8925H136.567L136.982 31.5339H134.867L134.453 33.8925H133.33L134.331 28.1993H135.453L135.054 30.4604H137.169L137.568 28.1993Z" fill="white"/>
<path d="M98.1701 41.8737C97.2541 41.8737 96.5484 41.5568 96.0529 40.9231C95.5632 40.2894 95.3962 39.5319 95.5517 38.6504C95.7015 37.7748 96.1163 37.0489 96.7961 36.4728C97.4759 35.8909 98.2479 35.6 99.112 35.6C99.6996 35.6 100.204 35.7325 100.624 35.9975C101.051 36.2625 101.367 36.6254 101.575 37.0863L100.858 37.4665C100.518 36.7407 99.9214 36.3777 99.0688 36.3777C98.3832 36.3777 97.7841 36.6024 97.2714 37.0518C96.7644 37.5011 96.4533 38.0628 96.3381 38.7368C96.2229 39.4166 96.341 39.9783 96.6924 40.4219C97.0496 40.8655 97.5652 41.0873 98.2392 41.0873C98.677 41.0873 99.0803 40.9894 99.449 40.7935C99.8177 40.5976 100.123 40.324 100.365 39.9726L101.03 40.396C100.702 40.8511 100.284 41.2112 99.7774 41.4762C99.2762 41.7412 98.7404 41.8737 98.1701 41.8737ZM103.644 41.8737C103.005 41.8737 102.492 41.6519 102.106 41.2083C101.72 40.7647 101.588 40.203 101.708 39.5232C101.829 38.8549 102.146 38.322 102.659 37.9245C103.172 37.527 103.742 37.3283 104.37 37.3283C104.986 37.3283 105.482 37.5501 105.856 37.9937C106.231 38.4373 106.36 38.9932 106.245 39.6615C106.13 40.3413 105.822 40.8799 105.321 41.2774C104.819 41.6749 104.261 41.8737 103.644 41.8737ZM103.705 41.1392C104.125 41.1392 104.508 41.0009 104.854 40.7244C105.205 40.4479 105.421 40.0676 105.502 39.5837C105.583 39.1171 105.496 38.7484 105.243 38.4776C104.995 38.2011 104.664 38.0628 104.249 38.0628C103.84 38.0686 103.463 38.2068 103.117 38.4776C102.771 38.7484 102.552 39.1228 102.46 39.601C102.38 40.0849 102.463 40.4651 102.711 40.7417C102.964 41.0124 103.296 41.1449 103.705 41.1392ZM109.655 37.3283C110.162 37.3283 110.545 37.4896 110.804 37.8122C111.069 38.1348 111.155 38.5669 111.063 39.1084L110.597 41.7614H109.845L110.303 39.1516C110.366 38.7944 110.323 38.5208 110.173 38.3307C110.023 38.1406 109.776 38.0455 109.43 38.0455C109.061 38.0455 108.739 38.1636 108.462 38.3998C108.186 38.6303 108.007 38.9874 107.926 39.4714V39.4627L107.52 41.7614H106.768L107.529 37.4406H108.281L108.177 38.011C108.551 37.5558 109.044 37.3283 109.655 37.3283ZM113.227 41.8737C112.801 41.8737 112.45 41.7815 112.173 41.5972C111.902 41.4071 111.715 41.1507 111.612 40.8281L112.286 40.4824C112.332 40.6841 112.441 40.8482 112.614 40.975C112.793 41.1017 113.017 41.1651 113.288 41.1651C113.541 41.1651 113.752 41.1161 113.919 41.0182C114.092 40.9203 114.195 40.7791 114.23 40.5948C114.253 40.468 114.227 40.3614 114.152 40.275C114.077 40.1886 113.971 40.1195 113.832 40.0676C113.7 40.01 113.55 39.9553 113.383 39.9034C113.222 39.8516 113.06 39.7911 112.899 39.722C112.738 39.6528 112.594 39.5722 112.467 39.48C112.34 39.3878 112.245 39.2611 112.182 39.0998C112.119 38.9327 112.107 38.7397 112.147 38.5208C112.211 38.1694 112.395 37.8842 112.7 37.6653C113.011 37.4406 113.374 37.3283 113.789 37.3283C114.527 37.3283 115.028 37.6279 115.293 38.227L114.627 38.5727C114.512 38.2097 114.221 38.0282 113.755 38.0282C113.553 38.0282 113.369 38.0772 113.202 38.1751C113.034 38.2673 112.934 38.4085 112.899 38.5986C112.87 38.7714 112.928 38.9097 113.072 39.0134C113.222 39.1171 113.409 39.2035 113.634 39.2726C113.864 39.3417 114.092 39.4195 114.316 39.5059C114.541 39.5923 114.72 39.7335 114.852 39.9294C114.985 40.1252 115.025 40.3758 114.973 40.6812C114.904 41.0614 114.714 41.3552 114.403 41.5626C114.092 41.77 113.7 41.8737 113.227 41.8737ZM119.43 37.4406H120.182L119.421 41.7614H118.67L118.773 41.191C118.399 41.6461 117.906 41.8737 117.296 41.8737C116.789 41.8737 116.403 41.7124 116.138 41.3898C115.878 41.0672 115.795 40.6351 115.887 40.0936L116.354 37.4406H117.106L116.648 40.0503C116.584 40.4075 116.627 40.6812 116.777 40.8713C116.927 41.0614 117.175 41.1565 117.52 41.1565C117.889 41.1565 118.212 41.0412 118.488 40.8108C118.765 40.5746 118.943 40.2145 119.024 39.7306V39.7393L119.43 37.4406ZM120.575 41.7614L121.033 39.1343L121.681 35.4531H122.433L121.326 41.7614H120.575ZM124.314 38.1665L123.899 40.5083C123.859 40.7157 123.876 40.8655 123.951 40.9577C124.026 41.0499 124.147 41.0988 124.314 41.1046C124.487 41.1046 124.7 41.0988 124.953 41.0873L124.832 41.7614C124.193 41.8478 123.729 41.793 123.441 41.5972C123.153 41.3955 123.055 41.0326 123.147 40.5083L123.553 38.1665H122.698L122.836 37.4406H123.683L123.856 36.4555L124.651 36.2308L124.435 37.4406H125.593L125.463 38.1665H124.314ZM127.001 36.6542C126.863 36.6542 126.753 36.6053 126.673 36.5073C126.592 36.4094 126.563 36.2913 126.586 36.153C126.609 36.009 126.676 35.888 126.785 35.7901C126.895 35.6922 127.024 35.6432 127.174 35.6432C127.312 35.6432 127.422 35.695 127.502 35.7987C127.589 35.8967 127.62 36.0148 127.597 36.153C127.569 36.2971 127.499 36.418 127.39 36.516C127.281 36.6082 127.151 36.6542 127.001 36.6542ZM125.722 41.7614L126.483 37.4406H127.234L126.474 41.7614H125.722ZM130.507 37.3283C131.014 37.3283 131.397 37.4896 131.657 37.8122C131.922 38.1348 132.008 38.5669 131.916 39.1084L131.449 41.7614H130.697L131.155 39.1516C131.219 38.7944 131.176 38.5208 131.026 38.3307C130.876 38.1406 130.628 38.0455 130.283 38.0455C129.914 38.0455 129.591 38.1636 129.315 38.3998C129.038 38.6303 128.86 38.9874 128.779 39.4714V39.4627L128.373 41.7614H127.621L128.381 37.4406H129.133L129.03 38.011C129.404 37.5558 129.897 37.3283 130.507 37.3283ZM136.854 37.4406H137.597L136.871 41.5799C136.756 42.2366 136.471 42.7378 136.016 43.0835C135.566 43.4292 135.025 43.602 134.391 43.602C133.93 43.602 133.53 43.5098 133.19 43.3255C132.856 43.1411 132.614 42.8819 132.464 42.5477L133.13 42.2021C133.325 42.6687 133.76 42.902 134.434 42.902C134.907 42.902 135.287 42.7868 135.575 42.5564C135.869 42.3259 136.053 42.0004 136.128 41.5799L136.215 41.07C135.782 41.577 135.221 41.8305 134.529 41.8305C133.873 41.8305 133.369 41.6029 133.017 41.1478C132.672 40.6869 132.551 40.1339 132.654 39.4886C132.752 38.8549 133.037 38.3365 133.51 37.9332C133.982 37.5299 134.512 37.3283 135.1 37.3283C135.457 37.3283 135.777 37.4089 136.059 37.5702C136.347 37.7258 136.563 37.9533 136.707 38.2529L136.854 37.4406ZM134.702 41.1046C135.117 41.1046 135.489 40.9779 135.817 40.7244C136.145 40.4651 136.359 40.1252 136.456 39.7047L136.5 39.48C136.552 39.0422 136.442 38.6936 136.171 38.4344C135.901 38.1751 135.566 38.0455 135.169 38.0455C134.754 38.0455 134.374 38.1838 134.028 38.4603C133.683 38.7311 133.475 39.094 133.406 39.5491C133.331 39.9927 133.415 40.3643 133.657 40.6639C133.904 40.9577 134.253 41.1046 134.702 41.1046Z" fill="white"/>
<path d="M53.3607 25L55.9327 5.17908H62.4689L60.4396 18.0155H61.0295L67.9432 5.17908H73.1108L71.8602 18.0155H72.4501L78.656 5.17908H85.4281L75.1873 25H66.3859L67.6129 15.4671H67.0466L62.1621 25H53.3607ZM94.1934 25L94.1462 22.3808H85.7931L84.0706 25H77.1097L90.5832 5.17908H99.7858L100.682 25H94.1934ZM88.9786 17.5436H94.099L94.0047 11.3141H93.0608L88.9786 17.5436ZM101.833 25L108.275 5.17908H114.811L110.115 19.5492H121.064L119.318 25H101.833ZM121.507 25L127.948 5.17908H134.485L129.789 19.5492H140.738L138.991 25H121.507Z" fill="white"/>
<path d="M7.88726 43.4219C3.20138 43.4219 0.308197 42.0374 1.72816 37.9905H5.89931C5.65081 39.1797 6.92878 39.6589 8.57949 39.6589C10.3012 39.6589 11.8632 39.2507 11.8632 38.2212C11.8632 37.7597 11.6147 37.2805 10.1415 37.0675L8.95223 36.8723C7.44352 36.6593 3.68061 36.18 3.68061 33.0739C3.68061 29.524 7.05303 27.5183 11.8277 27.5183C16.3893 27.5183 19.2647 29.453 17.685 32.9141H13.6559C13.7979 32.1509 13.1766 31.2812 11.1354 31.2812C9.44922 31.2812 8.3665 31.8491 8.3665 32.7189C8.3665 33.1449 8.63274 33.5708 9.78646 33.7661L10.6562 33.9258C12.8216 34.3518 16.6733 34.5826 16.6733 37.7775C16.6733 42.0196 12.5554 43.4219 7.88726 43.4219ZM36.3983 28.0152L35.0671 32.1154H29.8132L26.2811 42.9249H21.3644L24.8966 32.1154H19.5185L20.832 28.0152H36.3983ZM51.58 32.3639C51.58 35.0441 50.0003 37.032 47.9413 38.1325L49.0418 42.9249H44.3204L43.4862 39.091H39.5458L38.3211 42.9249H33.4045L38.1968 28.0152H45.9711C49.7518 28.0152 51.58 29.453 51.58 32.3639ZM41.8 32.0976L40.7173 35.4878L44.1252 35.4701C45.1902 35.4701 46.5746 34.7778 46.5746 33.4111C46.5746 32.4171 46.0066 32.0976 44.8529 32.0976H41.8ZM67.4381 31.9379H58.8651L58.2439 33.8548H66.7636L65.7342 36.9965H57.2321L56.5754 39.0022H65.1307L63.8527 42.9249H50.3986L55.2087 28.0152H68.7161L67.4381 31.9379ZM82.7829 31.9379H74.2099L73.5886 33.8548H82.1084L81.0789 36.9965H72.5769L71.9202 39.0022H80.4755L79.1975 42.9249H65.7433L70.5535 28.0152H84.0609L82.7829 31.9379ZM101.376 28.0152L100.045 32.1154H94.7908L91.2586 42.9249H86.342L89.8741 32.1154H84.496L85.8095 28.0152H101.376Z" fill="white"/>
<path d="M40.0422 4.73013L39.854 5.8195H37.9031L36.8731 11.6625H35.7342L36.7642 5.8195H34.8033L34.9915 4.73013H40.0422ZM43.4395 6.58206C44.0073 6.58206 44.4397 6.76693 44.7368 7.13665C45.0405 7.49978 45.1395 7.99495 45.0339 8.62216L44.4991 11.6625H43.4296L43.9445 8.7311C44.0106 8.35477 43.961 8.07087 43.796 7.87941C43.6375 7.68134 43.3833 7.58231 43.0334 7.58231C42.6703 7.58231 42.3534 7.69124 42.0827 7.90912C41.812 8.12699 41.6337 8.46041 41.5479 8.90936L41.0626 11.6625H39.9931L41.2112 4.73013H42.2808L41.8252 7.30501C42.2411 6.82305 42.7792 6.58206 43.4395 6.58206ZM49.157 6.58206C49.8965 6.58206 50.4709 6.83625 50.8802 7.34462C51.2962 7.853 51.4348 8.47031 51.2962 9.19656C51.2368 9.43424 51.1971 9.58279 51.1773 9.64221H47.2358C47.2424 10.0251 47.3678 10.3156 47.6121 10.5137C47.8564 10.7118 48.1766 10.8108 48.5727 10.8108C49.1603 10.8108 49.6258 10.6028 49.9691 10.1869L50.7515 10.7811C50.2101 11.4545 49.4541 11.7913 48.4836 11.7913C47.6847 11.7913 47.074 11.5305 46.6515 11.0089C46.2289 10.4873 46.0804 9.84688 46.2058 9.08762C46.3313 8.36137 46.6713 7.76387 47.2259 7.29511C47.7805 6.81974 48.4242 6.58206 49.157 6.58206ZM47.3843 8.76081H50.286C50.2926 8.35147 50.1837 8.04777 49.9592 7.8497C49.7413 7.65163 49.4508 7.5526 49.0877 7.5526C48.6982 7.5526 48.3516 7.66153 48.0479 7.87941C47.7508 8.09068 47.5296 8.38448 47.3843 8.76081Z" fill="white"/>
<path d="M14.4631 11.0797L12.8796 20.0918H11.399L12.532 13.6803L8.97865 18.1993H8.7984L6.88012 13.5516L5.73429 20.0918H4.25373L5.83729 11.0797H7.39509L9.24901 15.6501L12.7766 11.0797H14.4631ZM21.3454 13.6546H22.7359L21.6029 20.0918H20.2125L20.3412 19.3322C19.7404 19.9502 18.9551 20.2592 17.9852 20.2592C17.0497 20.2592 16.3287 19.9073 15.8223 19.2035C15.3245 18.4911 15.1614 17.6671 15.3331 16.7316C15.5047 15.7703 15.9296 14.9892 16.6076 14.3884C17.2943 13.7876 18.0882 13.4872 18.9894 13.4872C19.9936 13.4872 20.7189 13.8906 21.1652 14.6974L21.3454 13.6546ZM18.3972 18.9331C18.9465 18.9331 19.44 18.7657 19.8777 18.431C20.3155 18.0877 20.603 17.6457 20.7403 17.1049L20.8047 16.7316C20.8648 16.1393 20.7275 15.6716 20.3927 15.3283C20.058 14.9849 19.616 14.8133 19.0667 14.8133C18.5088 14.8133 18.0067 14.9935 17.5604 15.354C17.114 15.7145 16.8351 16.208 16.7235 16.8346C16.6205 17.4354 16.7278 17.9375 17.0454 18.3409C17.3629 18.7357 17.8135 18.9331 18.3972 18.9331ZM30.4458 11.0797H31.8363L30.2527 20.0918H28.8623L29.0039 19.3193C28.3945 19.9459 27.6006 20.2592 26.6221 20.2592C25.6866 20.2592 24.9656 19.9073 24.4592 19.2035C23.9614 18.4911 23.7983 17.6671 23.97 16.7316C24.1417 15.7703 24.5665 14.9892 25.2446 14.3884C25.9312 13.7876 26.7251 13.4872 27.6263 13.4872C28.6391 13.4872 29.3644 13.8949 29.8021 14.7103L30.4458 11.0797ZM27.047 18.9331C27.5963 18.9331 28.0898 18.7657 28.5275 18.431C28.9653 18.0877 29.2528 17.6414 29.3901 17.0921L29.4545 16.7187C29.5146 16.1265 29.3773 15.663 29.0425 15.3283C28.7078 14.9849 28.2658 14.8133 27.7165 14.8133C27.1586 14.8133 26.6522 14.9935 26.1973 15.354C25.751 15.7145 25.472 16.208 25.3604 16.8346C25.2574 17.4354 25.3647 17.9375 25.6823 18.3409C26.0085 18.7357 26.4633 18.9331 27.047 18.9331ZM34.7438 14.6202C35.2588 13.8735 35.984 13.513 36.9196 13.5387L36.6492 15.045C36.3402 15.0193 36.0398 15.0493 35.748 15.1351C35.4562 15.221 35.1772 15.3969 34.9111 15.663C34.6537 15.9291 34.4777 16.2681 34.3833 16.6801L33.7782 20.0918H32.3878L33.5207 13.6546H34.9111L34.7438 14.6202ZM43.3335 13.6546H44.724L43.591 20.0918H42.2006L42.3293 19.3322C41.7285 19.9502 40.9432 20.2592 39.9733 20.2592C39.0378 20.2592 38.3168 19.9073 37.8104 19.2035C37.3126 18.4911 37.1495 17.6671 37.3212 16.7316C37.4928 15.7703 37.9177 14.9892 38.5957 14.3884C39.2824 13.7876 40.0763 13.4872 40.9775 13.4872C41.9817 13.4872 42.707 13.8906 43.1533 14.6974L43.3335 13.6546ZM40.3853 18.9331C40.9346 18.9331 41.4281 18.7657 41.8658 18.431C42.3036 18.0877 42.5911 17.6457 42.7284 17.1049L42.7928 16.7316C42.8529 16.1393 42.7156 15.6716 42.3808 15.3283C42.0461 14.9849 41.6041 14.8133 41.0548 14.8133C40.4969 14.8133 39.9948 14.9935 39.5485 15.354C39.1021 15.7145 38.8232 16.208 38.7116 16.8346C38.6086 17.4354 38.7159 17.9375 39.0335 18.3409C39.351 18.7357 39.8017 18.9331 40.3853 18.9331ZM48.0962 20.2592C46.8087 20.2592 45.9676 19.7399 45.5728 18.7014L46.8216 18.0576C46.8988 18.3409 47.0576 18.5683 47.298 18.74C47.5383 18.9031 47.843 18.9846 48.212 18.9846C48.9073 18.9846 49.2935 18.7571 49.3707 18.3023C49.4051 18.0877 49.3107 17.916 49.0875 17.7873C48.8729 17.6499 48.6026 17.5341 48.2764 17.4397C47.9503 17.3367 47.6241 17.2208 47.298 17.0921C46.9804 16.9547 46.7272 16.7402 46.5384 16.4483C46.3495 16.1479 46.2937 15.7703 46.371 15.3154C46.474 14.7575 46.7658 14.3155 47.2465 13.9893C47.7271 13.6546 48.2807 13.4872 48.9073 13.4872C49.4566 13.4872 49.9286 13.6074 50.3234 13.8477C50.7268 14.0794 51.0272 14.4056 51.2246 14.8262L49.9758 15.457C49.8213 14.9764 49.4394 14.736 48.83 14.736C48.5725 14.736 48.3408 14.7961 48.1348 14.9163C47.9288 15.0279 47.8043 15.1995 47.7614 15.4313C47.7185 15.6544 47.8043 15.8347 48.0189 15.972C48.2421 16.1093 48.5167 16.2252 48.8429 16.3196C49.1776 16.4054 49.5038 16.5127 49.8213 16.6415C50.1475 16.7702 50.405 16.9848 50.5938 17.2852C50.7826 17.5856 50.8384 17.9675 50.7612 18.431C50.6582 19.0232 50.3621 19.4781 49.8728 19.7957C49.3922 20.1047 48.8 20.2592 48.0962 20.2592Z" fill="white"/>
<path d="M6.04976 7.40756H32.4825" stroke="white" stroke-width="0.508321"/>
<path d="M3.08403 24.017H50.8662" stroke="white" stroke-width="0.508321"/>
</svg>
