<svg width="79" height="79" viewBox="0 0 79 79" fill="none" xmlns="http://www.w3.org/2000/svg">
<path d="M39.4745 25.3938C35.5627 25.3938 32.2376 26.763 29.4993 29.5013C26.761 32.2396 25.3919 35.5646 25.3919 39.4765C25.3919 42.4495 26.2395 45.1487 27.9346 47.574C29.6297 49.9994 31.8855 51.7076 34.7021 52.6986C35.3801 52.9594 35.9018 53.3766 36.2668 53.9504C36.6319 54.5242 36.7101 55.1501 36.5015 55.8281C36.3451 56.4018 36.0191 56.8581 35.5236 57.1972C35.028 57.5363 34.4935 57.6275 33.9197 57.471C29.9557 56.2713 26.761 54.0025 24.3357 50.6644C21.9103 47.3263 20.6976 43.5969 20.6976 39.4765C20.6976 34.2607 22.5232 29.8272 26.1742 26.1762C29.8252 22.5252 34.2588 20.6996 39.4745 20.6996C43.595 20.6996 47.3112 21.9123 50.6233 24.3376C53.9354 26.763 56.1912 29.9577 57.3908 33.9217C57.5473 34.4955 57.4691 35.03 57.1561 35.5255C56.8432 36.0211 56.3999 36.347 55.8261 36.5035C55.1481 36.7121 54.5222 36.6338 53.9484 36.2688C53.3746 35.9037 52.9575 35.382 52.6966 34.704C51.7057 31.8875 49.9974 29.6316 47.5721 27.9365C45.1467 26.2414 42.4476 25.3938 39.4745 25.3938ZM39.4745 12.8759C32.0681 12.8759 25.783 15.4577 20.6194 20.6213C15.4557 25.785 12.8739 32.0701 12.8739 39.4765C12.8739 46.8308 15.3384 52.9854 20.2673 57.9405C25.1963 62.8955 31.2858 65.5816 38.5357 65.9989C39.2137 66.051 39.7745 66.3118 40.2178 66.7813C40.6611 67.2507 40.8828 67.8245 40.8828 68.5025C40.8828 69.1284 40.6481 69.6499 40.1787 70.0672C39.7093 70.4845 39.1616 70.6931 38.5357 70.6931C34.3109 70.5887 30.3599 69.7022 26.6828 68.0331C23.0056 66.3639 19.7979 64.1212 17.0596 61.3047C14.3213 58.4881 12.1567 55.2022 10.5659 51.4468C8.97509 47.6914 8.17969 43.7013 8.17969 39.4765C8.17969 35.1473 9.00118 31.079 10.6442 27.2715C12.2871 23.464 14.5169 20.1519 17.3334 17.3354C20.15 14.5188 23.4621 12.2891 27.2695 10.6461C31.077 9.00313 35.1454 8.18164 39.4745 8.18164C47.9763 8.18164 55.2393 11.1155 61.2636 16.9833C67.2878 22.8511 70.4303 30.0359 70.6912 38.5376C70.6912 39.1635 70.4826 39.6851 70.0653 40.1024C69.6479 40.5197 69.1264 40.7544 68.5005 40.8065C67.8225 40.8586 67.2487 40.663 66.7793 40.2197C66.3099 39.7765 66.049 39.2157 65.9969 38.5376C65.4754 31.2355 62.7892 25.133 57.9385 20.2302C53.0878 15.3273 46.9332 12.8759 39.4745 12.8759ZM63.1022 69.2066L52.7749 58.9575L50.0366 67.2507C49.828 67.8245 49.4368 68.0983 48.863 68.0722C48.2892 68.046 47.9242 67.7462 47.7677 67.1724L40.1004 41.5889C39.9961 41.1195 40.1004 40.7283 40.4134 40.4153C40.7263 40.1024 41.1175 39.998 41.5869 40.1024L67.1705 47.7696C67.7443 47.9261 68.0441 48.2912 68.0702 48.865C68.0964 49.4387 67.8225 49.8299 67.2487 50.0385L58.9556 52.7768L69.2829 63.1041C70.1696 63.9909 70.6129 65.0079 70.6129 66.1554C70.6129 67.3028 70.1696 68.3199 69.2829 69.2066C68.3962 70.0933 67.3661 70.5366 66.1925 70.5366C65.019 70.5366 63.9889 70.0933 63.1022 69.2066Z" fill="#009E9E"/>
</svg>
