<svg width="66" height="66" viewBox="0 0 66 66" fill="none" xmlns="http://www.w3.org/2000/svg">
<path d="M33.407 59.3434C29.8627 59.3434 26.5128 58.6626 23.3575 57.301C20.2022 55.9395 17.4466 54.0809 15.0909 51.7251C12.7352 49.3694 10.8765 46.6139 9.51499 43.4586C8.15343 40.3032 7.47266 36.9533 7.47266 33.409C7.47266 29.8214 8.15343 26.4499 9.51499 23.2946C10.8765 20.1393 12.7352 17.3945 15.0909 15.0604C17.4466 12.7263 20.2022 10.8785 23.3575 9.51694C26.5128 8.15539 29.8627 7.47461 33.407 7.47461C36.9947 7.47461 40.3661 8.15539 43.5214 9.51694C46.6767 10.8785 49.4215 12.7263 51.7556 15.0604C54.0897 17.3945 55.9375 20.1393 57.2991 23.2946C58.6606 26.4499 59.3414 29.8214 59.3414 33.409C59.3414 36.9533 58.6606 40.3032 57.2991 43.4586C55.9375 46.6139 54.0897 49.3694 51.7556 51.7251C49.4215 54.0809 46.6767 55.9395 43.5214 57.301C40.3661 58.6626 36.9947 59.3434 33.407 59.3434ZM33.407 55.4532C39.5448 55.4532 44.7533 53.3029 49.0325 49.002C53.3117 44.7012 55.4513 39.5036 55.4513 33.409C55.4513 27.2712 53.3117 22.0627 49.0325 17.7835C44.7533 13.5044 39.5448 11.3648 33.407 11.3648C27.3125 11.3648 22.1148 13.5044 17.814 17.7835C13.5132 22.0627 11.3628 27.2712 11.3628 33.409C11.3628 39.5036 13.5132 44.7012 17.814 49.002C22.1148 53.3029 27.3125 55.4532 33.407 55.4532ZM33.3422 52.0169C33.8177 52.0169 34.2282 51.8332 34.5741 51.4658C34.9199 51.0984 35.0928 50.677 35.0928 50.2015V48.6454C37.6862 48.3429 39.7285 47.4676 41.2198 46.0196C42.711 44.5715 43.4566 42.7237 43.4566 40.4761C43.4566 38.2285 42.8407 36.4346 41.6088 35.0947C40.3769 33.7548 38.2481 32.5878 35.2224 31.5936C32.4993 30.6859 30.6298 29.7889 29.6141 28.9029C28.5984 28.0168 28.0905 26.8606 28.0905 25.4342C28.0905 24.0943 28.5768 23.046 29.5493 22.2896C30.5218 21.5332 31.851 21.155 33.5367 21.155C34.5741 21.155 35.5034 21.3495 36.3246 21.7385C37.1459 22.1275 37.8591 22.7111 38.4642 23.4891C38.7668 23.8349 39.1343 24.0726 39.5664 24.2023C39.9986 24.332 40.4093 24.2888 40.7983 24.0726C41.2738 23.8564 41.5871 23.5107 41.7384 23.0352C41.8898 22.5597 41.814 22.1275 41.5115 21.7385C40.7767 20.7011 39.8799 19.8799 38.8208 19.2748C37.7618 18.6696 36.5623 18.3022 35.2224 18.1725V16.6165C35.2224 16.141 35.0496 15.7304 34.7038 15.3846C34.3579 15.0388 33.9474 14.8659 33.4719 14.8659C32.9964 14.8659 32.5749 15.0388 32.2076 15.3846C31.8402 15.7304 31.6565 16.141 31.6565 16.6165V18.1725C29.452 18.4751 27.7122 19.2748 26.4372 20.5715C25.1621 21.8682 24.5245 23.4891 24.5245 25.4342C24.5245 27.5521 25.0756 29.2378 26.1778 30.4914C27.28 31.7449 29.3224 32.9335 32.3048 34.0573C35.3738 35.2244 37.4052 36.2401 38.3994 37.1046C39.3936 37.9692 39.8906 39.0929 39.8906 40.4761C39.8906 41.9025 39.3071 43.102 38.1401 44.0745C36.973 45.047 35.5466 45.5333 33.8609 45.5333C32.4345 45.5333 31.127 45.1875 29.9383 44.4959C28.7496 43.8044 27.8311 42.8319 27.1828 41.5783C26.9666 41.2325 26.6749 40.9624 26.3075 40.7679C25.9401 40.5734 25.5619 40.5409 25.1729 40.6706C24.611 40.8868 24.2327 41.2217 24.0382 41.6756C23.8437 42.1294 23.8978 42.594 24.2003 43.0695C25.0649 44.4959 26.0913 45.6522 27.28 46.5383C28.4687 47.4243 29.8842 48.0836 31.5268 48.5158V50.2663C31.5268 50.7418 31.7105 51.1524 32.0779 51.4982C32.4453 51.8441 32.8667 52.0169 33.3422 52.0169Z" fill="#FF7777"/>
</svg>
