<svg width="66" height="66" viewBox="0 0 66 66" fill="none" xmlns="http://www.w3.org/2000/svg">
<path d="M8.38234 58.5032C7.34497 58.5032 6.43727 58.1142 5.65923 57.3362C4.8812 56.5581 4.49219 55.6504 4.49219 54.613V26.7984C4.49219 26.2473 4.67978 25.7853 5.05496 25.4122C5.42972 25.0397 5.89437 24.8534 6.44894 24.8534C7.00306 24.8534 7.46384 25.0397 7.83124 25.4122C8.19864 25.7853 8.38234 26.2473 8.38234 26.7984V54.613H45.9224C46.4735 54.613 46.9355 54.8007 47.3085 55.1758C47.6811 55.5506 47.8674 56.0152 47.8674 56.5698C47.8674 57.1239 47.6811 57.5847 47.3085 57.9521C46.9355 58.3195 46.4735 58.5032 45.9224 58.5032H8.38234ZM16.1627 50.7229C15.1253 50.7229 14.2176 50.3339 13.4395 49.5558C12.6615 48.7778 12.2725 47.8701 12.2725 46.8327V15.1928C12.2725 14.6417 12.459 14.1796 12.832 13.8066C13.2046 13.434 13.6665 13.2477 14.2176 13.2477H27.9628V7.93117C27.9628 6.8938 28.3518 5.98609 29.1298 5.20806C29.9079 4.43003 30.8156 4.04102 31.853 4.04102H41.9674C43.0047 4.04102 43.9124 4.43003 44.6905 5.20806C45.4685 5.98609 45.8575 6.8938 45.8575 7.93117V13.2477H59.6027C60.1538 13.2477 60.6159 13.434 60.9889 13.8066C61.3615 14.1796 61.5478 14.6417 61.5478 15.1928V46.8327C61.5478 47.8701 61.1588 48.7778 60.3808 49.5558C59.6027 50.3339 58.695 50.7229 57.6577 50.7229H16.1627ZM16.1627 46.8327H57.6577V17.1379H16.1627V46.8327ZM31.853 13.2477H41.9674V7.93117H31.853V13.2477Z" fill="#B41CFF"/>
</svg>
