<svg width="68" height="68" viewBox="0 0 68 68" fill="none" xmlns="http://www.w3.org/2000/svg">
<path d="M13.9494 58.1254C12.8738 58.1254 11.9327 57.722 11.1259 56.9153C10.3192 56.1086 9.91588 55.1674 9.91588 54.0918V31.3022C8.661 30.2266 7.83187 28.9045 7.42852 27.3359C7.02516 25.7672 7.06997 24.1987 7.56297 22.63L10.4537 13.5545C10.8122 12.3445 11.4397 11.4033 12.336 10.731C13.2324 10.0588 14.2632 9.72266 15.4285 9.72266H52.6044C53.8593 9.72266 54.9573 10.07 55.8985 10.7647C56.8397 11.4593 57.4895 12.3893 57.8481 13.5545L60.806 22.63C61.2989 24.1987 61.3325 25.7672 60.9068 27.3359C60.481 28.9045 59.6407 30.2266 58.3859 31.3022V54.0918C58.3859 55.1674 57.9825 56.1086 57.1758 56.9153C56.3691 57.722 55.4279 58.1254 54.3523 58.1254H13.9494ZM40.2349 29.2182C41.5345 29.2182 42.6325 28.7924 43.5289 27.9409C44.4252 27.0894 44.7838 26.0586 44.6045 24.8485L42.9239 13.7562H36.2013V24.8485C36.2013 26.0138 36.5822 27.0333 37.3441 27.9073C38.1059 28.7812 39.0696 29.2182 40.2349 29.2182ZM27.6636 29.2182C28.9184 29.2182 29.9829 28.7924 30.8568 27.9409C31.7308 27.0894 32.1677 26.0586 32.1677 24.8485V13.7562H25.4451L23.7645 24.8485C23.5851 26.0138 23.8989 27.0333 24.7056 27.9073C25.5124 28.7812 26.4983 29.2182 27.6636 29.2182ZM15.4285 29.2182C16.5041 29.2182 17.4339 28.8484 18.2183 28.109C19.0026 27.3695 19.462 26.4619 19.5965 25.3863L21.3443 13.7562H14.6217L11.5293 23.5712C11.0811 24.9605 11.2604 26.2491 12.0671 27.4367C12.8738 28.6243 13.9943 29.2182 15.4285 29.2182ZM52.8733 29.2182C54.3074 29.2182 55.4391 28.6356 56.2682 27.4703C57.0973 26.305 57.2878 25.0054 56.8397 23.5712L53.7473 13.7562H47.0247L48.7725 25.3863C48.907 26.4619 49.3663 27.3695 50.1507 28.109C50.9349 28.8484 51.8425 29.2182 52.8733 29.2182ZM13.9494 54.0918H54.3523V33.1845C54.3971 33.2293 54.2515 33.2518 53.9153 33.2518H52.8733C51.7528 33.2518 50.6885 33.0165 49.6801 32.5459C48.6717 32.0753 47.6745 31.347 46.6885 30.361C45.9714 31.2574 45.0751 31.9633 43.9995 32.4787C42.9239 32.994 41.7361 33.2518 40.4365 33.2518C39.092 33.2518 37.9379 33.0612 36.9744 32.6803C36.0108 32.2994 35.0808 31.6608 34.1845 30.7644C33.5123 31.5711 32.6606 32.1873 31.6299 32.6131C30.5991 33.0389 29.4338 33.2518 28.1342 33.2518C26.7447 33.2518 25.5124 33.0053 24.4367 32.5123C23.3611 32.0192 22.4423 31.3022 21.6805 30.361C20.6049 31.3022 19.5516 32.0192 18.5209 32.5123C17.49 33.0053 16.4592 33.2518 15.4285 33.2518H14.5209C14.2295 33.2518 14.0391 33.2293 13.9494 33.1845V54.0918Z" fill="#FFAA71"/>
</svg>
