<svg width="66" height="66" viewBox="0 0 66 66" fill="none" xmlns="http://www.w3.org/2000/svg">
<path d="M57.4975 56.0351V13.9566H8.22219V32.759C8.22219 33.3101 8.03459 33.772 7.65941 34.1445C7.28466 34.5176 6.82001 34.7041 6.26544 34.7041C5.71131 34.7041 5.25054 34.5176 4.88314 34.1445C4.51574 33.772 4.33203 33.3101 4.33203 32.759V13.9566C4.33203 12.8868 4.71305 11.9709 5.47509 11.2088C6.23669 10.4472 7.15239 10.0664 8.22219 10.0664H57.4975C58.5673 10.0664 59.4832 10.4472 60.2452 11.2088C61.0068 11.9709 61.3877 12.8868 61.3877 13.9566V51.5614C61.3877 52.6853 61.0203 53.6686 60.2854 54.5114C59.5506 55.3543 58.6214 55.8622 57.4975 56.0351ZM25.0795 38.5294C22.2268 38.5294 19.8927 37.6217 18.0773 35.8063C16.2618 33.9909 15.3541 31.6568 15.3541 28.804C15.3541 25.9512 16.2618 23.6171 18.0773 21.8017C19.8927 19.9863 22.2268 19.0786 25.0795 19.0786C27.9323 19.0786 30.2664 19.9863 32.0818 21.8017C33.8972 23.6171 34.8049 25.9512 34.8049 28.804C34.8049 31.6568 33.8972 33.9909 32.0818 35.8063C30.2664 37.6217 27.9323 38.5294 25.0795 38.5294ZM25.0795 34.6392C26.7653 34.6392 28.1592 34.0881 29.2615 32.9859C30.3637 31.8837 30.9148 30.4897 30.9148 28.804C30.9148 27.1183 30.3637 25.7243 29.2615 24.6221C28.1592 23.5199 26.7653 22.9688 25.0795 22.9688C23.3938 22.9688 21.9998 23.5199 20.8976 24.6221C19.7954 25.7243 19.2443 27.1183 19.2443 28.804C19.2443 30.4897 19.7954 31.8837 20.8976 32.9859C21.9998 34.0881 23.3938 34.6392 25.0795 34.6392ZM8.22219 59.3417C7.15239 59.3417 6.23669 58.9607 5.47509 58.1987C4.71305 57.4371 4.33203 56.5214 4.33203 55.4516V53.2471C4.33203 51.6046 4.74266 50.1999 5.56391 49.0328C6.38517 47.8658 7.44416 46.9797 8.74088 46.3745C11.6369 45.0778 14.414 44.1053 17.0723 43.4569C19.7306 42.8086 22.3996 42.4844 25.0795 42.4844C27.7595 42.4844 30.4177 42.8193 33.0544 43.4893C35.691 44.1594 38.4556 45.1251 41.3482 46.3869C42.701 46.9976 43.7857 47.883 44.6023 49.0432C45.4188 50.2034 45.827 51.6046 45.827 53.2471V55.4516C45.827 56.5214 45.4462 57.4371 44.6846 58.1987C43.9225 58.9607 43.0067 59.3417 41.9369 59.3417H8.22219ZM8.22219 55.4516H41.9369V53.2471C41.9369 52.5556 41.7316 51.8964 41.3209 51.2696C40.9103 50.6429 40.4025 50.1782 39.7973 49.8757C37.031 48.5358 34.5024 47.6172 32.2115 47.1201C29.9206 46.6231 27.5433 46.3745 25.0795 46.3745C22.6158 46.3745 20.2168 46.6231 17.8827 47.1201C15.5486 47.6172 13.02 48.5358 10.2969 49.8757C9.6918 50.1782 9.19473 50.6429 8.80571 51.2696C8.4167 51.8964 8.22219 52.5556 8.22219 53.2471V55.4516Z" fill="#6764FF"/>
</svg>
