<svg width="69" height="69" viewBox="0 0 69 69" fill="none" xmlns="http://www.w3.org/2000/svg">
<path d="M34.3449 34.4757C32.0395 34.4757 30.107 33.696 28.5475 32.1364C26.988 30.5769 26.2082 28.6445 26.2082 26.3391C26.2082 24.0788 26.988 22.1578 28.5475 20.5756C30.107 18.9934 32.0395 18.2024 34.3449 18.2024C36.6051 18.2024 38.5262 18.9934 40.1083 20.5756C41.6905 22.1578 42.4815 24.0788 42.4815 26.3391C42.4815 28.6445 41.6905 30.5769 40.1083 32.1364C38.5262 33.696 36.6051 34.4757 34.3449 34.4757ZM34.3211 30.4074C35.467 30.4074 36.4356 30.0198 37.2266 29.2445C38.0176 28.4692 38.4132 27.5087 38.4132 26.3628C38.4132 25.2169 38.021 24.2483 37.2368 23.4573C36.4525 22.6663 35.4806 22.2707 34.3211 22.2707C33.1617 22.2707 32.1977 22.6629 31.4292 23.4472C30.6607 24.2314 30.2765 25.2033 30.2765 26.3628C30.2765 27.5223 30.6641 28.4862 31.4394 29.2547C32.2147 30.0232 33.1752 30.4074 34.3211 30.4074ZM18.0715 48.7149V45.5884C18.0715 44.3729 18.4671 43.3017 19.2581 42.3751C20.0492 41.4484 21.0098 40.6912 22.1399 40.1036C24.0384 39.1091 26.0034 38.3745 28.0349 37.8999C30.0667 37.4253 32.1687 37.1879 34.3408 37.1879C36.5133 37.1879 38.6166 37.4253 40.6508 37.8999C42.6849 38.3745 44.6513 39.1091 46.5499 40.1036C47.6799 40.6912 48.6406 41.4484 49.4316 42.3751C50.2226 43.3017 50.6182 44.3729 50.6182 45.5884V48.7149C50.6182 49.2912 50.4233 49.7743 50.0337 50.1639C49.6436 50.554 49.1604 50.7491 48.584 50.7491H20.1057C19.5294 50.7491 19.0463 50.554 18.6567 50.1639C18.2665 49.7743 18.0715 49.2912 18.0715 48.7149ZM34.3449 41.2563C32.1954 41.2563 30.0986 41.5501 28.0546 42.1377C26.0099 42.7254 24.0384 43.6068 22.1399 44.7822V46.6807H46.5499V44.7822C44.6513 43.6068 42.6798 42.7254 40.6352 42.1377C38.5911 41.5501 36.4943 41.2563 34.3449 41.2563ZM34.3449 46.6807H46.5499H22.1399H34.3449ZM11.291 61.5979C10.2061 61.5979 9.25682 61.1911 8.44316 60.3774C7.62949 59.5638 7.22266 58.6145 7.22266 57.5296V47.9012C7.22266 47.3249 7.41884 46.8417 7.81121 46.4515C8.20312 46.0619 8.68906 45.8671 9.26903 45.8671C9.84853 45.8671 10.3304 46.0619 10.7146 46.4515C11.0989 46.8417 11.291 47.3249 11.291 47.9012V57.5296H20.9194C21.4957 57.5296 21.9789 57.7258 22.3691 58.1182C22.7587 58.5101 22.9535 58.996 22.9535 59.576C22.9535 60.1554 22.7587 60.6374 22.3691 61.0216C21.9789 61.4058 21.4957 61.5979 20.9194 61.5979H11.291ZM7.22266 21.0502V11.4218C7.22266 10.337 7.62949 9.38768 8.44316 8.57402C9.25682 7.76035 10.2061 7.35352 11.291 7.35352H20.9194C21.4957 7.35352 21.9789 7.5497 22.3691 7.94207C22.7587 8.33398 22.9535 8.81992 22.9535 9.39989C22.9535 9.97939 22.7587 10.4613 22.3691 10.8455C21.9789 11.2297 21.4957 11.4218 20.9194 11.4218H11.291V21.0502C11.291 21.6266 11.0948 22.1096 10.7024 22.4992C10.3105 22.8894 9.82459 23.0844 9.24462 23.0844C8.66511 23.0844 8.18323 22.8894 7.799 22.4992C7.41478 22.1096 7.22266 21.6266 7.22266 21.0502ZM57.3988 61.5979H47.7704C47.194 61.5979 46.711 61.4017 46.3214 61.0094C45.9312 60.6175 45.7362 60.1316 45.7362 59.5516C45.7362 58.9721 45.9312 58.4901 46.3214 58.106C46.711 57.7218 47.194 57.5296 47.7704 57.5296H57.3988V47.9012C57.3988 47.3249 57.595 46.8417 57.9873 46.4515C58.3792 46.0619 58.8651 45.8671 59.4451 45.8671C60.0246 45.8671 60.5065 46.0619 60.8907 46.4515C61.2749 46.8417 61.4671 47.3249 61.4671 47.9012V57.5296C61.4671 58.6145 61.0602 59.5638 60.2466 60.3774C59.4329 61.1911 58.4836 61.5979 57.3988 61.5979ZM57.3988 21.0502V11.4218H47.7704C47.194 11.4218 46.711 11.2257 46.3214 10.8333C45.9312 10.4414 45.7362 9.95544 45.7362 9.37548C45.7362 8.79597 45.9312 8.31409 46.3214 7.92986C46.711 7.54564 47.194 7.35352 47.7704 7.35352H57.3988C58.4836 7.35352 59.4329 7.76035 60.2466 8.57402C61.0602 9.38768 61.4671 10.337 61.4671 11.4218V21.0502C61.4671 21.6266 61.2709 22.1096 60.8785 22.4992C60.4866 22.8894 60.0007 23.0844 59.4207 23.0844C58.8412 23.0844 58.3593 22.8894 57.9751 22.4992C57.5909 22.1096 57.3988 21.6266 57.3988 21.0502Z" fill="#00EB5E"/>
</svg>
