<svg width="16" height="16" viewBox="0 0 16 16" fill="none" xmlns="http://www.w3.org/2000/svg">
<path d="M14.079 7.62357L8.161 13.5415C7.436 14.2665 6.4527 14.6738 5.42741 14.6738C4.40211 14.6738 3.41881 14.2665 2.69381 13.5415C1.96882 12.8165 1.56152 11.8332 1.56152 10.8079C1.56152 9.78263 1.96882 8.79933 2.69381 8.07433L8.61177 2.15638C9.0951 1.67305 9.75063 1.40152 10.4342 1.40152C11.1177 1.40152 11.7732 1.67305 12.2566 2.15638C12.7399 2.63971 13.0114 3.29524 13.0114 3.97877C13.0114 4.66231 12.7399 5.31784 12.2566 5.80117L6.33216 11.7191C6.0905 11.9608 5.76273 12.0966 5.42097 12.0966C5.0792 12.0966 4.75143 11.9608 4.50977 11.7191C4.2681 11.4775 4.13234 11.1497 4.13234 10.8079C4.13234 10.4662 4.2681 10.1384 4.50977 9.89673L9.97695 4.43598" stroke="#A5B3FF" stroke-width="0.643956" stroke-linecap="round" stroke-linejoin="round"/>
</svg>
