<svg width="40" height="40" viewBox="0 0 40 40" fill="none" xmlns="http://www.w3.org/2000/svg">
<rect x="0.00683594" y="0.169464" width="39.5551" height="39.5859" rx="2.82303" fill="#3A457F"/>
<path d="M27.5614 23.8385V26.1848C27.5623 26.4027 27.5177 26.6183 27.4304 26.8178C27.3432 27.0174 27.2152 27.1966 27.0547 27.3438C26.8942 27.4911 26.7047 27.6032 26.4983 27.673C26.292 27.7427 26.0734 27.7687 25.8564 27.7491C23.4498 27.4875 21.138 26.6652 19.1069 25.348C17.2172 24.1472 15.615 22.5451 14.4142 20.6554C13.0925 18.615 12.2699 16.292 12.0132 13.8745C11.9936 13.6582 12.0193 13.4403 12.0887 13.2345C12.158 13.0287 12.2694 12.8396 12.4158 12.6792C12.5622 12.5188 12.7404 12.3906 12.939 12.3029C13.1377 12.2152 13.3524 12.1697 13.5696 12.1695H15.9159C16.2954 12.1658 16.6634 12.3002 16.9512 12.5477C17.239 12.7952 17.427 13.1389 17.4801 13.5148C17.5791 14.2656 17.7628 15.0029 18.0276 15.7125C18.1328 15.9924 18.1556 16.2966 18.0932 16.5891C18.0308 16.8816 17.8859 17.1501 17.6756 17.3627L16.6823 18.356C17.7957 20.314 19.4169 21.9352 21.375 23.0486L22.3682 22.0553C22.5809 21.8451 22.8494 21.7001 23.1418 21.6378C23.4343 21.5754 23.7385 21.5982 24.0185 21.7034C24.7281 21.9682 25.4653 22.1518 26.2162 22.2509C26.5961 22.3045 26.9431 22.4958 27.1911 22.7886C27.4391 23.0813 27.5709 23.455 27.5614 23.8385Z" stroke="#C7CFF8" stroke-width="0.834244" stroke-linecap="round" stroke-linejoin="round"/>
</svg>
