<svg width="20" height="21" viewBox="0 0 20 21" fill="none" xmlns="http://www.w3.org/2000/svg">
<rect y="0.979492" width="20" height="20.0156" rx="10" fill="#3A457F"/>
<path d="M13.9323 12.947V14.1334C13.9327 14.2435 13.9102 14.3525 13.866 14.4534C13.8219 14.5544 13.7572 14.6449 13.6761 14.7194C13.5949 14.7939 13.4991 14.8505 13.3948 14.8858C13.2904 14.9211 13.1799 14.9342 13.0702 14.9243C11.8533 14.7921 10.6844 14.3763 9.65745 13.7103C8.70198 13.1031 7.8919 12.293 7.28475 11.3376C6.61643 10.3059 6.20052 9.13133 6.07071 7.909C6.06083 7.79964 6.07383 7.68943 6.10888 7.58537C6.14392 7.48131 6.20025 7.38569 6.27428 7.3046C6.34831 7.2235 6.43841 7.15871 6.53885 7.11435C6.63928 7.06998 6.74786 7.04702 6.85766 7.04691H8.04401C8.23593 7.04502 8.42198 7.11298 8.5675 7.23813C8.71301 7.36327 8.80806 7.53705 8.83492 7.72709C8.88499 8.10675 8.97785 8.47952 9.11173 8.83831C9.16494 8.97985 9.17645 9.13367 9.14491 9.28156C9.11337 9.42944 9.0401 9.56519 8.93378 9.67271L8.43156 10.1749C8.9945 11.165 9.81423 11.9847 10.8043 12.5476L11.3065 12.0454C11.414 11.9391 11.5497 11.8658 11.6976 11.8343C11.8455 11.8027 11.9993 11.8143 12.1409 11.8675C12.4997 12.0013 12.8724 12.0942 13.2521 12.1443C13.4442 12.1714 13.6196 12.2681 13.745 12.4161C13.8705 12.5642 13.9371 12.7531 13.9323 12.947Z" stroke="#C7CFF8" stroke-width="0.421814" stroke-linecap="round" stroke-linejoin="round"/>
</svg>
