<svg width="26" height="27" viewBox="0 0 26 27" fill="none" xmlns="http://www.w3.org/2000/svg">
<path d="M5.83371 11.7045C8.55992 11.7045 10.77 9.49449 10.77 6.76828C10.77 4.04207 8.55992 1.83203 5.83371 1.83203C3.1075 1.83203 0.897461 4.04207 0.897461 6.76828C0.897461 9.49449 3.1075 11.7045 5.83371 11.7045Z" fill="#D7E0FF"/>
<path d="M19.2962 11.7045C22.0225 11.7045 24.2325 9.49449 24.2325 6.76828C24.2325 4.04207 22.0225 1.83203 19.2962 1.83203C16.57 1.83203 14.36 4.04207 14.36 6.76828C14.36 9.49449 16.57 11.7045 19.2962 11.7045Z" fill="#D7E0FF"/>
<path d="M5.83371 25.1655C8.55992 25.1655 10.77 22.9555 10.77 20.2292C10.77 17.503 8.55992 15.293 5.83371 15.293C3.1075 15.293 0.897461 17.503 0.897461 20.2292C0.897461 22.9555 3.1075 25.1655 5.83371 25.1655Z" fill="#D7E0FF"/>
<path d="M19.2962 25.1655C22.0225 25.1655 24.2325 22.9555 24.2325 20.2292C24.2325 17.503 22.0225 15.293 19.2962 15.293C16.57 15.293 14.36 17.503 14.36 20.2292C14.36 22.9555 16.57 25.1655 19.2962 25.1655Z" fill="#D7E0FF"/>
<path d="M5.83371 11.7045C8.55992 11.7045 10.77 9.49449 10.77 6.76828C10.77 4.04207 8.55992 1.83203 5.83371 1.83203C3.1075 1.83203 0.897461 4.04207 0.897461 6.76828C0.897461 9.49449 3.1075 11.7045 5.83371 11.7045Z" stroke="#4147D5" stroke-linecap="round" stroke-linejoin="round"/>
<path d="M19.2962 11.7045C22.0225 11.7045 24.2325 9.49449 24.2325 6.76828C24.2325 4.04207 22.0225 1.83203 19.2962 1.83203C16.57 1.83203 14.36 4.04207 14.36 6.76828C14.36 9.49449 16.57 11.7045 19.2962 11.7045Z" stroke="#4147D5" stroke-linecap="round" stroke-linejoin="round"/>
<path d="M5.83371 25.1655C8.55992 25.1655 10.77 22.9555 10.77 20.2292C10.77 17.503 8.55992 15.293 5.83371 15.293C3.1075 15.293 0.897461 17.503 0.897461 20.2292C0.897461 22.9555 3.1075 25.1655 5.83371 25.1655Z" stroke="#4147D5" stroke-linecap="round" stroke-linejoin="round"/>
<path d="M19.2962 25.1655C22.0225 25.1655 24.2325 22.9555 24.2325 20.2292C24.2325 17.503 22.0225 15.293 19.2962 15.293C16.57 15.293 14.36 17.503 14.36 20.2292C14.36 22.9555 16.57 25.1655 19.2962 25.1655Z" stroke="#4147D5" stroke-linecap="round" stroke-linejoin="round"/>
</svg>
