<svg width="17" height="17" viewBox="0 0 17 17" fill="none" xmlns="http://www.w3.org/2000/svg">
<path d="M5.66669 12.0417L8.50002 14.8751L11.3334 12.0417" stroke="#000E56" stroke-width="0.708333" stroke-linecap="round" stroke-linejoin="round"/>
<path d="M8.5 8.5V14.875" stroke="#000E56" stroke-width="0.708333" stroke-linecap="round" stroke-linejoin="round"/>
<path d="M14.79 12.8137C15.4058 12.3807 15.8676 11.7626 16.1084 11.0493C16.3492 10.3361 16.3564 9.56459 16.129 8.84691C15.9016 8.12923 15.4515 7.50268 14.8439 7.05818C14.2363 6.61368 13.5028 6.37436 12.75 6.37495H11.8575C11.6444 5.5447 11.2458 4.77359 10.6917 4.11968C10.1375 3.46577 9.44217 2.9461 8.65809 2.59979C7.87401 2.25348 7.02158 2.08956 6.16498 2.12036C5.30838 2.15117 4.46993 2.37589 3.71275 2.77763C2.95557 3.17936 2.29939 3.74764 1.79362 4.43967C1.28784 5.13169 0.945645 5.92944 0.792793 6.77286C0.639941 7.61627 0.680415 8.48337 0.911169 9.30888C1.14192 10.1344 1.55694 10.8968 2.12498 11.5387" stroke="#000E56" stroke-width="0.708333" stroke-linecap="round" stroke-linejoin="round"/>
</svg>
