<svg width="27" height="27" viewBox="0 0 27 27" fill="none" xmlns="http://www.w3.org/2000/svg">
<g clip-path="url(#clip0_471_266)">
<path d="M14.543 25.136C14.114 25.3016 13.6389 25.3016 13.21 25.136C9.86326 23.8512 6.98505 21.5813 4.95552 18.6262C2.92597 15.6711 1.84061 12.1699 1.84278 8.58504V3.03103C1.84278 2.54001 2.03783 2.06912 2.38502 1.72193C2.73222 1.37474 3.20312 1.17969 3.69412 1.17969H24.0588C24.5499 1.17969 25.0207 1.37474 25.3679 1.72193C25.7151 2.06912 25.9102 2.54001 25.9102 3.03103V8.58504C25.9124 12.1699 24.8269 15.6711 22.7975 18.6262C20.768 21.5813 17.8897 23.8512 14.543 25.136Z" fill="#D7E0FF"/>
<path d="M14.543 25.136C14.114 25.3016 13.6389 25.3016 13.21 25.136C9.86326 23.8512 6.98505 21.5813 4.95552 18.6262C2.92597 15.6711 1.84061 12.1699 1.84278 8.58504V3.03103C1.84278 2.54001 2.03783 2.06912 2.38502 1.72193C2.73222 1.37474 3.20312 1.17969 3.69412 1.17969H24.0588C24.5499 1.17969 25.0207 1.37474 25.3679 1.72193C25.7151 2.06912 25.9102 2.54001 25.9102 3.03103V8.58504C25.9124 12.1699 24.8269 15.6711 22.7975 18.6262C20.768 21.5813 17.8897 23.8512 14.543 25.136Z" stroke="#4147D5" stroke-linecap="round" stroke-linejoin="round"/>
</g>
<defs>
<clipPath id="clip0_471_266">
<rect width="26.1338" height="26.1338" fill="white" transform="translate(0.815918 0.148438)"/>
</clipPath>
</defs>
</svg>
