<svg width="24" height="24" viewBox="0 0 24 24" fill="none" xmlns="http://www.w3.org/2000/svg">
<g clip-path="url(#clip0_37_6)">
<path d="M23.5 18.5C23.5 19.4889 23.2068 20.4556 22.6574 21.2779C22.1079 22.1001 21.3271 22.741 20.4134 23.1194C19.4998 23.4978 18.4945 23.5969 17.5246 23.4039C16.5546 23.211 15.6637 22.7348 14.9645 22.0355C14.2652 21.3363 13.789 20.4454 13.5961 19.4755C13.4031 18.5055 13.5022 17.5002 13.8806 16.5866C14.259 15.673 14.8999 14.8921 15.7222 14.3427C16.5444 13.7932 17.5111 13.5 18.5 13.5" stroke="#00D622" stroke-linecap="round" stroke-linejoin="round"/>
<path d="M16.5 18L18.12 19.215C18.2225 19.2919 18.3507 19.3264 18.478 19.3115C18.6053 19.2966 18.722 19.2335 18.804 19.135L23.5 13.5" stroke="#00D622" stroke-linecap="round" stroke-linejoin="round"/>
<path d="M0.5 13.5C0.509723 12.5717 0.70169 11.6543 1.065 10.8C1.465 10 3.128 9.45 5.218 8.676C5.783 8.467 5.69 6.992 5.44 6.716C5.04164 6.28434 4.73904 5.77333 4.55205 5.2165C4.36507 4.65968 4.29791 4.06961 4.355 3.485C4.31919 3.11256 4.36045 2.73673 4.47624 2.38093C4.59202 2.02514 4.77983 1.69699 5.02797 1.41696C5.27611 1.13692 5.57927 0.910979 5.91855 0.753221C6.25782 0.595464 6.62595 0.509267 7 0.5C7.37405 0.509267 7.74218 0.595464 8.08145 0.753221C8.42073 0.910979 8.72389 1.13692 8.97203 1.41696C9.22017 1.69699 9.40798 2.02514 9.52376 2.38093C9.63955 2.73673 9.68081 3.11256 9.645 3.485C9.70223 4.06977 9.63515 4.66003 9.44816 5.21704C9.26117 5.77405 8.95849 6.28522 8.56 6.717C8.31 6.993 8.217 8.468 8.782 8.677C10.872 9.451 12.536 10.004 12.935 10.801C13.2983 11.6553 13.4903 12.5727 13.5 13.501L0.5 13.5Z" stroke="#00D622" stroke-linecap="round" stroke-linejoin="round"/>
<path d="M10.912 0.737017C11.253 0.579548 11.6244 0.498654 12 0.500017C12.374 0.509283 12.7422 0.595481 13.0815 0.753238C13.4207 0.910996 13.7239 1.13693 13.972 1.41697C14.2202 1.69701 14.408 2.02515 14.5238 2.38095C14.6395 2.73675 14.6808 3.11257 14.645 3.48502C14.7022 4.06978 14.6352 4.66004 14.4482 5.21706C14.2612 5.77407 13.9585 6.28524 13.56 6.71702C13.31 6.99302 13.217 8.46802 13.782 8.67702C15.872 9.45102 17.536 10.004 17.935 10.801C17.97 10.872 18.003 10.944 18.035 11.018" stroke="#00D622" stroke-linecap="round" stroke-linejoin="round"/>
</g>
<defs>
<clipPath id="clip0_37_6">
<rect width="24" height="24" fill="white"/>
</clipPath>
</defs>
</svg>
