<svg width="24" height="24" viewBox="0 0 24 24" fill="none" xmlns="http://www.w3.org/2000/svg">
<g clip-path="url(#clip0_37_4)">
<path d="M8.722 3.821C8.722 4.25712 8.8079 4.68897 8.9748 5.09189C9.14169 5.49481 9.38631 5.86092 9.6947 6.1693C10.0031 6.47768 10.3692 6.72231 10.7721 6.8892C11.175 7.0561 11.6069 7.142 12.043 7.142C12.4791 7.142 12.911 7.0561 13.3139 6.8892C13.7168 6.72231 14.0829 6.47768 14.3913 6.1693C14.6997 5.86092 14.9443 5.49481 15.1112 5.09189C15.2781 4.68897 15.364 4.25712 15.364 3.821C15.364 3.38488 15.2781 2.95303 15.1112 2.55011C14.9443 2.14719 14.6997 1.78108 14.3913 1.4727C14.0829 1.16432 13.7168 0.919692 13.3139 0.752796C12.911 0.5859 12.4791 0.5 12.043 0.5C11.6069 0.5 11.175 0.5859 10.7721 0.752796C10.3692 0.919692 10.0031 1.16432 9.6947 1.4727C9.38631 1.78108 9.14169 2.14719 8.9748 2.55011C8.8079 2.95303 8.722 3.38488 8.722 3.821Z" stroke="#00D622" stroke-linecap="round" stroke-linejoin="round"/>
<path d="M17.21 12.253C16.8283 11.2044 16.1332 10.2985 15.2191 9.65846C14.3049 9.01838 13.216 8.67505 12.1 8.67505C10.984 8.67505 9.8951 9.01838 8.98096 9.65846C8.06681 10.2985 7.37171 11.2044 6.99001 12.253" stroke="#00D622" stroke-linecap="round" stroke-linejoin="round"/>
<path d="M3.569 23.5001L1.511 20.9271C0.857045 20.1123 0.500427 19.0989 0.5 18.0541V12.7691C0.5 12.3625 0.661512 11.9726 0.949005 11.6851C1.2365 11.3976 1.62642 11.2361 2.033 11.2361C2.4395 11.2363 2.82927 11.3979 3.1167 11.6854C3.40414 11.9728 3.56574 12.3626 3.566 12.7691V16.6001" stroke="#00D622" stroke-linecap="round" stroke-linejoin="round"/>
<path d="M8.168 23.3611V20.3001C8.16785 19.3913 7.89852 18.503 7.394 17.7471L6.227 15.9971C6.12723 15.8312 5.99485 15.6872 5.83786 15.5739C5.68086 15.4605 5.50252 15.3802 5.31361 15.3378C5.1247 15.2954 4.92915 15.2917 4.73877 15.327C4.5484 15.3622 4.36715 15.4358 4.206 15.5431C3.9158 15.7364 3.70625 16.0291 3.61674 16.3661C3.52724 16.7032 3.56396 17.0613 3.72 17.3731L5.102 19.6731" stroke="#00D622" stroke-linecap="round" stroke-linejoin="round"/>
<path d="M20.431 23.5001L22.489 20.9271C23.143 20.1123 23.4996 19.0989 23.5 18.0541V12.7691C23.5 12.5678 23.4603 12.3684 23.3833 12.1824C23.3063 11.9964 23.1933 11.8274 23.051 11.6851C22.9086 11.5427 22.7396 11.4298 22.5537 11.3528C22.3677 11.2757 22.1683 11.2361 21.967 11.2361C21.5605 11.2363 21.1707 11.3979 20.8833 11.6854C20.5959 11.9728 20.4343 12.3626 20.434 12.7691V16.6001" stroke="#00D622" stroke-linecap="round" stroke-linejoin="round"/>
<path d="M15.832 23.3611V20.3001C15.8322 19.3913 16.1015 18.503 16.606 17.7471L17.773 15.9971C17.8728 15.8312 18.0052 15.6872 18.1621 15.5739C18.3191 15.4605 18.4975 15.3802 18.6864 15.3378C18.8753 15.2954 19.0709 15.2917 19.2612 15.327C19.4516 15.3622 19.6328 15.4358 19.794 15.5431C20.0842 15.7364 20.2938 16.0291 20.3833 16.3661C20.4728 16.7032 20.436 17.0613 20.28 17.3731L18.898 19.6731" stroke="#00D622" stroke-linecap="round" stroke-linejoin="round"/>
<path d="M9.711 1.45703C10.845 3.55703 13.36 3.82103 15.364 3.82103" stroke="#00D622" stroke-linecap="round" stroke-linejoin="round"/>
</g>
<defs>
<clipPath id="clip0_37_4">
<rect width="24" height="24" fill="white"/>
</clipPath>
</defs>
</svg>
