<svg width="24" height="24" viewBox="0 0 24 24" fill="none" xmlns="http://www.w3.org/2000/svg">
<g clip-path="url(#clip0_37_3)">
<path d="M13.15 6.7999L13.55 8.0999C13.65 8.5999 14.15 8.7999 14.65 8.6999L15.95 8.3999C17.15 8.0999 17.95 9.4999 17.15 10.3999L16.25 11.3999C15.95 11.7999 15.95 12.2999 16.25 12.5999L17.15 13.5999C17.95 14.4999 17.15 15.8999 15.95 15.5999L14.65 15.2999C14.15 15.1999 13.75 15.4999 13.55 15.8999L13.15 17.1999C12.75 18.3999 11.15 18.3999 10.85 17.1999L10.45 15.8999C10.35 15.3999 9.84998 15.1999 9.34998 15.2999L8.04999 15.5999C6.84999 15.8999 6.04998 14.4999 6.84998 13.5999L7.74999 12.5999C8.04999 12.1999 8.04999 11.6999 7.74999 11.3999L6.84998 10.3999C6.04998 9.4999 6.84999 8.0999 8.04999 8.3999L9.34998 8.6999C9.84998 8.7999 10.25 8.4999 10.45 8.0999L10.85 6.7999C11.15 5.5999 12.75 5.5999 13.15 6.7999Z" stroke="#00D622" stroke-miterlimit="10" stroke-linecap="round" stroke-linejoin="round"/>
<path d="M4.05581 19.7499C-0.351936 15.4499 -0.351936 8.44994 4.05581 4.14994C7.43849 0.849936 12.3588 0.0499375 16.459 1.84994" stroke="#00D622" stroke-miterlimit="10" stroke-linecap="round" stroke-linejoin="round"/>
<path d="M22.9169 4.45L19.9442 4.25L19.7392 7.05" stroke="#00D622" stroke-miterlimit="10" stroke-linecap="round" stroke-linejoin="round"/>
<path d="M1.18555 19.4502L4.05571 19.7502L4.36323 16.9502" stroke="#00D622" stroke-miterlimit="10" stroke-linecap="round" stroke-linejoin="round"/>
<path d="M19.9442 4.25C24.352 8.55 24.352 15.55 19.9442 19.85C16.5615 23.15 11.6412 23.95 7.54102 22.15" stroke="#00D622" stroke-miterlimit="10" stroke-linecap="round" stroke-linejoin="round"/>
<path d="M12 13.4189C12.7836 13.4189 13.4189 12.7836 13.4189 12C13.4189 11.2163 12.7836 10.5811 12 10.5811C11.2163 10.5811 10.5811 11.2163 10.5811 12C10.5811 12.7836 11.2163 13.4189 12 13.4189Z" stroke="#00D622" stroke-miterlimit="10" stroke-linecap="round" stroke-linejoin="round"/>
</g>
<defs>
<clipPath id="clip0_37_3">
<rect width="24" height="24" fill="white"/>
</clipPath>
</defs>
</svg>
