<svg width="214" height="214" viewBox="0 0 214 214" fill="none" xmlns="http://www.w3.org/2000/svg">
<path d="M4.13672 105.001C4.13672 184.182 89.8527 233.671 158.426 194.08C190.251 175.706 209.855 141.749 209.855 105.001C209.855 25.82 124.139 -23.6684 55.5663 15.9223C23.7415 34.2963 4.13672 68.253 4.13672 105.001Z" fill="#3D5CFF"/>
<path d="M38.418 169.495L54.0517 23.1328L171.234 35.6499L155.6 182.012L38.418 169.495Z" fill="white" stroke="#020064" stroke-width="2.14" stroke-linecap="round" stroke-linejoin="round"/>
<path d="M89.3468 96.9043L96.1021 102.947L105.154 103.436L107.982 112.045L115.573 116.995L113.719 125.867L117.821 133.947L111.78 140.702L111.289 149.754L102.68 152.582L97.7326 160.176L88.8608 158.319L80.7787 162.421L74.0233 156.38L64.9743 155.889L62.1431 147.28L54.5521 142.332L56.4062 133.461L52.3047 125.378L58.3476 118.623L58.8362 109.574L67.4456 106.743L72.3931 99.1517L81.2647 101.006L89.3468 96.9043Z" fill="#B0D9FF" stroke="#020064" stroke-width="2.14" stroke-linecap="round" stroke-linejoin="round"/>
<path d="M65.5117 61.6334L67.512 42.9062L153.903 52.1344L151.903 70.8613L65.5117 61.6334Z" fill="#B0D9FF" stroke="#020064" stroke-width="2.14" stroke-linecap="round" stroke-linejoin="round"/>
<path d="M98.3203 79.418L150.393 84.9803" stroke="#020064" stroke-width="2.14" stroke-linecap="round" stroke-linejoin="round"/>
<path d="M122.691 96.3555L148.887 99.1557" stroke="#020064" stroke-width="2.14" stroke-linecap="round" stroke-linejoin="round"/>
<path d="M124.875 111.762L147.283 114.156" stroke="#020064" stroke-width="2.14" stroke-linecap="round" stroke-linejoin="round"/>
<path d="M77.6333 147.628L71.5492 147.302L69.6489 141.511L64.5393 138.181L65.7864 132.215L63.0273 126.779L67.0901 122.237L67.4218 116.151L73.2078 114.248L76.5404 109.141L82.5037 110.388L87.9423 107.629L92.4836 111.692L98.573 112.024L100.476 117.812L105.578 121.14L104.33 127.108L107.09 132.544L103.029 137.088L102.7 143.175L96.9091 145.077L93.5816 150.184L87.6132 148.935L82.1771 151.694L77.6333 147.628Z" stroke="#020064" stroke-width="2.14" stroke-linecap="round" stroke-linejoin="round"/>
<path d="M155.98 178.461L151.068 148.195C150.239 143.063 144.165 140.754 140.135 144.038C138.265 145.562 137.35 147.968 137.735 150.35L139.818 163.238C141.554 173.974 129.478 173.349 132.533 192.24L135.495 210.574L172.231 204.637C170.982 199.502 170.761 194.171 171.581 188.951C173.185 180.082 174.993 172.75 173.178 161.503C171.337 150.103 167.986 145.228 160.745 133.844L155.98 178.461Z" fill="white"/>
<path d="M172.231 204.637C170.982 199.502 170.761 194.171 171.581 188.951C173.185 180.082 174.993 172.75 173.178 161.503C171.337 150.103 167.986 145.228 160.745 133.844L155.98 178.461L151.068 148.195C150.239 143.063 144.165 140.754 140.135 144.038C138.265 145.562 137.35 147.968 137.735 150.35L139.818 163.238C141.554 173.974 129.478 173.349 132.533 192.24L135.495 210.574" stroke="#020064" stroke-width="2.14" stroke-linecap="round" stroke-linejoin="round"/>
</svg>
