<svg width="42" height="42" viewBox="0 0 42 42" fill="none" xmlns="http://www.w3.org/2000/svg">
<circle cx="21" cy="21" r="21" fill="#3E5DFF"/>
<path d="M30.8881 26.9201V29.9201C30.8892 30.1986 30.8322 30.4743 30.7206 30.7294C30.6091 30.9846 30.4454 31.2137 30.2402 31.402C30.035 31.5902 29.7927 31.7336 29.5289 31.8228C29.265 31.912 28.9855 31.9452 28.7081 31.9201C25.631 31.5857 22.6751 30.5342 20.0781 28.8501C17.6619 27.3148 15.6135 25.2663 14.0781 22.8501C12.3881 20.2413 11.3364 17.2711 11.0081 14.1801C10.9831 13.9036 11.016 13.6249 11.1046 13.3617C11.1932 13.0986 11.3357 12.8568 11.5229 12.6517C11.7101 12.4466 11.9379 12.2828 12.1919 12.1706C12.4459 12.0584 12.7205 12.0004 12.9981 12.0001H15.9981C16.4834 11.9953 16.9539 12.1672 17.3219 12.4836C17.6898 12.8001 17.9302 13.2395 17.9981 13.7201C18.1247 14.6802 18.3596 15.6228 18.6981 16.5301C18.8327 16.888 18.8618 17.277 18.782 17.651C18.7023 18.0249 18.517 18.3682 18.2481 18.6401L16.9781 19.9101C18.4017 22.4136 20.4746 24.4865 22.9781 25.9101L24.2481 24.6401C24.52 24.3712 24.8633 24.1859 25.2372 24.1062C25.6112 24.0264 26.0002 24.0556 26.3581 24.1901C27.2654 24.5286 28.2081 24.7635 29.1681 24.8901C29.6539 24.9586 30.0975 25.2033 30.4146 25.5776C30.7318 25.9519 30.9003 26.4297 30.8881 26.9201Z" stroke="#AEBBFF" stroke-width="1.5" stroke-linecap="round" stroke-linejoin="round"/>
</svg>
