<svg width="20" height="20" viewBox="0 0 20 20" fill="none" xmlns="http://www.w3.org/2000/svg">
<path d="M18.3351 14.1004V16.6004C18.3361 16.8325 18.2886 17.0622 18.1956 17.2749C18.1026 17.4875 17.9662 17.6784 17.7952 17.8353C17.6242 17.9922 17.4223 18.1116 17.2024 18.186C16.9826 18.2603 16.7496 18.288 16.5185 18.2671C13.9542 17.9884 11.491 17.1122 9.32682 15.7087C7.31334 14.4293 5.60626 12.7222 4.32682 10.7087C2.91846 8.53474 2.04202 6.05957 1.76848 3.48374C1.74766 3.2533 1.77505 3.02104 1.8489 2.80176C1.92275 2.58248 2.04146 2.38098 2.19745 2.21009C2.35345 2.0392 2.54332 1.90266 2.75498 1.80917C2.96663 1.71569 3.19543 1.66729 3.42682 1.66707H5.92682C6.33124 1.66309 6.72331 1.80631 7.02995 2.07002C7.33659 2.33373 7.53688 2.69995 7.59348 3.10041C7.699 3.90046 7.89469 4.68601 8.17682 5.44207C8.28894 5.74034 8.3132 6.0645 8.24674 6.37614C8.18028 6.68778 8.02587 6.97383 7.80182 7.20041L6.74348 8.25874C7.92978 10.345 9.65719 12.0724 11.7435 13.2587L12.8018 12.2004C13.0284 11.9764 13.3144 11.8219 13.6261 11.7555C13.9377 11.689 14.2619 11.7133 14.5601 11.8254C15.3162 12.1075 16.1018 12.3032 16.9018 12.4087C17.3066 12.4658 17.6763 12.6697 17.9406 12.9817C18.2049 13.2936 18.3453 13.6917 18.3351 14.1004Z" stroke="#959CBC" stroke-linecap="round" stroke-linejoin="round"/>
</svg>
