<svg width="17" height="18" viewBox="0 0 17 18" fill="none" xmlns="http://www.w3.org/2000/svg">
<g clip-path="url(#clip0_614_2933)">
<path d="M8.5 11.1328C9.6736 11.1328 10.625 10.1814 10.625 9.00781C10.625 7.83421 9.6736 6.88281 8.5 6.88281C7.32639 6.88281 6.375 7.83421 6.375 9.00781C6.375 10.1814 7.32639 11.1328 8.5 11.1328Z" stroke="#BCC7FF" stroke-width="0.53" stroke-linecap="round" stroke-linejoin="round"/>
<path d="M13.7416 11.1335C13.6473 11.3471 13.6192 11.5841 13.6608 11.8139C13.7025 12.0437 13.812 12.2557 13.9753 12.4226L14.0178 12.4651C14.1496 12.5967 14.254 12.7529 14.3253 12.9249C14.3966 13.0969 14.4333 13.2812 14.4333 13.4674C14.4333 13.6536 14.3966 13.8379 14.3253 14.0099C14.254 14.1819 14.1496 14.3381 14.0178 14.4697C13.8863 14.6014 13.73 14.7059 13.558 14.7772C13.3861 14.8485 13.2017 14.8852 13.0155 14.8852C12.8294 14.8852 12.645 14.8485 12.473 14.7772C12.3011 14.7059 12.1448 14.6014 12.0133 14.4697L11.9708 14.4272C11.8038 14.2639 11.5918 14.1544 11.362 14.1127C11.1322 14.071 10.8952 14.0992 10.6816 14.1935C10.4721 14.2833 10.2934 14.4323 10.1676 14.6224C10.0417 14.8124 9.97416 15.0351 9.97325 15.263V15.3835C9.97325 15.7592 9.824 16.1195 9.55832 16.3852C9.29264 16.6509 8.93231 16.8001 8.55659 16.8001C8.18086 16.8001 7.82053 16.6509 7.55485 16.3852C7.28917 16.1195 7.13992 15.7592 7.13992 15.3835V15.3197C7.13443 15.0853 7.05854 14.8579 6.92211 14.6671C6.78568 14.4764 6.59502 14.3311 6.37492 14.2501C6.16127 14.1558 5.92428 14.1277 5.6945 14.1694C5.46472 14.211 5.25269 14.3206 5.08575 14.4839L5.04325 14.5264C4.91168 14.6581 4.75544 14.7626 4.58346 14.8339C4.41148 14.9052 4.22713 14.9419 4.04096 14.9419C3.85479 14.9419 3.67044 14.9052 3.49846 14.8339C3.32648 14.7626 3.17024 14.6581 3.03867 14.5264C2.90695 14.3948 2.80246 14.2386 2.73117 14.0666C2.65987 13.8946 2.62318 13.7103 2.62318 13.5241C2.62318 13.3379 2.65987 13.1536 2.73117 12.9816C2.80246 12.8096 2.90695 12.6534 3.03867 12.5218L3.08117 12.4793C3.24447 12.3124 3.35401 12.1003 3.39567 11.8705C3.43734 11.6408 3.40921 11.4038 3.31492 11.1901C3.22513 10.9806 3.07604 10.802 2.886 10.6761C2.69596 10.5502 2.47327 10.4827 2.24534 10.4818H2.12492C1.7492 10.4818 1.38886 10.3325 1.12318 10.0669C0.857507 9.80119 0.708252 9.44085 0.708252 9.06513C0.708252 8.68941 0.857507 8.32907 1.12318 8.0634C1.38886 7.79772 1.7492 7.64846 2.12492 7.64846H2.18867C2.42312 7.64298 2.65051 7.56709 2.84126 7.43066C3.03201 7.29423 3.1773 7.10357 3.25825 6.88346C3.35254 6.66982 3.38067 6.43283 3.33901 6.20305C3.29734 5.97327 3.1878 5.76124 3.0245 5.5943L2.982 5.5518C2.85029 5.42023 2.74579 5.26398 2.6745 5.092C2.60321 4.92002 2.56651 4.73568 2.56651 4.54951C2.56651 4.36333 2.60321 4.17899 2.6745 4.00701C2.74579 3.83503 2.85029 3.67878 2.982 3.54721C3.11357 3.4155 3.26981 3.311 3.44179 3.23971C3.61378 3.16842 3.79812 3.13172 3.98429 3.13172C4.17047 3.13172 4.35481 3.16842 4.52679 3.23971C4.69877 3.311 4.85501 3.4155 4.98659 3.54721L5.02909 3.58971C5.19602 3.75301 5.40805 3.86255 5.63783 3.90422C5.86761 3.94588 6.10461 3.91775 6.31825 3.82346H6.37492C6.58442 3.73367 6.7631 3.58458 6.88895 3.39454C7.0148 3.2045 7.08234 2.98181 7.08325 2.75388V2.63346C7.08325 2.25774 7.23251 1.89741 7.49818 1.63173C7.76386 1.36605 8.1242 1.2168 8.49992 1.2168C8.87564 1.2168 9.23598 1.36605 9.50165 1.63173C9.76733 1.89741 9.91659 2.25774 9.91659 2.63346V2.69721C9.91749 2.92515 9.98503 3.14784 10.1109 3.33788C10.2367 3.52792 10.4154 3.67701 10.6249 3.7668C10.8386 3.86109 11.0756 3.88921 11.3053 3.84755C11.5351 3.80589 11.7471 3.69634 11.9141 3.53305L11.9566 3.49055C12.0882 3.35883 12.2444 3.25434 12.4164 3.18305C12.5884 3.11175 12.7727 3.07506 12.9589 3.07506C13.145 3.07506 13.3294 3.11175 13.5014 3.18305C13.6734 3.25434 13.8296 3.35883 13.9612 3.49055C14.0929 3.62212 14.1974 3.77836 14.2687 3.95034C14.34 4.12232 14.3767 4.30667 14.3767 4.49284C14.3767 4.67901 14.34 4.86336 14.2687 5.03534C14.1974 5.20732 14.0929 5.36356 13.9612 5.49513L13.9187 5.53763C13.7554 5.70457 13.6458 5.9166 13.6042 6.14638C13.5625 6.37616 13.5906 6.61315 13.6849 6.8268V6.88346C13.7747 7.09297 13.9238 7.27164 14.1138 7.3975C14.3039 7.52335 14.5266 7.59089 14.7545 7.5918H14.8749C15.2506 7.5918 15.611 7.74105 15.8767 8.00673C16.1423 8.27241 16.2916 8.63274 16.2916 9.00846C16.2916 9.38419 16.1423 9.74452 15.8767 10.0102C15.611 10.2759 15.2506 10.4251 14.8749 10.4251H14.8112C14.5832 10.426 14.3605 10.4936 14.1705 10.6194C13.9805 10.7453 13.8314 10.924 13.7416 11.1335Z" stroke="#BCC7FF" stroke-width="0.53" stroke-linecap="round" stroke-linejoin="round"/>
</g>
<defs>
<clipPath id="clip0_614_2933">
<rect width="17" height="17" fill="white" transform="translate(0 0.507812)"/>
</clipPath>
</defs>
</svg>
