<svg width="16" height="17" viewBox="0 0 16 17" fill="none" xmlns="http://www.w3.org/2000/svg">
<path d="M14.0889 7.83963L8.1709 13.7576C7.44591 14.4826 6.46261 14.8899 5.43731 14.8899C4.41201 14.8899 3.42871 14.4826 2.70372 13.7576C1.97872 13.0326 1.57143 12.0493 1.57143 11.024C1.57143 9.99869 1.97872 9.01539 2.70372 8.2904L8.62167 2.37244C9.105 1.88912 9.76053 1.61758 10.4441 1.61758C11.1276 1.61758 11.7831 1.88912 12.2665 2.37244C12.7498 2.85577 13.0213 3.51131 13.0213 4.19484C13.0213 4.87837 12.7498 5.53391 12.2665 6.01723L6.34207 11.9352C6.1004 12.1769 5.77264 12.3126 5.43087 12.3126C5.0891 12.3126 4.76134 12.1769 4.51967 11.9352C4.27801 11.6935 4.14224 11.3658 4.14224 11.024C4.14224 10.6822 4.27801 10.3545 4.51967 10.1128L9.98686 4.65205" stroke="#5464B9" stroke-width="0.643956" stroke-linecap="round" stroke-linejoin="round"/>
</svg>
