<svg width="32" height="32" viewBox="0 0 32 32" fill="none" xmlns="http://www.w3.org/2000/svg">
<rect width="32" height="32" rx="16" fill="#0029FF"/>
<g clip-path="url(#clip0_637_4688)">
<path d="M22.665 19.2797V21.2797C22.6657 21.4654 22.6277 21.6492 22.5533 21.8193C22.479 21.9894 22.3699 22.1421 22.233 22.2676C22.0962 22.3932 21.9347 22.4887 21.7588 22.5482C21.5829 22.6077 21.3966 22.6298 21.2117 22.6131C19.1602 22.3902 17.1897 21.6892 15.4583 20.5664C13.8475 19.5428 12.4819 18.1772 11.4583 16.5664C10.3316 14.8272 9.63049 12.8471 9.41166 10.7864C9.395 10.6021 9.41691 10.4162 9.47599 10.2408C9.53508 10.0654 9.63004 9.9042 9.75484 9.76749C9.87964 9.63077 10.0315 9.52155 10.2009 9.44675C10.3702 9.37196 10.5532 9.33325 10.7383 9.33307H12.7383C13.0619 9.32989 13.3755 9.44446 13.6208 9.65543C13.8661 9.8664 14.0264 10.1594 14.0717 10.4797C14.1561 11.1198 14.3126 11.7482 14.5383 12.3531C14.628 12.5917 14.6474 12.851 14.5943 13.1003C14.5411 13.3496 14.4176 13.5785 14.2383 13.7597L13.3917 14.6064C14.3407 16.2754 15.7226 17.6574 17.3917 18.6064L18.2383 17.7597C18.4196 17.5805 18.6484 17.457 18.8977 17.4038C19.1471 17.3506 19.4064 17.37 19.645 17.4597C20.2498 17.6854 20.8783 17.842 21.5183 17.9264C21.8422 17.9721 22.1379 18.1352 22.3494 18.3847C22.5608 18.6343 22.6731 18.9528 22.665 19.2797Z" stroke="white" stroke-linecap="round" stroke-linejoin="round"/>
</g>
<defs>
<clipPath id="clip0_637_4688">
<rect width="16" height="16" fill="white" transform="translate(8 8)"/>
</clipPath>
</defs>
</svg>
